<svg width="27" height="27" viewBox="0 0 27 27" fill="none" xmlns="http://www.w3.org/2000/svg">
<path opacity="0.4" d="M1.59717 13.4292C1.59717 19.8191 6.77716 24.999 13.167 24.999C19.5569 24.999 24.7368 19.8191 24.7368 13.4292C24.7368 7.03937 19.5569 1.85938 13.167 1.85938C6.77716 1.85938 1.59717 7.03937 1.59717 13.4292Z" fill="#7950FF"/>
<path d="M18.415 9.146C18.7002 9.66751 18.5086 10.3215 17.9872 10.6067C16.5112 11.4138 15.1252 13.1036 14.0668 14.7241C13.5509 15.5141 13.137 16.2497 12.8523 16.7875C12.7102 17.0558 12.6011 17.2736 12.5282 17.4226L12.4224 17.6437C12.2562 18.0071 11.9021 18.2488 11.503 18.2709C11.1038 18.2929 10.7253 18.0918 10.52 17.7487C10.1856 17.1896 9.65422 16.6792 9.16176 16.2899C8.92248 16.1007 8.7071 15.9516 8.5534 15.8509L8.32707 15.7094C7.81101 15.4147 7.63132 14.7577 7.92573 14.2415C8.22021 13.7251 8.8775 13.5453 9.39383 13.8397L9.73289 14.0503C9.92898 14.1787 10.1979 14.3652 10.4968 14.6014C10.7252 14.782 10.9805 14.9991 11.2383 15.2492C11.5147 14.7526 11.8602 14.1664 12.2646 13.5471C13.3588 11.8717 14.9862 9.79443 16.9544 8.71812C17.4758 8.43291 18.1298 8.62449 18.415 9.146Z" fill="#7950FF"/>
</svg>
