<svg width="1417" height="1417" viewBox="0 0 1417 1417" fill="none" xmlns="http://www.w3.org/2000/svg">
<g style="mix-blend-mode:color-dodge" clip-path="url(#clip0_877_5879)" filter="url(#filter0_f_877_5879)">
<path d="M1161 256H256V1161H1161V256Z" fill="black"/>
<path d="M1161 256H256V1161H1161V256Z" fill="#907CFF" fill-opacity="0.387813"/>
<mask id="mask0_877_5879" style="mask-type:luminance" maskUnits="userSpaceOnUse" x="256" y="256" width="905" height="905">
<path d="M1161 256H256V1161H1161V256Z" fill="white"/>
</mask>
<g mask="url(#mask0_877_5879)">
<g filter="url(#filter1_f_877_5879)">
<path d="M1020.72 408.152H313.693V969.818H1020.72V408.152Z" fill="#18A0FB"/>
<path d="M1120.84 287.109H490.734V770.719H1120.84V287.109Z" fill="#F2371F"/>
<path d="M1372.54 339.711H674.562V869.702H1372.54V339.711Z" fill="#EE46D3"/>
<path d="M1064.84 691.531H568.791V1163.26H1064.84V691.531Z" fill="#00C5DF"/>
</g>
</g>
<g style="mix-blend-mode:overlay">
<path d="M1161 256H256V1161H1161V256Z" fill="#808080"/>
</g>
</g>
<defs>
<filter id="filter0_f_877_5879" x="0" y="0" width="1417" height="1417" filterUnits="userSpaceOnUse" color-interpolation-filters="sRGB">
<feFlood flood-opacity="0" result="BackgroundImageFix"/>
<feBlend mode="normal" in="SourceGraphic" in2="BackgroundImageFix" result="shape"/>
<feGaussianBlur stdDeviation="128" result="effect1_foregroundBlur_877_5879"/>
</filter>
<filter id="filter1_f_877_5879" x="30.8809" y="4.29688" width="1624.47" height="1441.78" filterUnits="userSpaceOnUse" color-interpolation-filters="sRGB">
<feFlood flood-opacity="0" result="BackgroundImageFix"/>
<feBlend mode="normal" in="SourceGraphic" in2="BackgroundImageFix" result="shape"/>
<feGaussianBlur stdDeviation="141.406" result="effect1_foregroundBlur_877_5879"/>
</filter>
<clipPath id="clip0_877_5879">
<rect width="905" height="905" fill="white" transform="translate(256 256)"/>
</clipPath>
</defs>
</svg>
