<svg width="1440" height="400" viewBox="0 0 1440 400" fill="none" xmlns="http://www.w3.org/2000/svg">
<g clip-path="url(#clip0_564_77)">
<path opacity="0.2" d="M265.677 180.009C265.677 228.302 225.898 267.45 176.828 267.45C127.758 267.45 87.9788 228.302 87.9788 180.009C87.9788 131.716 127.758 92.5677 176.828 92.5677C225.898 92.5677 265.677 131.716 265.677 180.009ZM265.677 180.009L1180.96 180.033M1180.96 180.033C1180.96 228.325 1220.74 267.474 1269.81 267.474C1318.88 267.474 1358.66 228.325 1358.66 180.033C1358.66 131.741 1318.88 92.5927 1269.81 92.5927C1220.74 92.5927 1180.96 131.741 1180.96 180.033ZM-46 -466.085H1487M-46 -99.6641H1487M176.828 400V-597.94M333.372 400V-597.94M1269.81 400V-597.94M1113.27 400V-597.94M682.835 -597.246L176.828 -99.6641L685.242 399.713M763.162 -598L1269.81 -99.6641L761.692 399.999M265.677 -378.643C265.677 -330.351 225.898 -291.202 176.828 -291.202C127.758 -291.202 87.9788 -330.351 87.9788 -378.643C87.9788 -426.936 127.758 -466.085 176.828 -466.085C225.898 -466.085 265.677 -426.936 265.677 -378.643ZM1358.66 -378.643C1358.66 -330.351 1318.88 -291.202 1269.81 -291.202C1220.74 -291.202 1180.96 -330.351 1180.96 -378.643C1180.96 -426.936 1220.74 -466.085 1269.81 -466.085C1318.88 -466.085 1358.66 -426.936 1358.66 -378.643Z" stroke="#2D3344" stroke-width="1.60682" stroke-linecap="round"/>
</g>
<defs>
<clipPath id="clip0_564_77">
<rect width="1440" height="400" fill="white"/>
</clipPath>
</defs>
</svg>
