<svg width="41" height="41" viewBox="0 0 41 41" fill="none" xmlns="http://www.w3.org/2000/svg">
<path d="M34.9941 6.00586C31.1264 2.13008 25.9773 0 20.5 0C15.0227 0 9.87363 2.13008 6.00586 6.00586C2.13008 9.87363 0 15.0227 0 20.5C0 25.9773 2.13008 31.1264 6.00586 34.9941C9.88164 38.8619 15.0227 41 20.5 41C25.9773 41 31.1264 38.8699 34.9941 34.9941C38.8619 31.1264 41 25.9773 41 20.5C41 15.0227 38.8699 9.87363 34.9941 6.00586ZM33.1844 33.1844C26.1936 40.1752 14.8064 40.1752 7.81562 33.1844C0.824804 26.1936 0.824804 14.8064 7.81562 7.81562C14.8145 0.824804 26.1936 0.824804 33.1844 7.81562C40.1752 14.8145 40.1752 26.1936 33.1844 33.1844ZM28.8602 13.4211V22.4299C28.8602 23.1346 28.2836 23.7111 27.5789 23.7111C26.8742 23.7111 26.2977 23.1346 26.2977 22.4299V16.5121L14.326 28.4838C14.0777 28.732 13.7494 28.8602 13.4211 28.8602C13.0928 28.8602 12.7645 28.732 12.5162 28.4838C12.0197 27.9873 12.0197 27.1705 12.5162 26.674L24.4879 14.7023H18.5701C17.8654 14.7023 17.2889 14.1258 17.2889 13.4211C17.2889 12.7164 17.8654 12.1398 18.5701 12.1398H27.5789C28.2836 12.1398 28.8602 12.7164 28.8602 13.4211Z" fill="#F35D1E"/>
</svg>
