<svg width="27" height="27" viewBox="0 0 27 27" fill="none" xmlns="http://www.w3.org/2000/svg">
<path opacity="0.4" d="M1.59717 13.562C1.59717 19.9519 6.77716 25.1319 13.167 25.1319C19.5569 25.1319 24.7368 19.9519 24.7368 13.562C24.7368 7.17218 19.5569 1.99219 13.167 1.99219C6.77716 1.99219 1.59717 7.17218 1.59717 13.562Z" fill="#1E21E9"/>
<path d="M18.415 9.27833C18.7002 9.79983 18.5086 10.4538 17.9872 10.739C16.5112 11.5461 15.1252 13.2359 14.0668 14.8564C13.5509 15.6464 13.137 16.382 12.8523 16.9198C12.7102 17.1881 12.6011 17.406 12.5282 17.5549L12.4224 17.776C12.2562 18.1394 11.9021 18.3812 11.503 18.4032C11.1038 18.4252 10.7253 18.2241 10.52 17.881C10.1856 17.3219 9.65422 16.8116 9.16176 16.4223C8.92248 16.2331 8.7071 16.0839 8.5534 15.9833L8.32707 15.8417C7.81101 15.547 7.63132 14.89 7.92573 14.3738C8.22021 13.8574 8.8775 13.6776 9.39383 13.972L9.73289 14.1827C9.92898 14.3111 10.1979 14.4975 10.4968 14.7337C10.7252 14.9143 10.9805 15.1314 11.2383 15.3815C11.5147 14.8849 11.8602 14.2987 12.2646 13.6794C13.3588 12.004 14.9862 9.92676 16.9544 8.85045C17.4758 8.56524 18.1298 8.75681 18.415 9.27833Z" fill="#1E21E9"/>
</svg>
