<svg width="451" height="333" viewBox="0 0 451 333" fill="none" xmlns="http://www.w3.org/2000/svg">
<g filter="url(#filter0_b_301_207)">
<rect x="85.7036" y="0.594238" width="365.111" height="256.1" rx="11.0701" fill="url(#paint0_linear_301_207)" fill-opacity="0.16"/>
<rect x="86.0769" y="0.967562" width="364.364" height="255.354" rx="10.6968" stroke="url(#paint1_linear_301_207)" stroke-width="0.746648"/>
</g>
<g filter="url(#filter1_b_301_207)">
<rect x="46.8779" y="39.4199" width="365.111" height="256.1" rx="11.0701" fill="url(#paint2_linear_301_207)" fill-opacity="0.16"/>
<rect x="47.2513" y="39.7932" width="364.364" height="255.354" rx="10.6968" stroke="url(#paint3_linear_301_207)" stroke-width="0.746648"/>
<rect x="57.332" y="140.217" width="208.315" height="17.1729" rx="8.58646" fill="#CAD1E9"/>
<rect x="71.519" y="62.5654" width="194.129" height="17.1729" rx="8.58646" fill="#CAD1E9"/>
<rect opacity="0.4" x="71.519" y="167.842" width="259.087" height="17.1729" rx="8.58646" fill="#CAD1E9"/>
<rect opacity="0.4" x="49.8652" y="195.468" width="280.74" height="17.1729" rx="8.58646" fill="#CAD1E9"/>
<path fill-rule="evenodd" clip-rule="evenodd" d="M93.2873 275.453C93.6997 275.453 94.034 275.787 94.034 276.199V277.319C94.034 277.732 93.6997 278.066 93.2873 278.066C92.875 278.066 92.5407 277.732 92.5407 277.319V276.199C92.5407 275.787 92.875 275.453 93.2873 275.453ZM89.004 277.165C89.2956 276.873 89.7683 276.873 90.0599 277.165L90.8065 277.911C91.0981 278.203 91.0981 278.676 90.8065 278.967C90.515 279.259 90.0422 279.259 89.7506 278.967L89.004 278.221C88.7124 277.929 88.7124 277.456 89.004 277.165ZM97.5264 277.165C97.8179 277.456 97.8179 277.929 97.5264 278.221L96.7797 278.967C96.4882 279.259 96.0154 279.259 95.7238 278.967C95.4323 278.676 95.4323 278.203 95.7238 277.911L96.4705 277.165C96.762 276.873 97.2348 276.873 97.5264 277.165ZM87.292 281.448C87.292 281.036 87.6263 280.701 88.0386 280.701H89.1586C89.571 280.701 89.9053 281.036 89.9053 281.448C89.9053 281.86 89.571 282.195 89.1586 282.195H88.0386C87.6263 282.195 87.292 281.86 87.292 281.448ZM90.8065 283.884C91.0981 284.176 91.0981 284.649 90.8065 284.94L90.0599 285.687C89.7683 285.979 89.2956 285.979 89.004 285.687C88.7124 285.395 88.7124 284.923 89.004 284.631L89.7506 283.884C90.0422 283.593 90.515 283.593 90.8065 283.884Z" fill="#CAD1E9"/>
<path d="M103.316 283.43C103.416 283.561 103.533 283.761 103.532 284.012C103.528 284.621 103.112 285.038 102.709 285.301C102.295 285.572 101.764 285.772 101.247 285.926C100.722 286.082 100.172 286.203 99.7034 286.3C99.3765 286.367 98.796 286.486 98.6295 286.532C98.355 286.609 98.2994 286.659 98.2814 286.678C98.2608 286.701 98.2124 286.767 98.1481 287.06L98.1457 287.071C97.8446 288.44 97.608 289.516 97.3549 290.249C97.2284 290.616 97.0818 290.947 96.8891 291.197C96.6861 291.461 96.3971 291.675 96.0085 291.692C95.7525 291.703 95.547 291.586 95.4171 291.49C95.2788 291.387 95.1528 291.253 95.0403 291.112C94.8138 290.829 94.5798 290.443 94.3502 290.004C93.888 289.121 93.4005 287.941 92.9887 286.729C92.5772 285.518 92.2329 284.252 92.0666 283.195C91.9837 282.668 91.9415 282.173 91.9649 281.752C91.9867 281.361 92.0705 280.911 92.3569 280.603C92.6525 280.285 93.1026 280.176 93.4964 280.139C93.9167 280.098 94.4138 280.125 94.9411 280.194C95.9997 280.333 97.2735 280.654 98.4932 281.046C99.7139 281.439 100.906 281.913 101.803 282.368C102.248 282.595 102.64 282.827 102.93 283.054C103.074 283.166 103.211 283.292 103.316 283.43Z" fill="#CAD1E9"/>
</g>
<rect x="22.9849" y="244.748" width="67.1983" height="32.1059" rx="11.0701" fill="#ED5959"/>
<rect x="23.3582" y="245.121" width="66.4517" height="31.3592" rx="10.6968" stroke="white" stroke-opacity="0.17" stroke-width="0.746648"/>
<path d="M41.6918 256.498C42.5758 256.498 43.3484 256.669 44.0094 257.012C44.6784 257.346 45.1921 257.832 45.5505 258.469C45.9168 259.098 46.1 259.835 46.1 260.679C46.1 261.523 45.9168 262.256 45.5505 262.877C45.1921 263.499 44.6784 263.976 44.0094 264.311C43.3484 264.638 42.5758 264.801 41.6918 264.801H38.98V256.498H41.6918ZM41.6918 263.69C42.6634 263.69 43.4081 263.427 43.9258 262.901C44.4434 262.376 44.7023 261.635 44.7023 260.679C44.7023 259.716 44.4434 258.963 43.9258 258.421C43.4081 257.88 42.6634 257.609 41.6918 257.609H40.3418V263.69H41.6918ZM53.1093 261.348C53.1093 261.595 53.0934 261.818 53.0616 262.017H48.0321C48.072 262.543 48.2671 262.965 48.6175 263.284C48.9679 263.602 49.398 263.761 49.9077 263.761C50.6404 263.761 51.1581 263.455 51.4608 262.842H52.9302C52.731 263.447 52.3687 263.945 51.843 264.335C51.3254 264.717 50.6803 264.908 49.9077 264.908C49.2785 264.908 48.7131 264.769 48.2113 264.49C47.7176 264.203 47.3273 263.805 47.0406 263.296C46.7618 262.778 46.6225 262.181 46.6225 261.504C46.6225 260.827 46.7579 260.233 47.0286 259.724C47.3074 259.206 47.6937 258.808 48.1874 258.529C48.6892 258.25 49.2626 258.111 49.9077 258.111C50.5289 258.111 51.0824 258.246 51.5683 258.517C52.0541 258.788 52.4324 259.17 52.7032 259.664C52.974 260.15 53.1093 260.711 53.1093 261.348ZM51.6877 260.918C51.6798 260.416 51.5006 260.014 51.1501 259.712C50.7997 259.409 50.3657 259.258 49.848 259.258C49.3781 259.258 48.9759 259.409 48.6414 259.712C48.3069 260.006 48.1078 260.408 48.0441 260.918H51.6877ZM55.4381 255.96V264.801H54.0763V255.96H55.4381ZM62.8858 261.348C62.8858 261.595 62.8698 261.818 62.838 262.017H57.8086C57.8484 262.543 58.0435 262.965 58.3939 263.284C58.7444 263.602 59.1744 263.761 59.6841 263.761C60.4169 263.761 60.9345 263.455 61.2372 262.842H62.7066C62.5075 263.447 62.1451 263.945 61.6195 264.335C61.1018 264.717 60.4567 264.908 59.6841 264.908C59.055 264.908 58.4895 264.769 57.9878 264.49C57.494 264.203 57.1037 263.805 56.817 263.296C56.5383 262.778 56.3989 262.181 56.3989 261.504C56.3989 260.827 56.5343 260.233 56.8051 259.724C57.0838 259.206 57.4701 258.808 57.9639 258.529C58.4656 258.25 59.039 258.111 59.6841 258.111C60.3054 258.111 60.8589 258.246 61.3447 258.517C61.8305 258.788 62.2088 259.17 62.4796 259.664C62.7504 260.15 62.8858 260.711 62.8858 261.348ZM61.4642 260.918C61.4562 260.416 61.277 260.014 60.9266 259.712C60.5761 259.409 60.1421 259.258 59.6244 259.258C59.1545 259.258 58.7523 259.409 58.4178 259.712C58.0833 260.006 57.8842 260.408 57.8205 260.918H61.4642ZM65.4416 259.329V262.973C65.4416 263.22 65.4973 263.399 65.6088 263.511C65.7283 263.614 65.9274 263.666 66.2061 263.666H67.0424V264.801H65.9672C65.3539 264.801 64.8841 264.657 64.5575 264.371C64.231 264.084 64.0677 263.618 64.0677 262.973V259.329H63.2912V258.218H64.0677V256.582H65.4416V258.218H67.0424V259.329H65.4416ZM73.9572 261.348C73.9572 261.595 73.9412 261.818 73.9094 262.017H68.88C68.9198 262.543 69.1149 262.965 69.4653 263.284C69.8158 263.602 70.2458 263.761 70.7555 263.761C71.4883 263.761 72.0059 263.455 72.3086 262.842H73.778C73.5789 263.447 73.2165 263.945 72.6909 264.335C72.1732 264.717 71.5281 264.908 70.7555 264.908C70.1264 264.908 69.5609 264.769 69.0592 264.49C68.5654 264.203 68.1751 263.805 67.8884 263.296C67.6097 262.778 67.4703 262.181 67.4703 261.504C67.4703 260.827 67.6057 260.233 67.8765 259.724C68.1552 259.206 68.5415 258.808 69.0353 258.529C69.537 258.25 70.1104 258.111 70.7555 258.111C71.3768 258.111 71.9303 258.246 72.4161 258.517C72.9019 258.788 73.2802 259.17 73.551 259.664C73.8218 260.15 73.9572 260.711 73.9572 261.348ZM72.5356 260.918C72.5276 260.416 72.3484 260.014 71.998 259.712C71.6475 259.409 71.2135 259.258 70.6958 259.258C70.2259 259.258 69.8237 259.409 69.4892 259.712C69.1547 260.006 68.9556 260.408 68.8919 260.918H72.5356Z" fill="white"/>
<g filter="url(#filter2_d_301_207)">
<rect x="4.31934" y="131.257" width="90.3445" height="90.3445" rx="11.0701" fill="#0B1023"/>
<path opacity="0.4" fill-rule="evenodd" clip-rule="evenodd" d="M36.0054 167.05C36.0054 164.782 37.8439 162.943 40.1119 162.943C42.3799 162.943 44.2185 164.782 44.2185 167.05C44.2185 169.318 42.3799 171.156 40.1119 171.156C37.8439 171.156 36.0054 169.318 36.0054 167.05Z" fill="#3569CF"/>
<path opacity="0.4" d="M70.4807 178.246C66.4827 175.668 62.6739 174.587 59.0285 174.74C55.3999 174.891 52.1373 176.255 49.2023 178.218C44.2365 181.538 39.869 186.835 35.9584 191.579C35.3393 192.329 34.7316 193.067 34.135 193.78L32.4126 195.285L34.9237 196.994C36.6982 197.729 38.7735 198.051 41.1585 198.208C43.5343 198.364 46.3959 198.364 49.7988 198.364H50.0197C54.4876 198.364 58.0495 198.364 60.8421 197.989C63.7258 197.601 66.0949 196.78 67.9683 194.906C69.6099 193.265 70.449 191.25 70.8915 188.823C71.3225 186.459 71.4032 183.543 71.4211 179.982L71.4268 178.856L70.4807 178.246Z" fill="#3569CF"/>
<path fill-rule="evenodd" clip-rule="evenodd" d="M49.7112 155.243H50.0171C54.4849 155.243 58.0469 155.243 60.8396 155.618C63.7232 156.006 66.0923 156.827 67.9657 158.701C69.8391 160.574 70.6606 162.943 71.0483 165.827C71.4236 168.62 71.4236 172.181 71.4236 176.649V176.955C71.4236 181.423 71.4236 184.985 71.0483 187.778C70.6606 190.661 69.8391 193.03 67.9657 194.904C66.0923 196.777 63.7232 197.599 60.8396 197.986C58.0467 198.362 54.4849 198.362 50.0169 198.362H49.7114C45.2434 198.362 41.6815 198.362 38.8888 197.986C36.0052 197.599 33.6361 196.777 31.7627 194.904C29.8893 193.03 29.0678 190.661 28.6801 187.778C28.3046 184.985 28.3046 181.423 28.3047 176.955V176.649C28.3046 172.181 28.3046 168.62 28.6801 165.827C29.0678 162.943 29.8893 160.574 31.7627 158.701C33.6361 156.827 36.0052 156.006 38.8888 155.618C41.6815 155.243 45.2434 155.243 49.7112 155.243ZM39.436 159.688C37.0077 160.014 35.6497 160.621 34.6665 161.604C33.6833 162.588 33.0765 163.946 32.75 166.374C32.4156 168.861 32.4113 172.146 32.4113 176.802C32.4113 181.458 32.4156 184.743 32.75 187.23C33.0765 189.659 33.6833 191.017 34.6665 192C35.6497 192.983 37.0077 193.59 39.436 193.916C41.9233 194.251 45.2085 194.255 49.8642 194.255C54.5198 194.255 57.805 194.251 60.2924 193.916C62.7206 193.59 64.0786 192.983 65.0619 192C66.0451 191.017 66.6518 189.659 66.9783 187.23C67.3128 184.743 67.3171 181.458 67.3171 176.802C67.3171 172.146 67.3128 168.861 66.9783 166.374C66.6518 163.946 66.0451 162.588 65.0619 161.604C64.0786 160.621 62.7206 160.014 60.2924 159.688C57.805 159.354 54.5198 159.349 49.8642 159.349C45.2085 159.349 41.9233 159.354 39.436 159.688Z" fill="#3569CF"/>
</g>
<g filter="url(#filter3_d_301_207)">
<rect x="342.551" y="238.028" width="90.3445" height="90.3445" rx="11.0701" fill="#0B1023"/>
<path opacity="0.4" d="M380.021 276.986C382.599 276.868 385.216 276.806 388.096 276.806C390.975 276.806 393.593 276.868 396.17 276.986C399.883 277.157 402.899 280.033 403.389 283.672C403.656 285.658 403.884 287.744 403.884 289.888C403.884 292.032 403.656 294.118 403.389 296.104C402.899 299.743 399.883 302.619 396.17 302.79C393.593 302.908 390.975 302.97 388.096 302.97C385.216 302.97 382.599 302.908 380.021 302.79C376.308 302.619 373.292 299.743 372.802 296.104C372.535 294.118 372.307 292.032 372.307 289.888C372.307 287.744 372.535 285.658 372.802 283.672C373.292 280.033 376.308 277.157 380.021 276.986Z" fill="#236936"/>
<path fill-rule="evenodd" clip-rule="evenodd" d="M384.765 284.024C383.657 284.024 382.589 284.702 382.226 285.825L379.591 293.983C379.361 294.694 379.751 295.457 380.463 295.687C381.174 295.917 381.937 295.526 382.166 294.815L382.738 293.046H386.792L387.364 294.815C387.593 295.526 388.356 295.917 389.067 295.687C389.779 295.457 390.169 294.694 389.939 293.983L387.303 285.825C386.941 284.702 385.873 284.024 384.765 284.024ZM383.613 290.339L384.766 286.771L385.918 290.339H383.613Z" fill="#236936"/>
<path d="M394.862 285.377C394.862 284.63 394.256 284.024 393.509 284.024C392.761 284.024 392.155 284.63 392.155 285.377V294.399C392.155 295.147 392.761 295.753 393.509 295.753C394.256 295.753 394.862 295.147 394.862 294.399V285.377Z" fill="#236936"/>
<path d="M381.781 274.099C381.781 270.612 384.608 267.784 388.096 267.784C391.584 267.784 394.411 270.612 394.411 274.099V276.915C395.002 276.936 395.587 276.96 396.17 276.986C396.811 277.016 397.431 277.126 398.02 277.306V274.099C398.02 268.619 393.577 264.175 388.096 264.175C382.615 264.175 378.172 268.619 378.172 274.099V277.306C378.761 277.126 379.381 277.016 380.022 276.986C380.605 276.96 381.191 276.936 381.781 276.915V274.099Z" fill="#236936"/>
</g>
<defs>
<filter id="filter0_b_301_207" x="76.9678" y="-8.14155" width="382.582" height="273.572" filterUnits="userSpaceOnUse" color-interpolation-filters="sRGB">
<feFlood flood-opacity="0" result="BackgroundImageFix"/>
<feGaussianBlur in="BackgroundImageFix" stdDeviation="4.36789"/>
<feComposite in2="SourceAlpha" operator="in" result="effect1_backgroundBlur_301_207"/>
<feBlend mode="normal" in="SourceGraphic" in2="effect1_backgroundBlur_301_207" result="shape"/>
</filter>
<filter id="filter1_b_301_207" x="-21.5897" y="-29.0477" width="502.046" height="393.036" filterUnits="userSpaceOnUse" color-interpolation-filters="sRGB">
<feFlood flood-opacity="0" result="BackgroundImageFix"/>
<feGaussianBlur in="BackgroundImageFix" stdDeviation="34.2338"/>
<feComposite in2="SourceAlpha" operator="in" result="effect1_backgroundBlur_301_207"/>
<feBlend mode="normal" in="SourceGraphic" in2="effect1_backgroundBlur_301_207" result="shape"/>
</filter>
<filter id="filter2_d_301_207" x="0.586094" y="127.524" width="97.8107" height="97.8107" filterUnits="userSpaceOnUse" color-interpolation-filters="sRGB">
<feFlood flood-opacity="0" result="BackgroundImageFix"/>
<feColorMatrix in="SourceAlpha" type="matrix" values="0 0 0 0 0 0 0 0 0 0 0 0 0 0 0 0 0 0 127 0" result="hardAlpha"/>
<feMorphology radius="3.73324" operator="dilate" in="SourceAlpha" result="effect1_dropShadow_301_207"/>
<feOffset/>
<feComposite in2="hardAlpha" operator="out"/>
<feColorMatrix type="matrix" values="0 0 0 0 1 0 0 0 0 1 0 0 0 0 1 0 0 0 0.11 0"/>
<feBlend mode="normal" in2="BackgroundImageFix" result="effect1_dropShadow_301_207"/>
<feBlend mode="normal" in="SourceGraphic" in2="effect1_dropShadow_301_207" result="shape"/>
</filter>
<filter id="filter3_d_301_207" x="338.818" y="234.295" width="97.8107" height="97.8107" filterUnits="userSpaceOnUse" color-interpolation-filters="sRGB">
<feFlood flood-opacity="0" result="BackgroundImageFix"/>
<feColorMatrix in="SourceAlpha" type="matrix" values="0 0 0 0 0 0 0 0 0 0 0 0 0 0 0 0 0 0 127 0" result="hardAlpha"/>
<feMorphology radius="3.73324" operator="dilate" in="SourceAlpha" result="effect1_dropShadow_301_207"/>
<feOffset/>
<feComposite in2="hardAlpha" operator="out"/>
<feColorMatrix type="matrix" values="0 0 0 0 1 0 0 0 0 1 0 0 0 0 1 0 0 0 0.11 0"/>
<feBlend mode="normal" in2="BackgroundImageFix" result="effect1_dropShadow_301_207"/>
<feBlend mode="normal" in="SourceGraphic" in2="effect1_dropShadow_301_207" result="shape"/>
</filter>
<linearGradient id="paint0_linear_301_207" x1="115.943" y1="0.594217" x2="499.615" y2="101.198" gradientUnits="userSpaceOnUse">
<stop stop-color="#0084FF"/>
<stop offset="0.438035" stop-color="#FFAB90"/>
<stop offset="1" stop-color="#FD8AC8"/>
</linearGradient>
<linearGradient id="paint1_linear_301_207" x1="80.8504" y1="4.32745" x2="333.45" y2="353.063" gradientUnits="userSpaceOnUse">
<stop stop-color="#2D2E48"/>
<stop offset="1" stop-color="white" stop-opacity="0.06"/>
</linearGradient>
<linearGradient id="paint2_linear_301_207" x1="343.297" y1="72.2725" x2="191.195" y2="365.941" gradientUnits="userSpaceOnUse">
<stop stop-color="#1B1C36"/>
<stop offset="1" stop-color="#00000B"/>
</linearGradient>
<linearGradient id="paint3_linear_301_207" x1="46.8779" y1="295.52" x2="450.89" y2="193.553" gradientUnits="userSpaceOnUse">
<stop offset="0.362307" stop-color="#2C2D47"/>
<stop offset="1" stop-color="white" stop-opacity="0.07"/>
</linearGradient>
</defs>
</svg>
