<svg width="366" height="207" viewBox="0 0 366 207" fill="none" xmlns="http://www.w3.org/2000/svg">
<path fill-rule="evenodd" clip-rule="evenodd" d="M29.9611 30.3145C69.9093 -10.1048 134.679 -10.1048 174.626 30.3145L216 72.1762L257.374 30.3145C297.323 -10.1048 362.091 -10.1048 402.039 30.3145C441.987 70.7338 441.987 136.266 402.039 176.685C362.091 217.105 297.323 217.105 257.374 176.685L216 134.824L174.626 176.685C134.679 217.105 69.9093 217.105 29.9611 176.685C-9.98704 136.266 -9.98705 70.7338 29.9611 30.3145ZM246.959 103.5L288.333 145.362C311.183 168.482 348.23 168.482 371.08 145.362C393.931 122.242 393.931 84.7579 371.08 61.6384C348.23 38.5188 311.183 38.5188 288.333 61.6384L246.959 103.5ZM185.041 103.5L143.667 61.6384C120.818 38.5188 83.7701 38.5188 60.9199 61.6384C38.0698 84.7579 38.0699 122.242 60.9199 145.362C83.7701 168.482 120.818 168.482 143.667 145.362L185.041 103.5Z" fill="url(#paint0_radial_733_88)"/>
<defs>
<radialGradient id="paint0_radial_733_88" cx="0" cy="0" r="1" gradientUnits="userSpaceOnUse" gradientTransform="translate(164.321 -112.177) rotate(34.9208) scale(615.051 235.78)">
<stop stop-color="#111116" stop-opacity="0.8"/>
<stop offset="0.851531" stop-color="#17171B"/>
</radialGradient>
</defs>
</svg>
