<svg width="27" height="27" viewBox="0 0 27 27" fill="none" xmlns="http://www.w3.org/2000/svg">
<path opacity="0.4" d="M1.59717 13.2969C1.59717 19.6868 6.77716 24.8667 13.167 24.8667C19.5569 24.8667 24.7368 19.6868 24.7368 13.2969C24.7368 6.90704 19.5569 1.72705 13.167 1.72705C6.77716 1.72705 1.59717 6.90704 1.59717 13.2969Z" fill="#098709"/>
<path d="M18.415 9.01319C18.7002 9.5347 18.5086 10.1887 17.9872 10.4739C16.5112 11.281 15.1252 12.9707 14.0668 14.5913C13.5509 15.3813 13.137 16.1169 12.8523 16.6547C12.7102 16.923 12.6011 17.1408 12.5282 17.2898L12.4224 17.5109C12.2562 17.8743 11.9021 18.116 11.503 18.1381C11.1038 18.1601 10.7253 17.959 10.52 17.6159C10.1856 17.0568 9.65422 16.5464 9.16176 16.1571C8.92248 15.9679 8.7071 15.8188 8.5534 15.7181L8.32707 15.5766C7.81101 15.2819 7.63132 14.6249 7.92573 14.1087C8.22021 13.5923 8.8775 13.4124 9.39383 13.7069L9.73289 13.9175C9.92898 14.0459 10.1979 14.2323 10.4968 14.4686C10.7252 14.6492 10.9805 14.8663 11.2383 15.1164C11.5147 14.6198 11.8602 14.0336 12.2646 13.4143C13.3588 11.7389 14.9862 9.66162 16.9544 8.58531C17.4758 8.3001 18.1298 8.49168 18.415 9.01319Z" fill="#098709"/>
</svg>
