<svg width="470" height="330" viewBox="0 0 470 330" fill="none" xmlns="http://www.w3.org/2000/svg">
<path fill-rule="evenodd" clip-rule="evenodd" d="M305.134 17.7041C282.064 17.7041 263.307 25.4976 246.948 33.9726C242.005 36.5335 237.413 39.0668 233.025 41.4876C222.288 47.4107 212.771 52.6604 202.32 55.9948C196.182 57.9532 190.745 59.6878 186.89 61.1985C183.262 62.6203 178.949 64.5687 175.89 67.969C173.141 71.0234 171.73 74.4525 170.793 77.7326C169.944 80.7101 169.217 84.741 168.52 88.6082C151.533 182.821 188.679 272.076 279.391 306.805C288.306 310.22 294.874 312.735 305.179 312.735C315.486 312.735 322.052 310.22 330.967 306.805C421.676 272.074 458.786 182.817 441.793 88.6075C441.096 84.7399 440.369 80.708 439.52 77.7304C438.582 74.4501 437.17 71.0206 434.422 67.9661C431.362 64.5658 427.05 62.6179 423.42 61.1966C419.566 59.6864 414.129 57.9528 407.991 55.9955C397.536 52.661 388.011 47.4101 377.265 41.4862C372.876 39.066 368.28 36.5326 363.337 33.9725C346.969 25.4977 328.205 17.7041 305.134 17.7041ZM270.842 119.764V134.333C269.811 134.646 268.786 135.021 267.769 135.472C259.258 139.249 252.713 146.388 249.348 155.092C247.895 158.852 247.336 162.712 247.077 166.782C246.827 170.7 246.827 175.471 246.827 181.191V181.839C246.827 187.557 246.827 192.329 247.077 196.247C247.336 200.317 247.895 204.179 249.348 207.937C252.713 216.643 259.258 223.781 267.769 227.557C271.506 229.216 275.332 229.842 279.251 230.129C282.978 230.401 287.494 230.401 292.782 230.401H317.513C322.803 230.401 327.317 230.401 331.044 230.129C334.963 229.842 338.789 229.216 342.526 227.557C351.036 223.781 357.582 216.643 360.947 207.937C362.4 204.179 362.958 200.317 363.218 196.247C363.467 192.329 363.467 187.557 363.467 181.839V181.191C363.467 175.471 363.467 170.7 363.218 166.782C362.958 162.712 362.4 158.852 360.947 155.092C357.582 146.388 351.036 139.249 342.526 135.472C341.509 135.021 340.484 134.646 339.453 134.333V119.764C339.453 100.942 323.738 86.3159 305.147 86.3159C286.556 86.3159 270.842 100.942 270.842 119.764ZM305.147 106.899C297.213 106.899 291.425 113.009 291.425 119.764V132.629L292.782 132.629H317.513L318.87 132.629V119.764C318.87 113.009 313.082 106.899 305.147 106.899Z" fill="#0084FF"/>
<g filter="url(#filter0_b_301_362)">
<rect x="94.3525" y="253.319" width="223.248" height="68.2659" rx="18.4502" fill="url(#paint0_linear_301_362)" fill-opacity="0.16"/>
<rect x="94.8138" y="253.781" width="222.325" height="67.3434" rx="17.989" stroke="url(#paint1_linear_301_362)" stroke-width="0.922512"/>
<g filter="url(#filter1_d_301_362)">
<g clip-path="url(#clip0_301_362)">
<rect x="105.423" y="263.467" width="47.9706" height="47.9706" rx="14.7602" fill="white" fill-opacity="0.07" shape-rendering="crispEdges"/>
<path d="M135.905 290.712C136.032 290.788 136.189 290.876 136.366 290.976C137.143 291.415 138.318 292.077 139.123 292.865C139.626 293.358 140.104 294.007 140.191 294.803C140.284 295.648 139.915 296.442 139.175 297.147C137.897 298.364 136.365 299.339 134.382 299.339H124.768C122.786 299.339 121.253 298.364 119.976 297.147C119.236 296.442 118.867 295.648 118.959 294.803C119.046 294.007 119.524 293.358 120.028 292.865C120.833 292.077 122.007 291.415 122.784 290.976C122.962 290.876 123.118 290.788 123.245 290.712C127.12 288.405 132.031 288.405 135.905 290.712Z" fill="#4770FF"/>
<path opacity="0.4" d="M123.852 281.623C123.852 278.462 126.415 275.899 129.576 275.899C132.737 275.899 135.3 278.462 135.3 281.623C135.3 284.784 132.737 287.346 129.576 287.346C126.415 287.346 123.852 284.784 123.852 281.623Z" fill="#4770FF"/>
<g filter="url(#filter2_f_301_362)">
<circle cx="129.839" cy="290.65" r="5.99633" fill="#4871FE"/>
</g>
</g>
</g>
<path d="M173.988 272.066V277.762C173.988 278.563 174.181 279.157 174.569 279.544C174.965 279.932 175.512 280.126 176.209 280.126C176.898 280.126 177.436 279.932 177.823 279.544C178.22 279.157 178.418 278.563 178.418 277.762V272.066H179.593V277.749C179.593 278.498 179.442 279.131 179.141 279.648C178.839 280.156 178.43 280.535 177.914 280.784C177.406 281.034 176.833 281.159 176.196 281.159C175.559 281.159 174.982 281.034 174.466 280.784C173.958 280.535 173.553 280.156 173.252 279.648C172.959 279.131 172.812 278.498 172.812 277.749V272.066H173.988ZM184.059 281.185C183.517 281.185 183.03 281.094 182.6 280.913C182.169 280.724 181.829 280.466 181.579 280.138C181.33 279.803 181.192 279.42 181.166 278.989H182.38C182.414 279.342 182.578 279.63 182.871 279.854C183.172 280.078 183.564 280.19 184.046 280.19C184.494 280.19 184.847 280.091 185.105 279.893C185.363 279.695 185.493 279.445 185.493 279.144C185.493 278.834 185.355 278.606 185.079 278.459C184.804 278.305 184.378 278.154 183.801 278.007C183.275 277.87 182.845 277.732 182.509 277.594C182.182 277.448 181.898 277.237 181.657 276.961C181.424 276.677 181.308 276.307 181.308 275.851C181.308 275.489 181.416 275.158 181.631 274.856C181.846 274.555 182.152 274.318 182.548 274.146C182.944 273.965 183.396 273.875 183.904 273.875C184.688 273.875 185.32 274.073 185.803 274.469C186.285 274.865 186.543 275.407 186.577 276.096H185.402C185.376 275.726 185.226 275.429 184.95 275.205C184.683 274.981 184.322 274.869 183.865 274.869C183.443 274.869 183.108 274.959 182.858 275.14C182.608 275.321 182.483 275.558 182.483 275.851C182.483 276.083 182.557 276.277 182.703 276.432C182.858 276.578 183.047 276.699 183.271 276.793C183.504 276.88 183.822 276.979 184.227 277.09C184.735 277.228 185.148 277.366 185.467 277.504C185.785 277.633 186.057 277.831 186.28 278.098C186.513 278.365 186.633 278.713 186.642 279.144C186.642 279.531 186.534 279.88 186.319 280.19C186.104 280.5 185.798 280.745 185.402 280.926C185.015 281.098 184.567 281.185 184.059 281.185ZM194.759 277.258C194.759 277.482 194.746 277.719 194.72 277.969H189.063C189.106 278.666 189.343 279.213 189.773 279.609C190.213 279.996 190.742 280.19 191.362 280.19C191.87 280.19 192.292 280.074 192.628 279.841C192.972 279.6 193.213 279.282 193.351 278.886H194.617C194.427 279.566 194.048 280.121 193.48 280.552C192.912 280.974 192.206 281.185 191.362 281.185C190.69 281.185 190.088 281.034 189.554 280.733C189.029 280.431 188.615 280.005 188.314 279.454C188.013 278.894 187.862 278.249 187.862 277.517C187.862 276.785 188.008 276.143 188.301 275.592C188.594 275.041 189.003 274.619 189.528 274.327C190.062 274.025 190.673 273.875 191.362 273.875C192.034 273.875 192.628 274.021 193.144 274.314C193.661 274.606 194.057 275.011 194.332 275.528C194.617 276.036 194.759 276.613 194.759 277.258ZM193.545 277.013C193.545 276.565 193.446 276.182 193.248 275.864C193.05 275.536 192.778 275.291 192.434 275.127C192.098 274.955 191.724 274.869 191.31 274.869C190.716 274.869 190.208 275.059 189.786 275.437C189.373 275.816 189.136 276.341 189.076 277.013H193.545ZM197.485 275.14C197.692 274.736 197.985 274.421 198.364 274.197C198.751 273.974 199.22 273.862 199.771 273.862V275.076H199.461C198.144 275.076 197.485 275.79 197.485 277.22V281.068H196.31V273.991H197.485V275.14ZM208.02 273.862C208.881 273.862 209.578 274.124 210.112 274.65C210.646 275.166 210.913 275.915 210.913 276.897V281.068H209.75V277.065C209.75 276.359 209.574 275.82 209.221 275.45C208.868 275.071 208.385 274.882 207.774 274.882C207.154 274.882 206.659 275.076 206.289 275.463C205.927 275.851 205.746 276.415 205.746 277.155V281.068H204.571V273.991H205.746V274.998C205.979 274.637 206.293 274.357 206.689 274.159C207.094 273.961 207.537 273.862 208.02 273.862ZM212.393 277.504C212.393 276.781 212.54 276.148 212.832 275.605C213.125 275.054 213.525 274.628 214.033 274.327C214.55 274.025 215.123 273.875 215.751 273.875C216.371 273.875 216.909 274.008 217.366 274.275C217.822 274.542 218.162 274.878 218.386 275.282V273.991H219.574V281.068H218.386V279.751C218.153 280.164 217.805 280.509 217.34 280.784C216.883 281.051 216.35 281.185 215.738 281.185C215.11 281.185 214.541 281.03 214.033 280.72C213.525 280.41 213.125 279.975 212.832 279.415C212.54 278.856 212.393 278.218 212.393 277.504ZM218.386 277.517C218.386 276.983 218.278 276.518 218.063 276.122C217.848 275.726 217.555 275.424 217.185 275.218C216.823 275.003 216.423 274.895 215.984 274.895C215.545 274.895 215.144 274.998 214.783 275.205C214.421 275.412 214.132 275.713 213.917 276.109C213.702 276.505 213.594 276.97 213.594 277.504C213.594 278.046 213.702 278.52 213.917 278.924C214.132 279.321 214.421 279.626 214.783 279.841C215.144 280.048 215.545 280.151 215.984 280.151C216.423 280.151 216.823 280.048 217.185 279.841C217.555 279.626 217.848 279.321 218.063 278.924C218.278 278.52 218.386 278.051 218.386 277.517ZM230.071 273.862C230.622 273.862 231.113 273.978 231.544 274.21C231.974 274.434 232.314 274.774 232.564 275.231C232.814 275.687 232.938 276.242 232.938 276.897V281.068H231.776V277.065C231.776 276.359 231.6 275.82 231.247 275.45C230.902 275.071 230.433 274.882 229.839 274.882C229.227 274.882 228.741 275.08 228.379 275.476C228.018 275.864 227.837 276.428 227.837 277.168V281.068H226.675V277.065C226.675 276.359 226.498 275.82 226.145 275.45C225.801 275.071 225.331 274.882 224.737 274.882C224.126 274.882 223.64 275.08 223.278 275.476C222.916 275.864 222.735 276.428 222.735 277.168V281.068H221.56V273.991H222.735V275.011C222.968 274.641 223.278 274.357 223.665 274.159C224.061 273.961 224.496 273.862 224.97 273.862C225.564 273.862 226.089 273.995 226.545 274.262C227.002 274.529 227.342 274.921 227.566 275.437C227.764 274.938 228.091 274.551 228.547 274.275C229.004 273.999 229.512 273.862 230.071 273.862ZM241.324 277.258C241.324 277.482 241.311 277.719 241.285 277.969H235.628C235.671 278.666 235.908 279.213 236.339 279.609C236.778 279.996 237.307 280.19 237.927 280.19C238.435 280.19 238.857 280.074 239.193 279.841C239.537 279.6 239.778 279.282 239.916 278.886H241.182C240.992 279.566 240.614 280.121 240.045 280.552C239.477 280.974 238.771 281.185 237.927 281.185C237.256 281.185 236.653 281.034 236.119 280.733C235.594 280.431 235.181 280.005 234.879 279.454C234.578 278.894 234.427 278.249 234.427 277.517C234.427 276.785 234.574 276.143 234.866 275.592C235.159 275.041 235.568 274.619 236.093 274.327C236.627 274.025 237.238 273.875 237.927 273.875C238.599 273.875 239.193 274.021 239.71 274.314C240.226 274.606 240.622 275.011 240.898 275.528C241.182 276.036 241.324 276.613 241.324 277.258ZM240.11 277.013C240.11 276.565 240.011 276.182 239.813 275.864C239.615 275.536 239.344 275.291 238.999 275.127C238.663 274.955 238.289 274.869 237.876 274.869C237.281 274.869 236.773 275.059 236.352 275.437C235.938 275.816 235.702 276.341 235.641 277.013H240.11Z" fill="#AFB3CA"/>
<path d="M174.914 296.998V301.5C174.914 301.805 174.983 302.026 175.121 302.164C175.268 302.292 175.514 302.356 175.859 302.356H176.892V303.758H175.563C174.806 303.758 174.225 303.581 173.822 303.227C173.418 302.873 173.216 302.297 173.216 301.5V296.998H172.257V295.625H173.216V293.603H174.914V295.625H176.892V296.998H174.914ZM185.347 295.625V303.758H183.664V302.799C183.398 303.133 183.049 303.399 182.616 303.596C182.193 303.783 181.74 303.876 181.258 303.876C180.618 303.876 180.043 303.744 179.531 303.478C179.029 303.212 178.631 302.819 178.336 302.297C178.05 301.776 177.908 301.146 177.908 300.408V295.625H179.575V300.157C179.575 300.885 179.757 301.446 180.122 301.839C180.486 302.223 180.983 302.415 181.612 302.415C182.242 302.415 182.739 302.223 183.103 301.839C183.477 301.446 183.664 300.885 183.664 300.157V295.625H185.347ZM190.515 296.998H189.01V303.758H187.312V296.998H186.353V295.625H187.312V295.05C187.312 294.115 187.558 293.436 188.05 293.013C188.552 292.58 189.334 292.363 190.397 292.363V293.766C189.885 293.766 189.526 293.864 189.32 294.061C189.113 294.248 189.01 294.577 189.01 295.05V295.625H190.515V296.998ZM190.984 299.655C190.984 298.838 191.152 298.115 191.486 297.485C191.831 296.855 192.293 296.368 192.874 296.024C193.464 295.67 194.113 295.493 194.822 295.493C195.462 295.493 196.017 295.621 196.49 295.876C196.972 296.122 197.356 296.432 197.641 296.806V295.625H199.339V303.758H197.641V302.548C197.356 302.932 196.967 303.252 196.475 303.507C195.983 303.763 195.422 303.891 194.792 303.891C194.094 303.891 193.454 303.714 192.874 303.36C192.293 302.996 191.831 302.494 191.486 301.854C191.152 301.205 190.984 300.472 190.984 299.655ZM197.641 299.684C197.641 299.124 197.523 298.637 197.287 298.223C197.061 297.81 196.76 297.495 196.386 297.279C196.013 297.062 195.609 296.954 195.176 296.954C194.743 296.954 194.34 297.062 193.966 297.279C193.592 297.485 193.287 297.795 193.051 298.208C192.824 298.612 192.711 299.094 192.711 299.655C192.711 300.216 192.824 300.708 193.051 301.131C193.287 301.554 193.592 301.879 193.966 302.105C194.35 302.322 194.753 302.43 195.176 302.43C195.609 302.43 196.013 302.322 196.386 302.105C196.76 301.889 197.061 301.574 197.287 301.161C197.523 300.737 197.641 300.245 197.641 299.684ZM208.408 295.625L203.419 307.581H201.678L203.331 303.625L200.128 295.625H202.003L204.29 301.825L206.667 295.625H208.408ZM216.671 299.493C216.671 299.798 216.651 300.073 216.612 300.319H210.398C210.447 300.969 210.688 301.49 211.121 301.884C211.554 302.277 212.085 302.474 212.715 302.474C213.62 302.474 214.26 302.095 214.634 301.338H216.45C216.204 302.085 215.756 302.7 215.106 303.183C214.467 303.655 213.67 303.891 212.715 303.891C211.938 303.891 211.239 303.719 210.619 303.375C210.009 303.02 209.527 302.528 209.173 301.899C208.828 301.259 208.656 300.521 208.656 299.684C208.656 298.848 208.823 298.115 209.158 297.485C209.502 296.846 209.98 296.354 210.59 296.009C211.21 295.665 211.918 295.493 212.715 295.493C213.483 295.493 214.167 295.66 214.767 295.994C215.367 296.329 215.834 296.801 216.169 297.411C216.504 298.012 216.671 298.705 216.671 299.493ZM214.914 298.961C214.905 298.341 214.683 297.844 214.25 297.47C213.817 297.097 213.281 296.91 212.641 296.91C212.061 296.91 211.564 297.097 211.151 297.47C210.737 297.835 210.491 298.331 210.413 298.961H214.914ZM219.548 292.836V303.758H217.866V292.836H219.548ZM228.772 295.493C229.412 295.493 229.983 295.625 230.485 295.891C230.996 296.157 231.395 296.55 231.68 297.072C231.966 297.593 232.108 298.223 232.108 298.961V303.758H230.44V299.212C230.44 298.484 230.258 297.928 229.894 297.544C229.53 297.151 229.033 296.954 228.403 296.954C227.774 296.954 227.272 297.151 226.898 297.544C226.534 297.928 226.352 298.484 226.352 299.212V303.758H224.669V295.625H226.352V296.555C226.627 296.221 226.977 295.96 227.4 295.773C227.833 295.586 228.29 295.493 228.772 295.493ZM234.649 294.548C234.344 294.548 234.089 294.445 233.882 294.238C233.675 294.031 233.572 293.775 233.572 293.47C233.572 293.165 233.675 292.91 233.882 292.703C234.089 292.496 234.344 292.393 234.649 292.393C234.945 292.393 235.196 292.496 235.402 292.703C235.609 292.91 235.712 293.165 235.712 293.47C235.712 293.775 235.609 294.031 235.402 294.238C235.196 294.445 234.945 294.548 234.649 294.548ZM235.476 295.625V303.758H233.793V295.625H235.476ZM238.08 294.548C237.775 294.548 237.519 294.445 237.312 294.238C237.106 294.031 237.002 293.775 237.002 293.47C237.002 293.165 237.106 292.91 237.312 292.703C237.519 292.496 237.775 292.393 238.08 292.393C238.375 292.393 238.626 292.496 238.833 292.703C239.039 292.91 239.143 293.165 239.143 293.47C239.143 293.775 239.039 294.031 238.833 294.238C238.626 294.445 238.375 294.548 238.08 294.548ZM238.907 305.352C238.907 306.149 238.705 306.725 238.301 307.079C237.908 307.443 237.332 307.625 236.574 307.625H235.704V306.208H236.279C236.624 306.208 236.865 306.14 237.002 306.002C237.15 305.874 237.224 305.657 237.224 305.352V295.625H238.907V305.352ZM240.094 299.655C240.094 298.838 240.261 298.115 240.595 297.485C240.94 296.855 241.402 296.368 241.983 296.024C242.573 295.67 243.223 295.493 243.931 295.493C244.571 295.493 245.127 295.621 245.599 295.876C246.081 296.122 246.465 296.432 246.75 296.806V295.625H248.448V303.758H246.75V302.548C246.465 302.932 246.076 303.252 245.584 303.507C245.092 303.763 244.531 303.891 243.902 303.891C243.203 303.891 242.563 303.714 241.983 303.36C241.402 302.996 240.94 302.494 240.595 301.854C240.261 301.205 240.094 300.472 240.094 299.655ZM246.75 299.684C246.75 299.124 246.632 298.637 246.396 298.223C246.17 297.81 245.87 297.495 245.496 297.279C245.122 297.062 244.718 296.954 244.285 296.954C243.853 296.954 243.449 297.062 243.075 297.279C242.701 297.485 242.396 297.795 242.16 298.208C241.934 298.612 241.821 299.094 241.821 299.655C241.821 300.216 241.934 300.708 242.16 301.131C242.396 301.554 242.701 301.879 243.075 302.105C243.459 302.322 243.862 302.43 244.285 302.43C244.718 302.43 245.122 302.322 245.496 302.105C245.87 301.889 246.17 301.574 246.396 301.161C246.632 300.737 246.75 300.245 246.75 299.684Z" fill="#AFB3CA"/>
</g>
<g filter="url(#filter3_b_301_362)">
<rect x="0.256836" y="142.618" width="223.248" height="68.2659" rx="18.4502" fill="url(#paint2_linear_301_362)" fill-opacity="0.16"/>
<rect x="0.718092" y="143.079" width="222.325" height="67.3434" rx="17.989" stroke="url(#paint3_linear_301_362)" stroke-width="0.922512"/>
<g filter="url(#filter4_d_301_362)">
<g clip-path="url(#clip1_301_362)">
<rect x="11.3271" y="152.766" width="47.9706" height="47.9706" rx="14.7602" fill="white" fill-opacity="0.07" shape-rendering="crispEdges"/>
<path d="M23.7784 175.459C23.8125 173.862 23.8407 172.541 24.0267 171.472L26.4782 172.733C26.3684 172.694 26.2841 172.691 26.208 172.733C26.048 172.821 26.0374 173.043 26.0163 173.485C25.9879 174.08 25.9725 174.771 25.9551 175.588C25.9325 176.645 25.9325 177.192 25.9551 178.249C25.9914 179.95 26.0189 181.104 26.1734 181.993C26.3189 182.829 26.5616 183.327 26.9768 183.743C27.3877 184.155 27.8916 184.402 28.7565 184.552C29.6703 184.711 30.8622 184.744 32.6098 184.788C34.7055 184.84 36.2532 184.84 38.349 184.787C40.0965 184.744 41.2885 184.711 42.2023 184.552C43.0671 184.402 43.571 184.155 43.9819 183.743C44.3971 183.327 44.6399 182.829 44.7853 181.993C44.9398 181.104 44.9674 179.949 45.0037 178.249C45.0263 177.192 45.0263 176.645 45.0037 175.588C44.9863 174.771 44.9708 174.08 44.9424 173.484C44.9213 173.042 44.9107 172.821 44.7507 172.733C44.6745 172.691 44.59 172.694 44.4799 172.733L46.932 171.472C47.118 172.541 47.1463 173.862 47.1803 175.459L47.182 175.542C47.2052 176.629 47.2052 177.207 47.182 178.295L47.1803 178.377C47.1463 179.975 47.1181 181.295 46.932 182.365C46.7339 183.505 46.3426 184.459 45.5255 185.279C44.7041 186.102 43.7343 186.494 42.5762 186.696C41.4849 186.886 40.1309 186.92 38.4853 186.961L38.4037 186.963C36.2714 187.016 34.6873 187.016 32.555 186.963L32.4734 186.961C30.8279 186.92 29.4739 186.886 28.3826 186.696C27.2244 186.494 26.2546 186.102 25.4332 185.279C24.6161 184.459 24.2249 183.505 24.0267 182.365C23.8407 181.295 23.8125 179.975 23.7785 178.377L23.7767 178.295C23.7535 177.207 23.7535 176.629 23.7767 175.542L23.7784 175.459Z" fill="#F9A876"/>
<path opacity="0.4" d="M32.5562 166.875C34.6884 166.821 36.2727 166.821 38.4049 166.875L38.4865 166.877C40.132 166.918 41.486 166.952 42.5773 167.142C42.981 167.212 43.3617 167.305 43.7214 167.432C43.8169 167.455 43.9087 167.49 43.9942 167.536C44.5566 167.77 45.0651 168.096 45.5267 168.559C46.3438 169.378 46.7351 170.333 46.9333 171.473L44.481 172.734C44.3599 172.777 44.2077 172.863 44.0014 172.98L39.3833 175.597C37.9665 176.4 36.7681 176.919 35.4803 176.919C34.1925 176.919 32.9942 176.4 31.5773 175.597L26.9597 172.98C26.7531 172.863 26.6007 172.777 26.4794 172.734L24.0278 171.473C24.226 170.333 24.6173 169.378 25.4344 168.559C26.2558 167.735 27.2255 167.343 28.3838 167.142C29.4751 166.952 30.829 166.918 32.4746 166.877L32.5562 166.875Z" fill="#F9A876"/>
<g filter="url(#filter5_f_301_362)">
<circle cx="34.8205" cy="179.027" r="5.99633" fill="#F9A876"/>
</g>
</g>
</g>
<path d="M79.9178 162.322V165.331H83.1982V166.299H79.9178V169.399H83.5857V170.368H78.7425V161.353H83.5857V162.322H79.9178ZM93.8752 163.161C94.4262 163.161 94.917 163.277 95.3475 163.51C95.778 163.734 96.1181 164.074 96.3678 164.53C96.6175 164.986 96.7423 165.542 96.7423 166.196V170.368H95.58V166.364C95.58 165.658 95.4034 165.12 95.0504 164.75C94.706 164.371 94.2368 164.181 93.6427 164.181C93.0314 164.181 92.5449 164.379 92.1833 164.775C91.8216 165.163 91.6408 165.727 91.6408 166.467V170.368H90.4785V166.364C90.4785 165.658 90.302 165.12 89.9489 164.75C89.6045 164.371 89.1353 164.181 88.5412 164.181C87.9299 164.181 87.4434 164.379 87.0818 164.775C86.7202 165.163 86.5393 165.727 86.5393 166.467V170.368H85.3641V163.29H86.5393V164.31C86.7718 163.94 87.0818 163.656 87.4692 163.458C87.8653 163.26 88.3001 163.161 88.7737 163.161C89.3678 163.161 89.893 163.294 90.3493 163.561C90.8056 163.828 91.1457 164.22 91.3696 164.737C91.5676 164.237 91.8948 163.85 92.3512 163.574C92.8075 163.299 93.3155 163.161 93.8752 163.161ZM98.2311 166.803C98.2311 166.08 98.3775 165.447 98.6702 164.905C98.963 164.354 99.3633 163.927 99.8713 163.626C100.388 163.325 100.961 163.174 101.589 163.174C102.209 163.174 102.747 163.307 103.203 163.574C103.66 163.841 104 164.177 104.224 164.582V163.29H105.412V170.368H104.224V169.05C103.991 169.464 103.643 169.808 103.178 170.084C102.721 170.35 102.187 170.484 101.576 170.484C100.948 170.484 100.379 170.329 99.8713 170.019C99.3633 169.709 98.963 169.274 98.6702 168.715C98.3775 168.155 98.2311 167.518 98.2311 166.803ZM104.224 166.816C104.224 166.282 104.116 165.817 103.901 165.421C103.686 165.025 103.393 164.724 103.023 164.517C102.661 164.302 102.261 164.194 101.822 164.194C101.382 164.194 100.982 164.298 100.62 164.504C100.259 164.711 99.9703 165.012 99.7551 165.408C99.5398 165.804 99.4322 166.269 99.4322 166.803C99.4322 167.346 99.5398 167.819 99.7551 168.224C99.9703 168.62 100.259 168.925 100.62 169.141C100.982 169.347 101.382 169.451 101.822 169.451C102.261 169.451 102.661 169.347 103.023 169.141C103.393 168.925 103.686 168.62 103.901 168.224C104.116 167.819 104.224 167.35 104.224 166.816ZM108.005 162.141C107.781 162.141 107.592 162.063 107.437 161.908C107.282 161.753 107.204 161.564 107.204 161.34C107.204 161.116 107.282 160.927 107.437 160.772C107.592 160.617 107.781 160.539 108.005 160.539C108.22 160.539 108.401 160.617 108.547 160.772C108.702 160.927 108.78 161.116 108.78 161.34C108.78 161.564 108.702 161.753 108.547 161.908C108.401 162.063 108.22 162.141 108.005 162.141ZM108.573 163.29V170.368H107.398V163.29H108.573ZM111.752 160.81V170.368H110.576V160.81H111.752ZM116.759 166.803C116.759 166.08 116.905 165.447 117.198 164.905C117.491 164.354 117.891 163.927 118.399 163.626C118.916 163.325 119.488 163.174 120.117 163.174C120.737 163.174 121.275 163.307 121.731 163.574C122.187 163.841 122.528 164.177 122.751 164.582V163.29H123.94V170.368H122.751V169.05C122.519 169.464 122.17 169.808 121.705 170.084C121.249 170.35 120.715 170.484 120.104 170.484C119.475 170.484 118.907 170.329 118.399 170.019C117.891 169.709 117.491 169.274 117.198 168.715C116.905 168.155 116.759 167.518 116.759 166.803ZM122.751 166.816C122.751 166.282 122.644 165.817 122.429 165.421C122.213 165.025 121.921 164.724 121.55 164.517C121.189 164.302 120.788 164.194 120.349 164.194C119.91 164.194 119.51 164.298 119.148 164.504C118.786 164.711 118.498 165.012 118.283 165.408C118.068 165.804 117.96 166.269 117.96 166.803C117.96 167.346 118.068 167.819 118.283 168.224C118.498 168.62 118.786 168.925 119.148 169.141C119.51 169.347 119.91 169.451 120.349 169.451C120.788 169.451 121.189 169.347 121.55 169.141C121.921 168.925 122.213 168.62 122.429 168.224C122.644 167.819 122.751 167.35 122.751 166.816ZM125.487 166.803C125.487 166.08 125.633 165.447 125.926 164.905C126.218 164.354 126.619 163.927 127.127 163.626C127.643 163.325 128.22 163.174 128.857 163.174C129.409 163.174 129.921 163.303 130.394 163.561C130.868 163.811 131.23 164.143 131.479 164.556V160.81H132.667V170.368H131.479V169.037C131.247 169.459 130.902 169.808 130.446 170.084C129.99 170.35 129.456 170.484 128.845 170.484C128.216 170.484 127.643 170.329 127.127 170.019C126.619 169.709 126.218 169.274 125.926 168.715C125.633 168.155 125.487 167.518 125.487 166.803ZM131.479 166.816C131.479 166.282 131.372 165.817 131.156 165.421C130.941 165.025 130.648 164.724 130.278 164.517C129.917 164.302 129.516 164.194 129.077 164.194C128.638 164.194 128.238 164.298 127.876 164.504C127.514 164.711 127.226 165.012 127.011 165.408C126.795 165.804 126.688 166.269 126.688 166.803C126.688 167.346 126.795 167.819 127.011 168.224C127.226 168.62 127.514 168.925 127.876 169.141C128.238 169.347 128.638 169.451 129.077 169.451C129.516 169.451 129.917 169.347 130.278 169.141C130.648 168.925 130.941 168.62 131.156 168.224C131.372 167.819 131.479 167.35 131.479 166.816ZM134.214 166.803C134.214 166.08 134.361 165.447 134.654 164.905C134.946 164.354 135.347 163.927 135.855 163.626C136.371 163.325 136.948 163.174 137.585 163.174C138.136 163.174 138.649 163.303 139.122 163.561C139.596 163.811 139.957 164.143 140.207 164.556V160.81H141.395V170.368H140.207V169.037C139.975 169.459 139.63 169.808 139.174 170.084C138.718 170.35 138.184 170.484 137.572 170.484C136.944 170.484 136.371 170.329 135.855 170.019C135.347 169.709 134.946 169.274 134.654 168.715C134.361 168.155 134.214 167.518 134.214 166.803ZM140.207 166.816C140.207 166.282 140.099 165.817 139.884 165.421C139.669 165.025 139.376 164.724 139.006 164.517C138.644 164.302 138.244 164.194 137.805 164.194C137.366 164.194 136.965 164.298 136.604 164.504C136.242 164.711 135.954 165.012 135.738 165.408C135.523 165.804 135.416 166.269 135.416 166.803C135.416 167.346 135.523 167.819 135.738 168.224C135.954 168.62 136.242 168.925 136.604 169.141C136.965 169.347 137.366 169.451 137.805 169.451C138.244 169.451 138.644 169.347 139.006 169.141C139.376 168.925 139.669 168.62 139.884 168.224C140.099 167.819 140.207 167.35 140.207 166.816ZM144.557 164.44C144.763 164.035 145.056 163.721 145.435 163.497C145.822 163.273 146.292 163.161 146.843 163.161V164.375H146.533C145.215 164.375 144.557 165.09 144.557 166.519V170.368H143.381V163.29H144.557V164.44ZM154.657 166.558C154.657 166.782 154.644 167.018 154.618 167.268H148.961C149.004 167.965 149.241 168.512 149.672 168.908C150.111 169.296 150.64 169.489 151.26 169.489C151.768 169.489 152.19 169.373 152.526 169.141C152.87 168.9 153.111 168.581 153.249 168.185H154.515C154.325 168.865 153.947 169.421 153.378 169.851C152.81 170.273 152.104 170.484 151.26 170.484C150.589 170.484 149.986 170.333 149.452 170.032C148.927 169.731 148.514 169.304 148.212 168.753C147.911 168.194 147.76 167.548 147.76 166.816C147.76 166.084 147.907 165.443 148.199 164.892C148.492 164.341 148.901 163.919 149.426 163.626C149.96 163.325 150.571 163.174 151.26 163.174C151.932 163.174 152.526 163.32 153.043 163.613C153.559 163.906 153.955 164.31 154.231 164.827C154.515 165.335 154.657 165.912 154.657 166.558ZM153.443 166.312C153.443 165.865 153.344 165.481 153.146 165.163C152.948 164.836 152.677 164.59 152.332 164.427C151.996 164.254 151.622 164.168 151.209 164.168C150.615 164.168 150.107 164.358 149.685 164.737C149.271 165.116 149.035 165.641 148.974 166.312H153.443ZM158.714 170.484C158.171 170.484 157.685 170.394 157.254 170.213C156.824 170.023 156.484 169.765 156.234 169.438C155.984 169.102 155.847 168.719 155.821 168.288H157.035C157.069 168.641 157.233 168.93 157.526 169.154C157.827 169.378 158.219 169.489 158.701 169.489C159.149 169.489 159.502 169.39 159.76 169.192C160.018 168.994 160.147 168.745 160.147 168.443C160.147 168.133 160.01 167.905 159.734 167.759C159.459 167.604 159.032 167.453 158.456 167.307C157.93 167.169 157.5 167.031 157.164 166.893C156.837 166.747 156.553 166.536 156.312 166.261C156.079 165.977 155.963 165.606 155.963 165.15C155.963 164.788 156.071 164.457 156.286 164.155C156.501 163.854 156.807 163.617 157.203 163.445C157.599 163.264 158.051 163.174 158.559 163.174C159.342 163.174 159.975 163.372 160.457 163.768C160.94 164.164 161.198 164.707 161.232 165.395H160.057C160.031 165.025 159.88 164.728 159.605 164.504C159.338 164.28 158.976 164.168 158.52 164.168C158.098 164.168 157.762 164.259 157.513 164.44C157.263 164.62 157.138 164.857 157.138 165.15C157.138 165.382 157.211 165.576 157.358 165.731C157.513 165.878 157.702 165.998 157.926 166.093C158.158 166.179 158.477 166.278 158.882 166.39C159.39 166.528 159.803 166.665 160.122 166.803C160.44 166.932 160.711 167.13 160.935 167.397C161.168 167.664 161.288 168.013 161.297 168.443C161.297 168.831 161.189 169.179 160.974 169.489C160.759 169.799 160.453 170.045 160.057 170.226C159.67 170.398 159.222 170.484 158.714 170.484ZM165.461 170.484C164.919 170.484 164.433 170.394 164.002 170.213C163.572 170.023 163.231 169.765 162.982 169.438C162.732 169.102 162.594 168.719 162.568 168.288H163.783C163.817 168.641 163.981 168.93 164.273 169.154C164.575 169.378 164.966 169.489 165.449 169.489C165.896 169.489 166.249 169.39 166.508 169.192C166.766 168.994 166.895 168.745 166.895 168.443C166.895 168.133 166.757 167.905 166.482 167.759C166.206 167.604 165.78 167.453 165.203 167.307C164.678 167.169 164.247 167.031 163.912 166.893C163.584 166.747 163.3 166.536 163.059 166.261C162.827 165.977 162.711 165.606 162.711 165.15C162.711 164.788 162.818 164.457 163.033 164.155C163.249 163.854 163.554 163.617 163.95 163.445C164.346 163.264 164.799 163.174 165.307 163.174C166.09 163.174 166.723 163.372 167.205 163.768C167.687 164.164 167.946 164.707 167.98 165.395H166.805C166.779 165.025 166.628 164.728 166.353 164.504C166.086 164.28 165.724 164.168 165.268 164.168C164.846 164.168 164.51 164.259 164.26 164.44C164.011 164.62 163.886 164.857 163.886 165.15C163.886 165.382 163.959 165.576 164.105 165.731C164.26 165.878 164.45 165.998 164.674 166.093C164.906 166.179 165.225 166.278 165.629 166.39C166.137 166.528 166.551 166.665 166.869 166.803C167.188 166.932 167.459 167.13 167.683 167.397C167.915 167.664 168.036 168.013 168.045 168.443C168.045 168.831 167.937 169.179 167.722 169.489C167.506 169.799 167.201 170.045 166.805 170.226C166.417 170.398 165.969 170.484 165.461 170.484Z" fill="#AFB3CA"/>
<path d="M82.9584 184.792C83.598 184.792 84.1687 184.925 84.6706 185.19C85.1823 185.456 85.5808 185.85 85.8662 186.371C86.1515 186.893 86.2942 187.523 86.2942 188.261V193.058H84.6263V188.511C84.6263 187.783 84.4443 187.227 84.0802 186.844C83.7161 186.45 83.2192 186.253 82.5894 186.253C81.9596 186.253 81.4578 186.45 81.0838 186.844C80.7198 187.227 80.5377 187.783 80.5377 188.511V193.058H78.8551V184.925H80.5377V185.855C80.8132 185.52 81.1626 185.259 81.5857 185.072C82.0187 184.885 82.4762 184.792 82.9584 184.792ZM88.8354 183.847C88.5303 183.847 88.2745 183.744 88.0678 183.537C87.8612 183.331 87.7579 183.075 87.7579 182.77C87.7579 182.465 87.8612 182.209 88.0678 182.002C88.2745 181.796 88.5303 181.692 88.8354 181.692C89.1306 181.692 89.3815 181.796 89.5881 182.002C89.7948 182.209 89.8981 182.465 89.8981 182.77C89.8981 183.075 89.7948 183.331 89.5881 183.537C89.3815 183.744 89.1306 183.847 88.8354 183.847ZM89.6619 184.925V193.058H87.9793V184.925H89.6619ZM92.266 183.847C91.9609 183.847 91.7051 183.744 91.4984 183.537C91.2918 183.331 91.1885 183.075 91.1885 182.77C91.1885 182.465 91.2918 182.209 91.4984 182.002C91.7051 181.796 91.9609 181.692 92.266 181.692C92.5612 181.692 92.8121 181.796 93.0187 182.002C93.2254 182.209 93.3287 182.465 93.3287 182.77C93.3287 183.075 93.2254 183.331 93.0187 183.537C92.8121 183.744 92.5612 183.847 92.266 183.847ZM93.0925 194.652C93.0925 195.449 92.8908 196.024 92.4874 196.379C92.0938 196.743 91.5181 196.925 90.7604 196.925H89.8896V195.508H90.4652C90.8096 195.508 91.0507 195.439 91.1885 195.301C91.3361 195.173 91.4099 194.957 91.4099 194.652V184.925H93.0925V194.652ZM94.2796 188.954C94.2796 188.138 94.4469 187.414 94.7814 186.785C95.1258 186.155 95.5883 185.668 96.1689 185.323C96.7593 184.969 97.4087 184.792 98.1172 184.792C98.7568 184.792 99.3128 184.92 99.7851 185.176C100.267 185.422 100.651 185.732 100.936 186.106V184.925H102.634V193.058H100.936V191.847C100.651 192.231 100.262 192.551 99.7704 192.807C99.2784 193.063 98.7175 193.19 98.0877 193.19C97.3891 193.19 96.7494 193.013 96.1689 192.659C95.5883 192.295 95.1258 191.793 94.7814 191.154C94.4469 190.504 94.2796 189.771 94.2796 188.954ZM100.936 188.984C100.936 188.423 100.818 187.936 100.582 187.523C100.356 187.109 100.056 186.794 99.6818 186.578C99.3079 186.361 98.9044 186.253 98.4715 186.253C98.0385 186.253 97.6351 186.361 97.2611 186.578C96.8872 186.785 96.5822 187.095 96.346 187.508C96.1197 187.911 96.0065 188.393 96.0065 188.954C96.0065 189.515 96.1197 190.007 96.346 190.43C96.5822 190.853 96.8872 191.178 97.2611 191.404C97.6449 191.621 98.0483 191.729 98.4715 191.729C98.9044 191.729 99.3079 191.621 99.6818 191.404C100.056 191.188 100.356 190.873 100.582 190.46C100.818 190.037 100.936 189.545 100.936 188.984ZM111.955 183.523C113.076 183.523 114.046 183.729 114.862 184.142C115.679 184.556 116.299 185.136 116.722 185.884C117.155 186.622 117.372 187.483 117.372 188.467C117.372 189.254 117.234 190.007 116.958 190.726C116.693 191.444 116.304 192.029 115.792 192.482C115.29 192.935 114.695 193.161 114.006 193.161C113.504 193.161 113.111 193.053 112.826 192.836C112.54 192.61 112.363 192.295 112.294 191.892C111.989 192.285 111.605 192.595 111.143 192.821C110.68 193.048 110.198 193.161 109.696 193.161C108.939 193.161 108.343 192.935 107.91 192.482C107.487 192.019 107.276 191.395 107.276 190.607C107.276 189.86 107.428 189.161 107.733 188.511C108.048 187.862 108.486 187.345 109.047 186.962C109.608 186.568 110.238 186.371 110.936 186.371C111.792 186.371 112.393 186.662 112.737 187.242L112.87 186.504H114.331L113.593 190.726C113.564 190.932 113.549 191.114 113.549 191.272C113.549 191.527 113.598 191.719 113.696 191.847C113.805 191.975 113.992 192.039 114.257 192.039C114.631 192.039 114.951 191.857 115.217 191.493C115.482 191.119 115.679 190.662 115.807 190.12C115.945 189.579 116.014 189.053 116.014 188.541C116.014 187.291 115.65 186.337 114.921 185.678C114.193 185.018 113.135 184.689 111.748 184.689C110.587 184.689 109.544 184.964 108.619 185.515C107.704 186.066 106.985 186.824 106.464 187.788C105.942 188.753 105.682 189.825 105.682 191.006C105.682 192.265 106.056 193.225 106.803 193.884C107.551 194.543 108.619 194.873 110.006 194.873C110.941 194.873 111.758 194.701 112.457 194.357L112.678 195.478C111.782 195.862 110.779 196.054 109.667 196.054C108.594 196.054 107.655 195.852 106.848 195.449C106.041 195.045 105.416 194.47 104.973 193.722C104.53 192.984 104.309 192.123 104.309 191.139C104.309 189.732 104.634 188.448 105.283 187.286C105.942 186.125 106.853 185.21 108.014 184.541C109.175 183.862 110.488 183.523 111.955 183.523ZM110.213 191.862C110.626 191.862 111 191.744 111.335 191.508C111.679 191.262 111.95 190.942 112.147 190.548C112.343 190.145 112.442 189.717 112.442 189.264C112.442 188.792 112.309 188.408 112.043 188.113C111.787 187.808 111.423 187.655 110.951 187.655C110.528 187.655 110.154 187.788 109.829 188.054C109.514 188.31 109.268 188.644 109.091 189.058C108.924 189.471 108.84 189.904 108.84 190.357C108.84 190.819 108.953 191.188 109.18 191.464C109.406 191.729 109.75 191.862 110.213 191.862ZM122.333 184.792C122.963 184.792 123.519 184.92 124.001 185.176C124.493 185.422 124.877 185.732 125.152 186.106V184.925H126.85V193.19C126.85 193.938 126.692 194.603 126.377 195.183C126.063 195.773 125.605 196.236 125.005 196.571C124.414 196.905 123.706 197.072 122.879 197.072C121.777 197.072 120.862 196.812 120.134 196.29C119.406 195.778 118.992 195.08 118.894 194.194H120.562C120.69 194.617 120.96 194.957 121.374 195.213C121.797 195.478 122.299 195.611 122.879 195.611C123.558 195.611 124.104 195.404 124.518 194.991C124.941 194.578 125.152 193.978 125.152 193.19V191.833C124.867 192.216 124.478 192.541 123.986 192.807C123.504 193.063 122.953 193.19 122.333 193.19C121.625 193.19 120.975 193.013 120.385 192.659C119.804 192.295 119.342 191.793 118.997 191.154C118.663 190.504 118.496 189.771 118.496 188.954C118.496 188.138 118.663 187.414 118.997 186.785C119.342 186.155 119.804 185.668 120.385 185.323C120.975 184.969 121.625 184.792 122.333 184.792ZM125.152 188.984C125.152 188.423 125.034 187.936 124.798 187.523C124.572 187.109 124.272 186.794 123.898 186.578C123.524 186.361 123.12 186.253 122.687 186.253C122.254 186.253 121.851 186.361 121.477 186.578C121.103 186.785 120.798 187.095 120.562 187.508C120.336 187.911 120.222 188.393 120.222 188.954C120.222 189.515 120.336 190.007 120.562 190.43C120.798 190.853 121.103 191.178 121.477 191.404C121.861 191.621 122.264 191.729 122.687 191.729C123.12 191.729 123.524 191.621 123.898 191.404C124.272 191.188 124.572 190.873 124.798 190.46C125.034 190.037 125.152 189.545 125.152 188.984ZM138.444 184.792C139.083 184.792 139.654 184.925 140.156 185.19C140.668 185.456 141.066 185.85 141.351 186.371C141.647 186.893 141.794 187.523 141.794 188.261V193.058H140.126V188.511C140.126 187.783 139.944 187.227 139.58 186.844C139.216 186.45 138.719 186.253 138.089 186.253C137.46 186.253 136.958 186.45 136.584 186.844C136.22 187.227 136.038 187.783 136.038 188.511V193.058H134.37V188.511C134.37 187.783 134.188 187.227 133.824 186.844C133.46 186.45 132.963 186.253 132.333 186.253C131.703 186.253 131.201 186.45 130.827 186.844C130.463 187.227 130.281 187.783 130.281 188.511V193.058H128.599V184.925H130.281V185.855C130.557 185.52 130.906 185.259 131.329 185.072C131.752 184.885 132.205 184.792 132.687 184.792C133.337 184.792 133.917 184.93 134.429 185.205C134.941 185.481 135.334 185.879 135.61 186.401C135.856 185.909 136.239 185.52 136.761 185.235C137.283 184.94 137.843 184.792 138.444 184.792ZM142.913 188.954C142.913 188.138 143.081 187.414 143.415 186.785C143.759 186.155 144.222 185.668 144.803 185.323C145.393 184.969 146.042 184.792 146.751 184.792C147.391 184.792 147.946 184.92 148.419 185.176C148.901 185.422 149.285 185.732 149.57 186.106V184.925H151.268V193.058H149.57V191.847C149.285 192.231 148.896 192.551 148.404 192.807C147.912 193.063 147.351 193.19 146.721 193.19C146.023 193.19 145.383 193.013 144.803 192.659C144.222 192.295 143.759 191.793 143.415 191.154C143.081 190.504 142.913 189.771 142.913 188.954ZM149.57 188.984C149.57 188.423 149.452 187.936 149.216 187.523C148.99 187.109 148.689 186.794 148.315 186.578C147.942 186.361 147.538 186.253 147.105 186.253C146.672 186.253 146.269 186.361 145.895 186.578C145.521 186.785 145.216 187.095 144.98 187.508C144.753 187.911 144.64 188.393 144.64 188.954C144.64 189.515 144.753 190.007 144.98 190.43C145.216 190.853 145.521 191.178 145.895 191.404C146.279 191.621 146.682 191.729 147.105 191.729C147.538 191.729 147.942 191.621 148.315 191.404C148.689 191.188 148.99 190.873 149.216 190.46C149.452 190.037 149.57 189.545 149.57 188.984ZM153.872 183.847C153.567 183.847 153.312 183.744 153.105 183.537C152.898 183.331 152.795 183.075 152.795 182.77C152.795 182.465 152.898 182.209 153.105 182.002C153.312 181.796 153.567 181.692 153.872 181.692C154.168 181.692 154.419 181.796 154.625 182.002C154.832 182.209 154.935 182.465 154.935 182.77C154.935 183.075 154.832 183.331 154.625 183.537C154.419 183.744 154.168 183.847 153.872 183.847ZM154.699 184.925V193.058H153.016V184.925H154.699ZM158.13 182.135V193.058H156.447V182.135H158.13ZM160.557 193.161C160.251 193.161 159.996 193.058 159.789 192.851C159.582 192.644 159.479 192.388 159.479 192.083C159.479 191.778 159.582 191.523 159.789 191.316C159.996 191.109 160.251 191.006 160.557 191.006C160.852 191.006 161.103 191.109 161.309 191.316C161.516 191.523 161.619 191.778 161.619 192.083C161.619 192.388 161.516 192.644 161.309 192.851C161.103 193.058 160.852 193.161 160.557 193.161ZM162.416 188.984C162.416 188.147 162.583 187.414 162.918 186.785C163.262 186.145 163.734 185.653 164.335 185.309C164.935 184.964 165.624 184.792 166.401 184.792C167.385 184.792 168.197 185.028 168.836 185.5C169.486 185.963 169.924 186.627 170.15 187.493H168.335C168.187 187.09 167.951 186.775 167.626 186.548C167.301 186.322 166.893 186.209 166.401 186.209C165.712 186.209 165.161 186.455 164.748 186.947C164.344 187.429 164.143 188.108 164.143 188.984C164.143 189.86 164.344 190.543 164.748 191.035C165.161 191.527 165.712 191.773 166.401 191.773C167.375 191.773 168.02 191.345 168.335 190.489H170.15C169.914 191.316 169.471 191.975 168.822 192.467C168.172 192.949 167.365 193.19 166.401 193.19C165.624 193.19 164.935 193.018 164.335 192.674C163.734 192.32 163.262 191.828 162.918 191.198C162.583 190.558 162.416 189.82 162.416 188.984ZM174.893 193.19C174.126 193.19 173.432 193.018 172.812 192.674C172.192 192.32 171.705 191.828 171.351 191.198C170.997 190.558 170.82 189.82 170.82 188.984C170.82 188.157 171.002 187.424 171.366 186.785C171.73 186.145 172.227 185.653 172.856 185.309C173.486 184.964 174.19 184.792 174.967 184.792C175.745 184.792 176.448 184.964 177.078 185.309C177.708 185.653 178.205 186.145 178.569 186.785C178.933 187.424 179.115 188.157 179.115 188.984C179.115 189.81 178.928 190.543 178.554 191.183C178.18 191.823 177.668 192.32 177.019 192.674C176.379 193.018 175.671 193.19 174.893 193.19ZM174.893 191.729C175.326 191.729 175.73 191.626 176.104 191.419C176.487 191.213 176.797 190.903 177.034 190.489C177.27 190.076 177.388 189.574 177.388 188.984C177.388 188.393 177.275 187.896 177.048 187.493C176.822 187.08 176.522 186.77 176.148 186.563C175.774 186.356 175.371 186.253 174.938 186.253C174.505 186.253 174.101 186.356 173.727 186.563C173.363 186.77 173.073 187.08 172.856 187.493C172.64 187.896 172.532 188.393 172.532 188.984C172.532 189.86 172.753 190.539 173.196 191.021C173.649 191.493 174.214 191.729 174.893 191.729ZM190.162 184.792C190.802 184.792 191.372 184.925 191.874 185.19C192.386 185.456 192.784 185.85 193.07 186.371C193.365 186.893 193.513 187.523 193.513 188.261V193.058H191.845V188.511C191.845 187.783 191.663 187.227 191.299 186.844C190.934 186.45 190.438 186.253 189.808 186.253C189.178 186.253 188.676 186.45 188.302 186.844C187.938 187.227 187.756 187.783 187.756 188.511V193.058H186.088V188.511C186.088 187.783 185.906 187.227 185.542 186.844C185.178 186.45 184.681 186.253 184.051 186.253C183.422 186.253 182.92 186.45 182.546 186.844C182.182 187.227 182 187.783 182 188.511V193.058H180.317V184.925H182V185.855C182.275 185.52 182.624 185.259 183.048 185.072C183.471 184.885 183.923 184.792 184.406 184.792C185.055 184.792 185.636 184.93 186.147 185.205C186.659 185.481 187.053 185.879 187.328 186.401C187.574 185.909 187.958 185.52 188.479 185.235C189.001 184.94 189.562 184.792 190.162 184.792Z" fill="#AFB3CA"/>
</g>
<defs>
<filter id="filter0_b_301_362" x="37.4336" y="196.4" width="337.086" height="182.104" filterUnits="userSpaceOnUse" color-interpolation-filters="sRGB">
<feFlood flood-opacity="0" result="BackgroundImageFix"/>
<feGaussianBlur in="BackgroundImageFix" stdDeviation="28.4595"/>
<feComposite in2="SourceAlpha" operator="in" result="effect1_backgroundBlur_301_362"/>
<feBlend mode="normal" in="SourceGraphic" in2="effect1_backgroundBlur_301_362" result="shape"/>
</filter>
<filter id="filter1_d_301_362" x="104.501" y="262.544" width="49.8157" height="49.8157" filterUnits="userSpaceOnUse" color-interpolation-filters="sRGB">
<feFlood flood-opacity="0" result="BackgroundImageFix"/>
<feColorMatrix in="SourceAlpha" type="matrix" values="0 0 0 0 0 0 0 0 0 0 0 0 0 0 0 0 0 0 127 0" result="hardAlpha"/>
<feMorphology radius="0.922512" operator="dilate" in="SourceAlpha" result="effect1_dropShadow_301_362"/>
<feOffset/>
<feComposite in2="hardAlpha" operator="out"/>
<feColorMatrix type="matrix" values="0 0 0 0 0.176471 0 0 0 0 0.180392 0 0 0 0 0.282353 0 0 0 1 0"/>
<feBlend mode="normal" in2="BackgroundImageFix" result="effect1_dropShadow_301_362"/>
<feBlend mode="normal" in="SourceGraphic" in2="effect1_dropShadow_301_362" result="shape"/>
</filter>
<filter id="filter2_f_301_362" x="107.607" y="268.418" width="44.4651" height="44.4651" filterUnits="userSpaceOnUse" color-interpolation-filters="sRGB">
<feFlood flood-opacity="0" result="BackgroundImageFix"/>
<feBlend mode="normal" in="SourceGraphic" in2="BackgroundImageFix" result="shape"/>
<feGaussianBlur stdDeviation="8.1181" result="effect1_foregroundBlur_301_362"/>
</filter>
<filter id="filter3_b_301_362" x="-56.6621" y="85.6992" width="337.086" height="182.104" filterUnits="userSpaceOnUse" color-interpolation-filters="sRGB">
<feFlood flood-opacity="0" result="BackgroundImageFix"/>
<feGaussianBlur in="BackgroundImageFix" stdDeviation="28.4595"/>
<feComposite in2="SourceAlpha" operator="in" result="effect1_backgroundBlur_301_362"/>
<feBlend mode="normal" in="SourceGraphic" in2="effect1_backgroundBlur_301_362" result="shape"/>
</filter>
<filter id="filter4_d_301_362" x="10.4046" y="151.844" width="49.8157" height="49.8157" filterUnits="userSpaceOnUse" color-interpolation-filters="sRGB">
<feFlood flood-opacity="0" result="BackgroundImageFix"/>
<feColorMatrix in="SourceAlpha" type="matrix" values="0 0 0 0 0 0 0 0 0 0 0 0 0 0 0 0 0 0 127 0" result="hardAlpha"/>
<feMorphology radius="0.922512" operator="dilate" in="SourceAlpha" result="effect1_dropShadow_301_362"/>
<feOffset/>
<feComposite in2="hardAlpha" operator="out"/>
<feColorMatrix type="matrix" values="0 0 0 0 0.176471 0 0 0 0 0.180392 0 0 0 0 0.282353 0 0 0 1 0"/>
<feBlend mode="normal" in2="BackgroundImageFix" result="effect1_dropShadow_301_362"/>
<feBlend mode="normal" in="SourceGraphic" in2="effect1_dropShadow_301_362" result="shape"/>
</filter>
<filter id="filter5_f_301_362" x="12.588" y="156.795" width="44.4651" height="44.4651" filterUnits="userSpaceOnUse" color-interpolation-filters="sRGB">
<feFlood flood-opacity="0" result="BackgroundImageFix"/>
<feBlend mode="normal" in="SourceGraphic" in2="BackgroundImageFix" result="shape"/>
<feGaussianBlur stdDeviation="8.1181" result="effect1_foregroundBlur_301_362"/>
</filter>
<linearGradient id="paint0_linear_301_362" x1="205.976" y1="253.319" x2="220.275" y2="304.057" gradientUnits="userSpaceOnUse">
<stop stop-color="#1B1C36"/>
<stop offset="1" stop-color="#70717A"/>
</linearGradient>
<linearGradient id="paint1_linear_301_362" x1="220.737" y1="299.445" x2="303.301" y2="257.009" gradientUnits="userSpaceOnUse">
<stop stop-color="#2C2D47"/>
<stop offset="1" stop-color="#444AE2" stop-opacity="0.05"/>
</linearGradient>
<linearGradient id="paint2_linear_301_362" x1="111.881" y1="142.618" x2="126.18" y2="193.356" gradientUnits="userSpaceOnUse">
<stop stop-color="#1B1C36"/>
<stop offset="1" stop-color="#70717A"/>
</linearGradient>
<linearGradient id="paint3_linear_301_362" x1="126.641" y1="188.744" x2="209.206" y2="146.308" gradientUnits="userSpaceOnUse">
<stop stop-color="#2C2D47"/>
<stop offset="1" stop-color="#444AE2" stop-opacity="0.05"/>
</linearGradient>
<clipPath id="clip0_301_362">
<rect x="105.423" y="263.467" width="47.9706" height="47.9706" rx="14.7602" fill="white"/>
</clipPath>
<clipPath id="clip1_301_362">
<rect x="11.3271" y="152.766" width="47.9706" height="47.9706" rx="14.7602" fill="white"/>
</clipPath>
</defs>
</svg>
