<svg width="116" height="116" viewBox="0 0 116 116" fill="none" xmlns="http://www.w3.org/2000/svg">
<g opacity="0.3">
<path d="M88.8911 16.5099L88.4711 16.1529L88.0439 15.8032L87.6093 15.4606L87.168 15.1257L86.7199 14.7981L86.2655 14.4784L85.8047 14.1668L85.3384 13.8632L84.8663 13.5678L84.3885 13.2811L83.906 13.0031L83.4186 12.7337L82.9265 12.4734L82.4304 12.2221L81.9301 11.9803L81.4262 11.7476L80.9188 11.5245L80.4083 11.3112L79.8947 11.1074L79.3789 10.9138L78.8607 10.7301L78.3405 10.5564L77.8184 10.3928L77.2951 10.2397L76.7708 10.0969L76.2455 9.96485L75.7197 9.8432L75.1937 9.73222L74.668 9.6319L74.1424 9.54247L73.6177 9.46372L73.0938 9.39587L72.5712 9.33892L72.0501 9.29312L71.5311 9.25822L71.0141 9.23448L70.4997 9.22188L69.9881 9.22018L69.4793 9.22963L68.9741 9.25023L68.4724 9.28198L67.9748 9.32462L67.4813 9.37866L66.9924 9.44361L66.5084 9.5197L66.0292 9.60669L65.5556 9.70459L65.0876 9.8134L64.6254 9.93335L64.1698 10.064L63.7204 10.2055L63.2777 10.3577L62.8422 10.5205L62.4139 10.6938L61.993 10.8775L61.58 11.0716L61.1751 11.2761L60.7787 11.4905L60.3905 11.7154L60.0113 11.95L59.641 12.1943L59.2802 12.4485L58.9287 12.7121L58.5868 12.9852L58.2549 13.2675L57.9332 13.559L57.6219 13.8593L57.3211 14.1685L57.0311 14.4864L56.7521 14.8126L56.484 15.147L56.2274 15.4897L55.9821 15.8401L55.7484 16.1982L55.5267 16.5639L55.317 16.9368L55.1193 17.3168L54.9337 17.7036L54.7607 18.0971L54.6001 18.4967L54.4521 18.9026L54.3167 19.3146L54.1942 19.7321L54.0848 20.1552L53.9882 20.5831L53.905 21.0164L53.8346 21.454L53.7776 21.8961L53.7337 22.3424L53.7034 22.7927L53.6864 23.2463L53.6828 23.7033L53.6925 24.1635L53.7157 24.6264L53.7524 25.0916L53.8024 25.5593L53.8659 26.0287L53.9428 26.4998L54.0331 26.9721L54.1369 27.4456L54.2539 27.9196L54.3839 28.394L54.5273 28.8688L54.6836 29.3435L54.8529 29.8175L55.0354 30.2907L55.2307 30.763L55.4383 31.2339L55.6589 31.7033L55.8918 32.1705L56.1371 32.6355L56.3945 33.0981L56.6641 33.5576L56.9455 34.0141L57.2386 34.4672L57.5433 34.9165L57.8592 35.3617L58.1865 35.8027L58.5245 36.2391L58.8734 36.6707L59.2329 37.097L59.6024 37.5179L59.9824 37.9332L60.372 38.3425L60.7714 38.7455L61.18 39.142L61.5975 39.5319L62.024 39.9145L62.4593 40.2901L62.9026 40.658L63.3541 41.0183L63.8131 41.3706L64.2797 41.7145L64.7533 42.0501L65.2337 42.3773L65.7206 42.6954L66.2139 43.0044L66.7129 43.3044L67.2176 43.5947L67.7273 43.8753L68.2422 44.1463L68.7616 44.4072L69.2852 44.6581L69.8126 44.8984L70.3435 45.1284L70.878 45.3477L71.4149 45.5564L71.9547 45.7541L72.4965 45.9407L73.0402 46.1164L73.5854 46.2807L74.1318 46.4338L74.6789 46.5756L75.2265 46.7055L75.7741 46.824L76.3214 46.9308L76.868 47.0261L77.4139 47.1094L77.9584 47.1812L78.5011 47.241L79.0419 47.2888L79.5805 47.3249L80.1162 47.3489L80.649 47.3612L81.1784 47.3615L81.7042 47.3498L82.2258 47.3263L82.7431 47.2912L83.2558 47.2442L83.7636 47.1853L84.2658 47.1145L84.7624 47.0324L85.2535 46.9386L85.738 46.8332L86.2162 46.7164L86.6874 46.5884L87.1518 46.4491L87.6086 46.2986L88.0577 46.137L88.499 45.9644L88.9321 45.7812L89.3567 45.5871L89.7725 45.3829L90.1797 45.1679L90.5776 44.9428L90.966 44.7077L91.3447 44.4625L91.7137 44.2076L92.0726 43.943L92.4212 43.6691L92.7592 43.3861L93.0867 43.0938L93.4034 42.7929L93.7091 42.4832L94.0034 42.165L94.2865 41.8388L94.5582 41.5044L94.8181 41.162L95.0663 40.8123L95.3026 40.4551L95.5268 40.0909L95.7388 39.7197L95.9385 39.3416L96.1258 38.9573L96.3007 38.5669L96.4633 38.1705L96.613 37.7682L96.7503 37.3606L96.8745 36.9477L96.9861 36.5299L97.0846 36.1076L97.1705 35.6806L97.2433 35.2495L97.3035 34.8145L97.3505 34.3756L97.3845 33.9336L97.4056 33.4885L97.4136 33.0404L97.4088 32.5899L97.3911 32.137L97.3605 31.6819L97.3168 31.2252L97.2608 30.7669L97.1916 30.3075L97.1099 29.8468L97.0155 29.3857L96.9085 28.924L96.7889 28.4621L96.6571 28.0005L96.513 27.5391L96.3565 27.0782L96.1882 26.6185L96.0076 26.1598L95.8152 25.7025L95.6112 25.247L95.3955 24.7933L95.1682 24.3419L94.9297 23.8931L94.68 23.4467L94.4192 23.0035L94.1475 22.5632L93.8651 22.1267L93.5722 21.6937L93.2689 21.2648L92.9552 20.84L92.6318 20.4196L92.2985 20.004L91.9556 19.593L91.6034 19.1873L91.2416 18.787L90.8711 18.3923L90.4917 18.0033L90.1037 17.6204L89.7075 17.2436L89.3033 16.8733L88.8911 16.5099Z" fill="#0E0C15"/>
<path d="M83.716 19.6868L83.9535 19.8739L84.1971 20.0547L84.4349 20.2376L84.6552 20.4313L84.8507 20.6418L85.03 20.8645L85.2059 21.0916L85.3913 21.3158L85.5939 21.5314L85.8042 21.7427L86.0083 21.955L86.1914 22.1741L86.3448 22.4043L86.4782 22.6425L86.607 22.8846L86.7465 23.1255L86.9064 23.3624L87.0758 23.5963L87.2381 23.8301L87.3774 24.0667L87.4824 24.3078L87.5649 24.553L87.6421 24.8007L87.7304 25.0495L87.8415 25.2986L87.9631 25.5468L88.0776 25.7937L88.1671 26.0387L88.22 26.2818L88.2484 26.5246L88.2702 26.7686L88.3039 27.0163L88.3617 27.268L88.4308 27.5213L88.4927 27.7721L88.5291 28.0166L88.5274 28.2524L88.5002 28.4833L88.466 28.7147L88.4437 28.9512L88.4454 29.1965L88.459 29.4453L88.4658 29.6906L88.4473 29.9254L88.3908 30.1449L88.3088 30.3553L88.2195 30.5646L88.1414 30.7813L88.0868 31.0105L88.0438 31.2456L87.9948 31.476L87.9218 31.6919L87.8124 31.8868L87.6782 32.0683L87.537 32.2474L87.4057 32.4357L87.2966 32.6402L87.1986 32.8522L87.095 33.0592L86.9698 33.2479L86.8113 33.4103L86.6301 33.5554L86.4418 33.6972L86.2623 33.8496L86.1021 34.0214L85.9522 34.2022L85.7979 34.3774L85.6249 34.5315L85.4231 34.6549L85.2016 34.7579L84.9735 34.8565L84.7524 34.9665L84.5474 35.0988L84.3509 35.2416L84.1515 35.378L83.937 35.4911L83.6995 35.5704L83.4462 35.6269L83.1868 35.678L82.9326 35.7415L82.6902 35.8285L82.4546 35.9271L82.2173 36.0194L81.9696 36.0873L81.7059 36.1188L81.4302 36.126L81.1498 36.1275L80.872 36.1413L80.6017 36.1798L80.336 36.2305L80.0701 36.2748L79.7989 36.2945L79.5187 36.2768L79.2316 36.2344L78.9415 36.1854L78.651 36.1491L78.3633 36.137L78.078 36.1374L77.7934 36.1321L77.509 36.1023L77.2237 36.0361L76.9369 35.9453L76.648 35.8479L76.3566 35.7621L76.0628 35.7L75.7687 35.6504L75.4771 35.5954L75.191 35.5173L74.9118 35.4049L74.6364 35.2689L74.3605 35.1264L74.0796 34.9949L73.7913 34.8853L73.5002 34.7872L73.2129 34.6847L72.9363 34.5616L72.6743 34.4072L72.4215 34.2313L72.1697 34.0496L71.9108 33.877L71.6393 33.7241L71.3627 33.5819L71.0912 33.436L70.835 33.2726L70.6009 33.0824L70.3808 32.8738L70.163 32.6596L69.9361 32.4531L69.6923 32.2631L69.4412 32.0821L69.1961 31.8987L68.9707 31.7016L68.7737 31.4833L68.5949 31.2499L68.42 31.012L68.2341 30.7796L68.0277 30.56L67.812 30.348L67.6028 30.1348L67.417 29.9118L67.2646 29.6739L67.1346 29.425L67.0094 29.1727L66.8718 28.9239L66.7107 28.6835L66.5387 28.4486L66.3737 28.2141L66.2347 27.9744L66.133 27.7263L66.0564 27.4718L65.9855 27.215L65.9018 26.9593L65.7922 26.708L65.6704 26.4599L65.5561 26.2134L65.4687 25.9667L65.4217 25.7181L65.4013 25.468L65.3877 25.2165L65.3605 24.9642L65.3067 24.7117L65.2395 24.4604L65.1795 24.2118L65.1475 23.9675L65.1565 23.7284L65.1931 23.4921L65.2368 23.2558L65.2669 23.0166L65.2703 22.7729L65.2601 22.5284L65.2567 22.2875L65.2805 22.0551L65.345 21.8346L65.4367 21.6211L65.5357 21.409L65.6221 21.1922L65.682 20.9668L65.7288 20.7383L65.7817 20.5144L65.8601 20.3033L65.977 20.1095L66.1202 19.927L66.2704 19.7469L66.4089 19.5606L66.5229 19.3619L66.6243 19.1583L66.7311 18.9603L66.8607 18.7781L67.0254 18.6184L67.2142 18.4735L67.4095 18.3322L67.5946 18.183L67.7579 18.0187L67.9098 17.8478L68.0658 17.6828L68.2412 17.5364L68.4472 17.4167L68.6738 17.3147L68.9067 17.217L69.1311 17.1107L69.3373 16.9866L69.5331 16.8548L69.7321 16.729L69.9465 16.6238L70.1855 16.5482L70.4415 16.4925L70.7028 16.4418L70.958 16.3817L71.1987 16.3027L71.4311 16.2145L71.6653 16.1329L71.9103 16.0725L72.1733 16.0437L72.4489 16.0359L72.7287 16.034L73.0045 16.0221L73.2707 15.9906L73.5308 15.9497L73.7909 15.9145L74.0573 15.9012L74.3343 15.9199L74.6189 15.9601L74.9069 16.0064L75.1932 16.0432L75.4746 16.0602L75.7524 16.0677L76.0288 16.0805L76.3063 16.1147L76.5868 16.1799L76.8702 16.2661L77.1555 16.3587L77.4416 16.4426L77.7279 16.5075L78.0127 16.5628L78.2949 16.6233L78.5731 16.7033L78.8471 16.8124L79.1186 16.9415L79.3905 17.0767L79.6659 17.2042L79.9462 17.3145L80.2276 17.4158L80.5049 17.5214L80.7737 17.6443L81.0307 17.7933L81.2803 17.9603L81.529 18.133L81.7835 18.2993L82.0472 18.4507L82.3148 18.5944L82.5774 18.7413L82.8265 18.9027L83.057 19.0859L83.2756 19.2843L83.4921 19.4879L83.716 19.6868Z" fill="#0E0C15"/>
<path d="M92.6966 14.7005L92.0961 14.1911L91.4852 13.6916L90.8641 13.2029L90.233 12.7245L89.593 12.2568L88.9435 11.8005L88.2855 11.3554L87.6193 10.9221L86.9448 10.5004L86.2628 10.0909L85.5735 9.69373L84.8774 9.30892L84.1748 8.93695L83.4661 8.57782L82.7516 8.23202L82.032 7.8993L81.3073 7.58016L80.5779 7.27483L79.8445 6.98307L79.1074 6.7056L78.367 6.44219L77.6236 6.19333L76.8775 5.95875L76.1295 5.73872L75.3798 5.53347L74.6287 5.34325L73.8768 5.16804L73.1242 5.00787L72.3716 4.86271L71.6194 4.73307L70.868 4.61868L70.1179 4.51982L69.3691 4.4367L68.6226 4.36909L67.8785 4.31699L67.137 4.28088L66.399 4.26028L65.6646 4.25544L64.9343 4.26658L64.2086 4.29349L63.4878 4.33637L62.7723 4.39502L62.0626 4.46941L61.359 4.5598L60.6622 4.66594L59.9722 4.78758L59.2895 4.92523L58.6147 5.07838L57.948 5.24728L57.29 5.43169L56.641 5.63161L56.0012 5.84704L55.3712 6.0775L54.7515 6.32321L54.142 6.5842L53.5435 6.85996L52.9564 7.15051L52.3806 7.45585L51.817 7.77596L51.2658 8.11013L50.7271 8.45884L50.2014 8.82136L49.689 9.19794L49.1904 9.58809L48.7059 9.9918L48.2354 10.4086L47.78 10.8387L47.3392 11.2817L46.9139 11.737L46.5039 12.205L46.1096 12.685L45.7316 13.1767L45.3698 13.6803L45.0248 14.195L44.6966 14.7208L44.3853 15.2573L44.0915 15.8042L43.8151 16.3614L43.5565 16.9282L43.3158 17.5047L43.0933 18.0901L42.8891 18.6846L42.7035 19.2875L42.5363 19.8986L42.388 20.5173L42.2585 21.1434L42.1481 21.7769L42.0569 22.4166L41.9848 23.0629L41.9322 23.715L41.8989 24.3724L41.8853 25.0352L41.8909 25.7026L41.9164 26.3743L41.9613 27.0497L42.0256 27.7287L42.1098 28.4106L42.2136 29.0952L42.3369 29.7819L42.4795 30.4704L42.6418 31.1603L42.8235 31.8509L43.0244 32.542L43.2445 33.2329L43.484 33.9235L43.7421 34.6132L44.0194 35.3014L44.3154 35.9879L44.6299 36.6722L44.9627 37.3539L45.3136 38.0322L45.6826 38.7071L46.0696 39.378L46.4738 40.0442L46.8955 40.7058L47.3344 41.3617L47.79 42.0119L48.2619 42.656L48.7503 43.2936L49.2545 43.9239L49.7741 44.5466L50.3094 45.1617L50.8594 45.7682L51.424 46.366L52.0031 46.9549L52.5958 47.534L53.2019 48.1035L53.8213 48.6626L54.4533 49.2109L55.0977 49.7482L55.754 50.274L56.4215 50.7882L57.1003 51.2904L57.7894 51.7799L58.4888 52.2568L59.1978 52.7208L59.9157 53.1711L60.6426 53.6077L61.3777 54.0306L62.1204 54.4392L62.8703 54.8329L63.627 55.2122L64.3901 55.5764L65.1587 55.9253L65.9327 56.2588L66.7115 56.5765L67.4942 56.8782L68.2807 57.1639L69.0705 57.4333L69.8626 57.6863L70.6572 57.9228L71.453 58.1424L72.25 58.3452L73.0478 58.5308L73.8452 58.6995L74.6423 58.851L75.4383 58.9852L76.2326 59.102L77.025 59.2016L77.815 59.2835L78.6016 59.3482L79.3845 59.395L80.1636 59.4245L80.9378 59.4367L81.7069 59.4311L82.4706 59.4081L83.2281 59.3678L83.979 59.3102L84.7229 59.2353L85.4592 59.143L86.1874 59.0337L86.9074 58.9072L87.6183 58.764L88.3202 58.6038L89.0122 58.4271L89.6939 58.2337L90.365 58.0241L91.0252 57.7983L91.674 57.5564L92.3111 57.2986L92.9358 57.0253L93.5482 56.7364L94.1477 56.4325L94.7339 56.1136L95.3065 55.7797L95.8652 55.4315L96.4097 55.0687L96.9395 54.6921L97.4546 54.3017L97.9547 53.898L98.4394 53.481L98.9084 53.0509L99.3614 52.6084L99.7984 52.1535L100.219 51.6866L100.623 51.208L101.01 50.7177L101.38 50.2168L101.733 49.7051L102.068 49.1828L102.386 48.6507L102.687 48.1088L102.969 47.5575L103.234 46.9971L103.48 46.4283L103.709 45.8511L103.919 45.2659L104.111 44.6734L104.284 44.0734L104.439 43.4668L104.575 42.8535L104.693 42.2344L104.792 41.6094L104.873 40.9793L104.935 40.3442L104.978 39.7047L105.003 39.0608L105.009 38.4133L104.997 37.7622L104.966 37.1082L104.917 36.4517L104.849 35.7928L104.763 35.1322L104.659 34.47L104.537 33.8067L104.397 33.1427L104.239 32.4785L104.063 31.8141L103.87 31.1503L103.659 30.4873L103.431 29.8255L103.185 29.1652L102.923 28.5068L102.644 27.8506L102.348 27.1972L102.035 26.5468L101.707 25.8996L101.362 25.2565L101.002 24.6172L100.626 23.9823L100.234 23.3522L99.8277 22.7273L99.4063 22.1079L98.9703 21.4943L98.5197 20.8868L98.0551 20.2858L97.5769 19.6914L97.0849 19.1043L96.5798 18.5246L96.0615 17.9527L95.5304 17.3888L94.9872 16.8332L94.4318 16.2865L93.8646 15.7485L93.2862 15.2198L92.6966 14.7005Z" fill="#0E0C15"/>
<path d="M95.0283 14.6362L94.2764 13.9987L93.5114 13.374L92.7341 12.7623L91.9443 12.1638L91.1432 11.579L90.3307 11.0079L89.5072 10.4512L88.6736 9.90892L87.8298 9.38162L86.9765 8.8691L86.1142 8.37233L85.2434 7.89083L84.3644 7.42531L83.4776 6.97604L82.5838 6.543L81.6832 6.12644L80.7763 5.72684L79.8638 5.34445L78.946 4.97927L78.0233 4.63153L77.0962 4.30124L76.1655 3.98912L75.2314 3.69469L74.2947 3.41868L73.3555 3.16109L72.4144 2.92215L71.472 2.70164L70.529 2.50026L69.5857 2.31755L68.6424 2.15398L67.7 2.00955L66.7587 1.88451L65.8192 1.77886L64.882 1.69283L63.9477 1.62619L63.0165 1.57918L62.0892 1.55204L61.1662 1.54452L60.2479 1.55664L59.3352 1.58863L58.428 1.64048L57.5274 1.71222L56.6339 1.80382L55.7476 1.91505L54.869 2.04639L53.999 2.19735L53.1377 2.36795L52.2861 2.55818L51.4442 2.76828L50.6127 2.99776L49.7922 3.24688L48.9833 3.51537L48.1858 3.80301L47.4009 4.1098L46.6289 4.43573L45.87 4.78056L45.1252 5.14405L44.3944 5.5262L43.6784 5.92677L42.9775 6.34551L42.2923 6.78242L41.6229 7.23702L40.97 7.70932L40.3341 8.19906L39.7157 8.70601L39.1147 9.22968L38.5322 9.77031L37.9681 10.3272L37.4229 10.9003L36.8969 11.4889L36.3906 12.0933L35.9044 12.7126L35.4385 13.3471L34.9936 13.996L34.5695 14.659L34.167 15.3361L33.786 16.0265L33.427 16.7297L33.0902 17.446L32.7758 18.1742L32.4844 18.9145L32.216 19.6662L31.971 20.4291L31.7495 21.2026L31.5515 21.986L31.3775 22.7791L31.2276 23.5815L31.1017 24.3926L31.0005 25.2119L30.9236 26.0389L30.8714 26.8733L30.844 27.7144L30.8414 28.5618L30.8637 29.4148L30.9108 30.2731L30.9828 31.1358L31.0799 32.0028L31.2019 32.8735L31.3492 33.7469L31.5212 34.6229L31.7182 35.5008L31.9399 36.38L32.1865 37.2601L32.4575 38.1402L32.753 39.0199L33.073 39.8988L33.4173 40.776L33.7856 41.6511L34.1779 42.5234L34.5935 43.3927L35.0326 44.258L35.4951 45.1188L35.9803 45.9747L36.4881 46.8248L37.0185 47.6688L37.5707 48.5063L38.1445 49.3362L38.7396 50.1582L39.3559 50.9719L39.9925 51.7765L40.6493 52.5715L41.326 53.3567L42.022 54.1309L42.737 54.894L43.4702 55.6454L44.2214 56.3848L44.99 57.1113L45.7756 57.8247L46.5777 58.5241L47.3956 59.2096L48.229 59.8801L49.077 60.5356L49.9392 61.1756L50.8153 61.7996L51.7043 62.4071L52.6059 62.9976L53.5191 63.571L54.4437 64.1266L55.3788 64.6641L56.324 65.1834L57.2785 65.6838L58.2417 66.1651L59.2129 66.6272L60.1914 67.0695L61.1767 67.4916L62.168 67.8936L63.1647 68.2748L64.166 68.6354L65.1714 68.9749L66.18 69.2933L67.1912 69.5901L68.2044 69.8654L69.2191 70.1191L70.2339 70.3506L71.2491 70.5602L72.2632 70.7475L73.2759 70.9125L74.2864 71.0555L75.2943 71.1759L76.2987 71.2738L77.2988 71.3494L78.294 71.4023L79.2839 71.4328L80.2678 71.4408L81.2448 71.4263L82.2146 71.3894L83.1763 71.3305L84.1293 71.2491L85.0731 71.1456L86.0072 71.0201L86.9306 70.8725L87.8433 70.7034L88.7442 70.5127L89.6331 70.3007L90.5095 70.0673L91.3725 69.8129L92.2217 69.5376L93.0565 69.2419L93.8768 68.9257L94.6818 68.5893L95.4711 68.2334L96.2441 67.8578L97.0006 67.463L97.7401 67.0494L98.4619 66.6168L99.1657 66.1661L99.8514 65.6974L100.518 65.2111L101.166 64.7075L101.795 64.187L102.404 63.65L102.993 63.097L103.561 62.528L104.109 61.9435L104.636 61.3442L105.141 60.7304L105.625 60.1026L106.088 59.4609L106.529 58.8059L106.948 58.138L107.344 57.4581L107.718 56.766L108.069 56.0622L108.397 55.3474L108.703 54.6223L108.986 53.8869L109.245 53.142L109.482 52.3876L109.695 51.6248L109.885 50.8537L110.051 50.0748L110.194 49.2885L110.314 48.4956L110.41 47.6964L110.483 46.8911L110.532 46.0808L110.558 45.2654L110.561 44.4458L110.541 43.6222L110.497 42.7951L110.43 41.9651L110.341 41.1327L110.228 40.2984L110.093 39.4624L109.935 38.6256L109.755 37.7881L109.552 36.9507L109.328 36.1134L109.081 35.2771L108.812 34.4421L108.522 33.609L108.211 32.778L107.878 31.9498L107.525 31.1249L107.151 30.3034L106.756 29.486L106.341 28.673L105.906 27.8651L105.452 27.0625L104.978 26.2655L104.486 25.475L103.974 24.6911L103.444 23.9142L102.896 23.1448L102.33 22.3832L101.746 21.6298L101.146 20.8851L100.528 20.1497L99.8945 19.4234L99.2445 18.7071L98.5788 18.0012L97.898 17.3055L97.2019 16.6209L96.4913 15.9477L95.7666 15.2859L95.0283 14.6362Z" fill="#0E0C15"/>
<path d="M96.1472 15.5626L95.3767 14.8846L94.592 14.2194L94.4455 14.0958L93.6638 13.4573L92.8692 12.8321L92.0622 12.2205L91.2432 11.6229L90.4127 11.0394L89.5713 10.4701L88.7192 9.91593L87.8569 9.377L86.9847 8.85333L86.1035 8.34541L85.2133 7.85348L84.3151 7.3778L83.4087 6.91859L82.4952 6.47586L81.5747 6.05033L80.6479 5.64177L79.7153 5.2509L78.7771 4.87747L78.5968 4.80865L77.6341 4.44589L76.6667 4.1013L75.6956 3.77561L74.7207 3.46834L73.7429 3.18021L72.7628 2.91147L71.7806 2.66188L71.4533 2.58287L70.4501 2.34831L69.4461 2.13384L68.4417 1.93925L67.4372 1.76502L66.4338 1.61115L66.0046 1.5479L64.9831 1.41195L63.9634 1.29709L62.9461 1.20355L61.4261 1.09475L60.3969 1.0424L59.3716 1.01211L58.3509 1.00339L57.7923 1L56.7593 1.01333L55.732 1.04895L55.1424 1.08093L54.1048 1.13982L53.0741 1.22124L52.0512 1.3252L51.4177 1.39572L50.3871 1.5244L49.3652 1.67585L48.7081 1.78465L47.6807 1.96155L46.6633 2.16195L45.9862 2.30953L44.9655 2.53611L43.9559 2.78619L43.2618 2.97326L42.2513 3.25049L41.2534 3.55097L40.5459 3.77803L39.549 4.10614L38.5661 4.458L37.8487 4.72504L36.869 5.10477L35.9043 5.50801L35.1804 5.81503L34.2213 6.24662L33.5036 6.58854L32.5513 7.04848L31.6165 7.53216L30.8983 7.9131L29.9725 8.42514L29.2648 8.84L28.3494 9.38015L27.4534 9.94404L26.7508 10.3962L25.8674 10.9882L25.1793 11.4724L24.3097 12.092L23.4616 12.7349L22.7837 13.2545L21.9515 13.9245L21.292 14.4739L20.4773 15.171L19.8378 15.7487L19.0417 16.4728L18.2695 17.2189L17.6471 17.8279L16.8955 18.5997L16.2965 19.2346L15.5664 20.0316L14.9919 20.691L14.2847 21.5125L13.6039 22.3551L13.0529 23.0404L12.3966 23.9064L11.8728 24.6128L11.2422 25.5012L10.7468 26.2274L10.1432 27.1376L9.67707 27.8818L9.10061 28.8126L8.55301 29.7623L8.11702 30.5239L7.59805 31.4927L7.1936 32.2686L6.70425 33.2554L6.33207 34.0439L5.87302 35.0474L5.53409 35.8468L5.1061 36.8663L4.70894 37.9015L4.40396 38.7085L4.03858 39.7575L3.76829 40.571L3.43493 41.6326L3.19935 42.4507L2.89849 43.5233L2.62968 44.6094L2.42976 45.4267L2.19393 46.5216L2.02943 47.3392L1.8266 48.4415L1.69753 49.2575L1.52793 50.3661L1.39085 51.4852L1.29793 52.2914L1.19409 53.4143L1.13683 54.2143L1.06599 55.3394L1.02765 56.4727L1.00582 57.2569L1 58.3903L1.01285 59.1635L1.0393 60.2952L1.09851 61.4329L1.14484 62.1841L1.23557 63.318L1.43744 65.182L1.59125 66.3139L1.70238 67.0219L1.88653 68.1459L2.10198 69.2722L2.24269 69.9488L2.48726 71.0647L2.76263 72.1813L2.93076 72.8235L3.2338 73.9278L3.5674 75.0311L3.76102 75.6355L4.12058 76.7242L4.51022 77.8106L4.72616 78.3745L5.14007 79.4441L5.58285 80.5101L6.0545 81.5717L6.28403 82.078L6.77727 83.12L7.29842 84.1562L8.08476 85.631L8.65248 86.6385L9.2469 87.6382L9.86752 88.6295L10.1072 89.0107L10.7436 89.9776L11.405 90.9348L12.0909 91.8813L12.3267 92.1963L13.0255 93.1167L13.7475 94.0254L14.4924 94.922L15.2598 95.8055L16.0488 96.6757L16.2482 96.8926L17.045 97.7342L17.8621 98.561L18.6992 99.3731L19.5556 100.169L20.431 100.949L21.3246 101.713L22.2358 102.459L22.3525 102.552L23.2641 103.267L24.1916 103.964L25.1347 104.643L26.0925 105.303L27.0647 105.944L28.0502 106.564L29.0486 107.165L30.0591 107.744L31.081 108.303L32.1139 108.84L33.1567 109.355L34.2089 109.849L35.2696 110.32L36.3381 110.768L36.4774 110.825L37.5728 111.258L38.6746 111.667L39.7824 112.052L40.895 112.412L42.0118 112.748L43.1322 113.06L44.2553 113.346L44.5431 113.415L45.6875 113.681L46.8332 113.922L47.9791 114.136L49.1247 114.324L50.2692 114.487L50.6603 114.54L51.8212 114.679L52.9797 114.791L54.1343 114.877L54.5854 114.901L55.7534 114.961L56.9162 114.994L58.0733 115L58.5792 114.992L59.7459 114.97L60.9052 114.921L62.0559 114.846L62.6113 114.801L63.7686 114.697L64.9154 114.565L66.0516 114.407L66.6509 114.322L67.79 114.134L68.9165 113.919L69.54 113.794L70.6668 113.549L71.7792 113.278L72.4236 113.113L73.5336 112.811L74.628 112.482L75.2892 112.277L76.3783 111.918L77.4502 111.533L78.1244 111.287L79.1886 110.871L79.8628 110.588L80.9175 110.142L81.9525 109.671L82.6333 109.347L83.6564 108.846L84.6587 108.32L85.3421 107.956L86.3303 107.4L87.0065 107.001L87.9787 106.418L88.9278 105.809L89.6006 105.371L90.5315 104.735L91.1927 104.264L92.1042 103.6L92.991 102.914L93.6429 102.406L94.5081 101.694L95.1443 101.154L95.9869 100.417L96.6058 99.8461L97.4246 99.084L98.2163 98.3008L98.8185 97.6986L99.5847 96.8924L100.166 96.2623L100.906 95.4341L101.464 94.7771L102.177 93.9277L102.86 93.0592L103.395 92.3761L104.05 91.4882L104.56 90.7814L105.185 89.8756L105.669 89.1466L106.264 88.2236L106.719 87.4741L107.284 86.5351L107.818 85.5803L108.244 84.8131L108.746 83.844L109.142 83.0601L109.613 82.0784L109.978 81.2793L110.416 80.2862L110.749 79.4734L111.155 78.4702L111.531 77.4544L111.83 76.6336L112.172 75.6095L112.438 74.7796L112.748 73.7487L112.98 72.9107L113.258 71.8745L113.504 70.8284L113.701 69.9905L113.915 68.9407L114.076 68.0996L114.259 67.0476L114.386 66.2048L114.536 65.1524L114.656 64.0925L114.747 63.2579L114.836 62.1994L114.892 61.3672L114.95 60.3114L114.979 59.25L115 58.4319L114.998 57.3752L114.984 56.5641L114.953 55.5131L114.894 54.4583L114.846 53.6668L114.758 52.62L114.677 51.8397L114.561 50.8018L114.418 49.762L114.305 49.0069L114.136 47.9777L113.939 46.9481L113.796 46.2211L113.575 45.2038L113.327 44.1868L113.155 43.4908L112.884 42.4881L112.587 41.4865L112.389 40.8242L112.071 39.8387L111.727 38.8556L111.505 38.2299L111.142 37.2637L110.755 36.3012L110.51 35.7145L110.105 34.7707L109.676 33.8309L108.968 32.3665L108.5 31.452L108.011 30.543L107.739 30.0577L107.236 29.1705L106.712 28.2896L106.167 27.4158L105.336 26.1416L104.76 25.2984L104.165 24.4633L103.551 23.637L103.289 23.2936L102.667 22.4915L102.028 21.6986L101.37 20.9154L100.695 20.1424L100.003 19.38L99.7769 19.1328L99.082 18.3959L98.3714 17.6701L97.6449 16.9558L96.9035 16.253L96.1472 15.5626Z" fill="#0E0C15"/>
<path d="M49.3652 1.67585L48.3527 1.85034L47.35 2.04783L46.3582 2.26811L45.3772 2.51116L44.408 2.77699L43.4513 3.06536L42.5073 3.37651L41.5766 3.70995L40.66 4.06545L39.7577 4.44348L38.8706 4.84332L37.9994 5.26496L37.1442 5.70842L36.3057 6.17345L35.4844 6.6598L34.6811 7.16723L33.896 7.6955L33.1295 8.24437L32.3825 8.8136L31.6551 9.40294L30.9484 10.0122L30.2622 10.641L29.5975 11.289L28.9545 11.9559L28.3336 12.6414L27.7351 13.3454L27.1598 14.067L26.6081 14.8061L26.0804 15.5626L25.577 16.3357L25.0983 17.1252L24.6446 17.9307L24.2161 18.7514L23.8136 19.5872L23.4371 20.4378L23.087 21.3022L22.7638 22.1803L22.4678 23.0716L22.199 23.9755L21.9576 24.8915L21.7441 25.8189L21.5587 26.7574L21.4012 27.7064L21.2727 28.6653L21.1725 29.6334L21.1011 30.6104L21.0589 31.5952L21.0456 32.5878L21.0611 33.5874L21.1062 34.5931L21.1802 35.6045L21.2838 36.6208L21.4168 37.6418L21.5791 38.6663L21.7708 39.6938L21.9915 40.7239L22.2414 41.7555L22.5207 42.7883L22.8288 43.8216L23.1658 44.8546L23.5317 45.8865L23.9264 46.9166L24.3493 47.9445L24.8004 48.9693L25.2793 49.9905L25.7859 51.0071L26.3196 52.0185L26.8808 53.0242L27.4689 54.0233L28.0833 55.0154L28.7238 55.9992L29.39 56.9748L30.0812 57.941L30.7975 58.8975L31.5382 59.843L32.3027 60.7777L33.0907 61.7002L33.9018 62.6102L34.7352 63.5068L35.5907 64.3898L36.4672 65.2583L37.3645 66.1118L38.2818 66.9498L39.2188 67.7712L40.1747 68.576L41.1489 69.3631L42.1407 70.1325L43.1495 70.8832L44.1743 71.615L45.2147 72.3275L46.2698 73.0198L47.3391 73.6915L48.4216 74.3422L49.5171 74.9715L50.6242 75.5788L51.7421 76.164L52.8706 76.7264L54.0087 77.2658L55.1553 77.782L56.31 78.2742L57.4716 78.7423L58.6396 79.1861L59.8134 79.605L60.9916 79.999L62.1739 80.3679L63.3591 80.7115L64.5464 81.0292L65.7355 81.3212L66.9251 81.5873L68.1144 81.8269L69.3028 82.0404L70.4892 82.2277L71.6732 82.3884L72.8538 82.5229L74.03 82.6305L75.2014 82.7117L76.3669 82.7662L77.5259 82.7938L78.6774 82.7953L79.8211 82.7701L80.9558 82.7184L82.0809 82.6406L83.1957 82.5367L84.2996 82.4066L85.3917 82.2505L86.4713 82.0688L87.5376 81.8613L88.5904 81.6285L89.6288 81.3706L90.6522 81.0878L91.6595 80.7803L92.6509 80.4486L93.625 80.0926L94.5817 79.7129L95.5203 79.3096L96.4403 78.8831L97.3415 78.4341L98.2226 77.9625L99.0837 77.4689L99.9241 76.9535L100.743 76.417L101.541 75.8594L102.316 75.2814L103.069 74.6834L103.8 74.0657L104.507 73.4291L105.19 72.7738L105.85 72.1004L106.485 71.409L107.096 70.7005L107.682 69.9752L108.242 69.2337L108.778 68.4764L109.287 67.7041L109.771 66.917L110.229 66.1159L110.661 65.301L111.066 64.4729L111.444 63.6325L111.796 62.78L112.121 61.9161L112.419 61.0413L112.69 60.1561L112.934 59.2612L113.151 58.3571L113.34 57.4442L113.503 56.5231L113.638 55.5946L113.746 54.6592L113.827 53.7172L113.881 52.7695L113.908 51.8164L113.907 50.8588L113.88 49.8967L113.826 48.931L113.745 47.9625L113.638 46.9915L113.505 46.0183L113.345 45.0439L113.159 44.0688L112.947 43.0932L112.709 42.1178L112.446 41.1434L112.157 40.17L111.844 39.1987L111.505 38.2299" fill="#0E0C15"/>
<path d="M29.973 8.42517L29.0656 8.96071L28.1776 9.51951L27.3092 10.1013L26.4613 10.7057L25.6342 11.3326L24.8287 11.982L24.0455 12.653L23.2846 13.3459L22.5468 14.06L21.8328 14.795L21.1428 15.5505L20.4773 16.3265L19.837 17.122L19.2224 17.937L18.6338 18.7711L18.0719 19.6236L17.5367 20.4945L17.0292 21.3829L16.5493 22.2884L16.0975 23.2107L15.6744 24.1493L15.2801 25.1035L14.9154 26.0729L14.5804 27.0567L14.2752 28.0549L14.0003 29.0663L13.756 30.0906L13.5422 31.1273L13.3598 32.1756L13.2084 33.2351L13.0888 34.3049L13.0009 35.3845L12.9449 36.4733L12.9206 37.5705L12.9286 38.6756L12.9689 39.7876L13.0414 40.9059L13.1465 42.0301L13.2838 43.1593L13.4539 44.2924L13.6562 45.4294L13.8909 46.5689L14.158 47.7105L14.4571 48.8535L14.7885 49.9968L15.152 51.1399L15.5475 52.282L15.9747 53.4223L16.4333 54.5601L16.9234 55.6946L17.4443 56.8249L17.996 57.9505L18.578 59.0703L19.1902 60.1835L19.8324 61.2897L20.504 62.3877L21.2046 63.4772L21.9337 64.557L22.691 65.6267L23.4758 66.6854L24.2879 67.7322L25.1269 68.7665L25.9918 69.7877L26.8825 70.7945L27.7981 71.7869L28.738 72.7637L29.7017 73.7245L30.6887 74.6686L31.698 75.5953L32.7291 76.5035L33.7814 77.3931L34.854 78.2633L35.9463 79.1134L37.0575 79.9428L38.1866 80.751L39.3333 81.5376L40.4964 82.3017L41.6753 83.0427L42.869 83.7602L44.077 84.454L45.2981 85.1231L46.5313 85.7674L47.7764 86.3866L49.032 86.98L50.2973 87.5471L51.5713 88.0877L52.8535 88.6014L54.1426 89.0878L55.4379 89.5465L56.7386 89.9776L58.0434 90.3806L59.3519 90.7552L60.6625 91.101L61.9751 91.4182L63.2881 91.7064L64.6009 91.9654L65.9128 92.1951L67.2225 92.3953L68.5292 92.5664L69.8321 92.7079L71.1304 92.8196L72.423 92.902L73.7092 92.9546L74.9878 92.9776L76.2584 92.9711L77.52 92.9352L78.7717 92.87L80.0127 92.7757L81.2423 92.6524L82.4595 92.5L83.6636 92.319L84.8539 92.1091L86.0297 91.8711L87.1899 91.6051L88.3341 91.3111L89.4618 90.9898L90.5718 90.6413L91.6636 90.2657L92.7364 89.8635L93.7901 89.435L94.8235 88.9807L95.8364 88.5009L96.8278 87.9958L97.7975 87.4664L98.7449 86.9127L99.6691 86.3349L100.57 85.734L101.447 85.11L102.3 84.4635L103.127 83.7951L103.93 83.1052L104.706 82.3947L105.457 81.6636L106.181 80.9126L106.879 80.1425L107.549 79.3533L108.192 78.5461L108.807 77.7212L109.394 76.8791L109.952 76.0206L110.483 75.1462L110.984 74.2564L111.457 73.352L111.9 72.4334L112.314 71.5011L112.699 70.5561L113.054 69.5986L113.38 68.6298L113.676 67.6496L113.943 66.659L114.179 65.6587L114.386 64.6489L114.562 63.6306L114.709 62.6044L114.827 61.5706L114.914 60.5303L114.972 59.4839L115 58.432" fill="#0E0C15"/>
<path d="M15.5664 20.0316L14.8623 20.8502L14.1842 21.6894L13.533 22.5492L12.909 23.4291L12.3126 24.3283L11.7444 25.247L11.2048 26.1841L10.6943 27.1393L10.2132 28.1123L9.76192 29.1022L9.34098 30.1088L8.95109 31.1314L8.592 32.1693L8.26423 33.2222L7.96847 34.2892L7.70451 35.3697L7.4728 36.4634L7.27361 37.5693L7.10742 38.6869L6.97422 39.8155L6.8745 40.9544L6.80826 42.103L6.7755 43.2606L6.77648 44.4265L6.81141 45.5996L6.88032 46.7794L6.98319 47.9656L7.12051 49.1567L7.29181 50.3523L7.49731 51.5518L7.73701 52.754L8.01069 53.9584L8.31809 55.1642L8.65969 56.3705L9.03504 57.5766L9.44409 58.7814L9.88663 59.9843L10.3624 61.1846L10.8712 62.3814L11.4125 63.5737L11.9865 64.7608L12.5926 65.9419L13.2304 67.1163L13.8998 68.2828L14.6005 69.4409L15.3318 70.5898L16.0933 71.7284L16.8845 72.8562L17.7051 73.9724L18.5542 75.076L19.4318 76.1662L20.337 77.2424L21.2694 78.3035L22.2283 79.3491L23.2128 80.3785L24.2226 81.3905L25.2569 82.385L26.3149 83.3606L27.3963 84.3171L28.4997 85.2534L29.625 86.1692L30.7712 87.0639L31.9372 87.9362L33.1224 88.7863L34.326 89.6131L35.5474 90.4162L36.7852 91.1951L38.0391 91.9487L39.3078 92.6771L40.5905 93.3794L41.8863 94.0555L43.1945 94.7047L44.5139 95.3265L45.8437 95.9204L47.1827 96.4863L48.5305 97.0235L49.8858 97.5319L51.2474 98.011L52.6148 98.4605L53.9868 98.8802L55.3624 99.2699L56.7408 99.6295L58.1208 99.9583L59.5015 100.256L60.8823 100.523L62.2616 100.76L63.6392 100.965L65.0134 101.139L66.3837 101.281L67.7492 101.393L69.1086 101.473L70.4612 101.522L71.8063 101.539L73.1426 101.525L74.4695 101.48L75.786 101.405L77.0913 101.298L78.3842 101.161L79.6645 100.993L80.9308 100.794L82.1827 100.566L83.4188 100.308L84.6392 100.02L85.8423 99.7027L87.0281 99.3564L88.1953 98.9818L89.3434 98.5785L90.4716 98.1472L91.5791 97.6882L92.6658 97.2021L93.7307 96.6891L94.773 96.1499L95.7925 95.5848L96.7882 94.994L97.7599 94.3783L98.7071 93.738L99.6288 93.0738L100.525 92.3861L101.395 91.6751L102.238 90.9421L103.055 90.187L103.844 89.4108L104.605 88.6135L105.338 87.7962L106.042 86.9592L106.718 86.103L107.364 85.2287L107.981 84.3367L108.568 83.4273L109.126 82.5013L109.653 81.5597L110.15 80.6025L110.616 79.6307L111.051 78.6447L111.456 77.6456L111.83 76.6336" fill="#0E0C15"/>
<path d="M5.87277 35.0474L5.44431 36.0678L5.04689 37.104L4.68053 38.156L4.34597 39.2227L4.04318 40.304L3.77265 41.3985L3.53439 42.5065L3.32914 43.6265L3.15688 44.7584L3.0181 45.9012L2.9128 47.0547L2.84123 48.2176L2.80338 49.3893L2.79975 50.5694L2.83008 51.7568L2.89461 52.951L2.99359 54.1512L3.12705 55.3566L3.29493 56.5665L3.49729 57.7798L3.73407 58.9961L4.00508 60.2145L4.31029 61.4339L4.64973 62.6538L5.02336 63.8734L5.43073 65.0918L5.87205 66.308L6.3471 67.5214L6.85514 68.7311L7.39618 69.9362L7.97023 71.1359L8.57654 72.3296L9.21511 73.5161L9.88547 74.6947L10.5874 75.8647L11.3201 77.0252L12.0836 78.1753L12.8767 79.3142L13.6997 80.441L14.5518 81.5552L15.4323 82.6559L16.3409 83.742L17.2769 84.8131L18.2396 85.8682L19.2283 86.9066L20.2427 87.9277L21.2818 88.9305L22.345 89.9146L23.4315 90.8788L24.5407 91.8229L25.6718 92.7459L26.824 93.6471L27.9966 94.5263L29.1883 95.3824L30.399 96.2151L31.6274 97.0235L32.8725 97.8074L34.1339 98.5656L35.4106 99.2982L36.7013 100.005L38.0057 100.684L39.3221 101.336L40.6502 101.961L41.9888 102.557L43.337 103.125L44.694 103.664L46.0585 104.173L47.43 104.653L48.8069 105.103L50.1889 105.522L51.5745 105.912L52.963 106.27L54.3532 106.598L55.7444 106.894L57.1356 107.159L58.5255 107.393L59.9138 107.595L61.2987 107.766L62.6799 107.905L64.0561 108.012L65.4266 108.088L66.7904 108.132L68.1462 108.144L69.4937 108.125L70.8317 108.074L72.1593 107.992L73.4756 107.879L74.7799 107.735L76.0711 107.56L77.3485 107.354L78.6113 107.118L79.8587 106.851L81.09 106.555L82.3043 106.229L83.5006 105.873L84.6788 105.489L85.8376 105.076L86.9764 104.635L88.0947 104.166L89.1918 103.669L90.2671 103.146L91.3198 102.596L92.3492 102.019L93.3554 101.417L94.337 100.79L95.2939 100.138L96.2254 99.4615L97.131 98.7617L98.0105 98.0386L98.8633 97.2929L99.6887 96.5252L100.487 95.736L101.257 94.9259L101.998 94.0954L102.711 93.2453L103.395 92.3761" fill="#0E0C15"/>
<path d="M89.6006 105.371L88.6455 105.983L87.6672 106.571L86.6662 107.133L85.643 107.671L84.5983 108.182L83.5325 108.667L82.4463 109.126L81.3404 109.557L80.2154 109.961L79.0719 110.337L77.9107 110.685L76.7328 111.005L75.5384 111.296L74.3287 111.558L73.1039 111.79L71.8656 111.993L70.6139 112.167L69.3499 112.31L68.0742 112.423L66.788 112.506L65.4917 112.559L64.1867 112.581L62.8736 112.573L61.553 112.534L60.2261 112.464L58.8939 112.363L57.5571 112.231L56.2166 112.069L54.8734 111.877L53.5286 111.653L52.1828 111.4L50.837 111.116L49.4924 110.801L48.1495 110.457L46.8095 110.083L45.4736 109.679L44.1421 109.246L42.8164 108.785L41.4975 108.294L40.1859 107.775L38.8831 107.227L37.5894 106.652L36.3062 106.05L35.0341 105.42L33.7742 104.764L32.5271 104.082L31.2941 103.375L30.0757 102.643L28.873 101.885L27.6869 101.104L26.5179 100.299L25.3669 99.4714L24.2348 98.6216L23.1224 97.7499L22.0306 96.8572L20.9597 95.9439L19.9111 95.0109L18.8848 94.0588L17.8821 93.0881L16.9033 92.0999L15.9491 91.0944L15.0201 90.0728L14.1171 89.0354L13.2405 87.9835L12.3911 86.9172L11.5693 85.8376L10.7755 84.7457L10.0105 83.6417L9.27439 82.527L8.56763 81.4021L7.89096 80.2675L7.24487 79.1245L6.62935 77.9737L6.04511 76.8158L5.49193 75.6517L4.97079 74.4822L4.48142 73.3081L4.02408 72.1304L3.59926 70.9496L3.20717 69.7665L2.84786 68.5823L2.52153 67.3973L2.22844 66.2126L1.96836 65.0288L1.74126 63.8467L1.54766 62.6673L1.38728 61.4911L1.26015 60.3192L1.16649 59.1519L1.10584 57.9902L1.07866 56.835L1.08425 55.6868L1.12282 54.5462L1.19409 53.4143" fill="#0E0C15"/>
<path d="M3.5674 75.0311L3.93158 76.1329L4.32584 77.2326L4.75019 78.3291L5.20414 79.422L5.68768 80.5103L6.20058 81.5933L6.7426 82.6704L7.31324 83.7408L7.91227 84.8036L8.53968 85.8585L9.19451 86.9041L9.87676 87.9401L10.5859 88.9658L11.3213 89.9805L12.0829 90.9832L12.87 91.9734L13.682 92.9502L14.5188 93.9132L15.3794 94.8617L16.2633 95.7946L17.1702 96.7118L18.0989 97.6125L19.0495 98.4958L20.021 99.3612L21.0128 100.208L22.0243 101.036L23.0547 101.844L24.1033 102.632L25.1694 103.399L26.2522 104.145L27.351 104.869L28.4654 105.571L29.594 106.25L30.7363 106.905L31.8919 107.537L33.0591 108.144L34.238 108.727L35.4271 109.285L36.6259 109.817L37.8337 110.324L39.0494 110.804L40.272 111.258L41.5011 111.685L42.7356 112.086L43.9746 112.459L45.2173 112.805L46.463 113.123L47.7103 113.413L48.959 113.675L50.2078 113.909L51.4561 114.115L52.7029 114.292L53.9476 114.441L55.1888 114.561L56.4262 114.653L57.6587 114.717L58.8856 114.752L60.106 114.758L61.3188 114.736L62.5239 114.685L63.7201 114.607L64.9065 114.5L66.0825 114.365L67.2473 114.202L68.4 114.012L69.54 113.794" fill="#0E0C15"/>
<path d="M49.3652 1.67585L50.3871 1.5244L51.4177 1.39572L52.0512 1.3252L53.0741 1.22124L54.1048 1.13982L55.1424 1.08093L55.732 1.04895L56.7593 1.01333L57.7923 1L58.3509 1.00339L59.3716 1.01211L60.3969 1.0424L61.4261 1.09475L62.9461 1.20355L63.9634 1.29709L64.9831 1.41195L66.0046 1.5479L66.4338 1.61115L67.4372 1.76502L68.4417 1.93925L69.4461 2.13384L70.4501 2.34831L71.4533 2.58287L71.7806 2.66188L72.7628 2.91147L73.7429 3.18021L74.7207 3.46834L75.6956 3.77561L76.6668 4.1013L77.6341 4.44589L78.5968 4.80865L78.7771 4.87747L79.7153 5.2509L80.6479 5.64177L81.5747 6.05033L82.4952 6.47586L83.4087 6.91859L84.3151 7.3778L85.2133 7.85348L86.1035 8.34541L86.9847 8.85333L87.8569 9.377L88.7192 9.91593L89.5713 10.4701L90.4127 11.0394L91.2432 11.6229L92.0622 12.2205L92.8692 12.8321L93.6638 13.4573L94.4455 14.0958L94.5921 14.2194L95.3767 14.8846L96.1472 15.5626L96.9035 16.253L97.6449 16.9558L98.3714 17.6701L99.082 18.3959L99.7769 19.1328L100.003 19.38L100.695 20.1424L101.37 20.9154L102.028 21.6986L102.667 22.4915L103.289 23.2936L103.551 23.637L104.165 24.4633L104.76 25.2984L105.336 26.1416L106.167 27.4158L106.712 28.2896L107.236 29.1705L107.739 30.0577L108.011 30.543L108.5 31.452L108.968 32.3665L109.676 33.8309L110.105 34.7707L110.51 35.7145L110.755 36.3012L111.142 37.2637L111.505 38.2299M49.3652 1.67585L48.7081 1.78465L47.6807 1.96155L46.6633 2.16195L45.9862 2.30953L44.9655 2.53611L43.9559 2.78619L43.2618 2.97326L42.2513 3.25049L41.2534 3.55097L40.5459 3.77803L39.549 4.10614L38.5661 4.458L37.8487 4.72504L36.869 5.10477L35.9043 5.50801L35.1804 5.81503L34.2213 6.24662L33.5036 6.58854L32.5513 7.04848L31.6165 7.53216L30.8983 7.9131L29.9725 8.42514L29.2648 8.84L28.3494 9.38015L27.4534 9.94404L26.7508 10.3962L25.8674 10.9882L25.1793 11.4724L24.3097 12.092L23.4616 12.7349L22.7837 13.2545L21.9515 13.9245L21.292 14.4739L20.4773 15.171L19.8378 15.7487L19.0417 16.4728L18.2695 17.2189L17.6471 17.8279L16.8955 18.5997L16.2965 19.2346L15.5664 20.0316M49.3652 1.67585L48.3527 1.85034L47.35 2.04783L46.3582 2.26811L45.3772 2.51116L44.408 2.77699L43.4513 3.06536L42.5073 3.37651L41.5766 3.70995L40.66 4.06545L39.7577 4.44348L38.8706 4.84332L37.9994 5.26496L37.1442 5.70842L36.3057 6.17345L35.4844 6.6598L34.6811 7.16723L33.896 7.6955L33.1295 8.24437L32.3825 8.8136L31.6551 9.40294L30.9484 10.0122L30.2622 10.641L29.5974 11.289L28.9545 11.9559L28.3336 12.6414L27.7351 13.3454L27.1598 14.067L26.6081 14.8061L26.0804 15.5626L25.577 16.3357L25.0983 17.1252L24.6446 17.9307L24.2161 18.7514L23.8136 19.5872L23.4371 20.4378L23.087 21.3022L22.7638 22.1803L22.4678 23.0716L22.199 23.9755L21.9576 24.8915L21.7441 25.8189L21.5587 26.7574L21.4012 27.7064L21.2727 28.6653L21.1725 29.6334L21.1011 30.6104L21.0589 31.5952L21.0456 32.5878L21.0611 33.5874L21.1062 34.5931L21.1802 35.6045L21.2838 36.6208L21.4168 37.6418L21.5791 38.6663L21.7708 39.6938L21.9915 40.7239L22.2414 41.7555L22.5207 42.7883L22.8288 43.8216L23.1658 44.8546L23.5317 45.8865L23.9264 46.9166L24.3493 47.9445L24.8004 48.9693L25.2793 49.9905L25.7859 51.0071L26.3196 52.0185L26.8808 53.0242L27.4689 54.0233L28.0833 55.0154L28.7238 55.9992L29.39 56.9748L30.0812 57.941L30.7975 58.8975L31.5382 59.843L32.3027 60.7777L33.0907 61.7002L33.9018 62.6102L34.7352 63.5068L35.5907 64.3898L36.4672 65.2583L37.3645 66.1118L38.2818 66.9498L39.2188 67.7712L40.1747 68.576L41.1489 69.3631L42.1407 70.1325L43.1495 70.8832L44.1743 71.615L45.2147 72.3275L46.2698 73.0198L47.3391 73.6915L48.4216 74.3422L49.5171 74.9715L50.6242 75.5788L51.7421 76.164L52.8706 76.7264L54.0087 77.2658L55.1553 77.782L56.31 78.2742L57.4716 78.7423L58.6396 79.186L59.8134 79.605L60.9916 79.999L62.1739 80.3679L63.3591 80.7115L64.5464 81.0292L65.7355 81.3212L66.9251 81.5873L68.1144 81.8269L69.3028 82.0404L70.4892 82.2277L71.6732 82.3884L72.8538 82.5229L74.03 82.6305L75.2014 82.7117L76.3669 82.7662L77.5259 82.7938L78.6774 82.7953L79.8211 82.7701L80.9558 82.7184L82.0809 82.6407L83.1957 82.5367L84.2996 82.4066L85.3917 82.2505L86.4713 82.0688L87.5376 81.8613L88.5904 81.6285L89.6288 81.3706L90.6522 81.0878L91.6595 80.7803L92.6509 80.4486L93.625 80.0926L94.5817 79.7129L95.5203 79.3096L96.4403 78.8831L97.3415 78.4341L98.2227 77.9625L99.0837 77.4689L99.9241 76.9535L100.743 76.417L101.541 75.8594L102.316 75.2814L103.069 74.6834L103.8 74.0657L104.507 73.4291L105.19 72.7738L105.85 72.1004L106.485 71.409L107.096 70.7005L107.682 69.9752L108.242 69.2337L108.778 68.4764L109.287 67.7041L109.771 66.917L110.229 66.1159L110.661 65.301L111.066 64.4729L111.444 63.6325L111.796 62.78L112.121 61.9161L112.419 61.0413L112.69 60.1561L112.934 59.2612L113.151 58.3571L113.34 57.4442L113.503 56.5231L113.638 55.5946L113.746 54.6592L113.827 53.7172L113.881 52.7695L113.908 51.8164L113.907 50.8588L113.88 49.8967L113.826 48.931L113.746 47.9625L113.638 46.9915L113.505 46.0183L113.345 45.0439L113.159 44.0688L112.947 43.0932L112.709 42.1178L112.446 41.1434L112.157 40.17L111.844 39.1987L111.505 38.2299M15.5664 20.0316L14.9919 20.691L14.2847 21.5125L13.6039 22.3551L13.0529 23.0404L12.3966 23.9064L11.8728 24.6128L11.2422 25.5012L10.7468 26.2274L10.1432 27.1376L9.67707 27.8818L9.10061 28.8126L8.55301 29.7623L8.11702 30.5239L7.59805 31.4927L7.1936 32.2686L6.70425 33.2554L6.33207 34.0439L5.87302 35.0474L5.53409 35.8468L5.1061 36.8663L4.70894 37.9015L4.40396 38.7085L4.03858 39.7575L3.76829 40.571L3.43493 41.6326L3.19935 42.4507L2.89849 43.5233L2.62968 44.6094L2.42976 45.4267L2.19393 46.5216L2.02943 47.3392L1.8266 48.4415L1.69753 49.2575L1.52793 50.3661L1.39085 51.4852L1.29793 52.2914L1.19409 53.4143M15.5664 20.0316L14.8623 20.8502L14.1842 21.6894L13.533 22.5492L12.909 23.4291L12.3126 24.3283L11.7444 25.247L11.2048 26.1841L10.6943 27.1393L10.2132 28.1123L9.76192 29.1022L9.34098 30.1088L8.95109 31.1314L8.592 32.1693L8.26423 33.2222L7.96847 34.2892L7.70451 35.3697L7.4728 36.4634L7.27361 37.5693L7.10742 38.6869L6.97422 39.8155L6.8745 40.9544L6.80826 42.103L6.7755 43.2606L6.77648 44.4265L6.81141 45.5996L6.88032 46.7794L6.98319 47.9656L7.12051 49.1567L7.29181 50.3523L7.49731 51.5518L7.73701 52.754L8.01069 53.9584L8.31809 55.1642L8.65969 56.3705L9.03504 57.5766L9.44409 58.7814L9.88663 59.9843L10.3624 61.1846L10.8712 62.3814L11.4125 63.5737L11.9865 64.7608L12.5926 65.9419L13.2304 67.1163L13.8998 68.2828L14.6005 69.4409L15.3318 70.5898L16.0933 71.7284L16.8845 72.8562L17.7051 73.9724L18.5542 75.076L19.4318 76.1662L20.337 77.2424L21.2694 78.3035L22.2283 79.3491L23.2128 80.3785L24.2226 81.3905L25.2569 82.385L26.3149 83.3606L27.3963 84.3171L28.4997 85.2534L29.625 86.1692L30.7712 87.0639L31.9372 87.9363L33.1224 88.7863L34.326 89.6131L35.5474 90.4162L36.7852 91.1951L38.0391 91.9487L39.3078 92.6771L40.5905 93.3794L41.8863 94.0555L43.1945 94.7047L44.5139 95.3265L45.8437 95.9204L47.1827 96.4863L48.5305 97.0235L49.8858 97.5319L51.2474 98.011L52.6148 98.4605L53.9868 98.8802L55.3624 99.2699L56.7408 99.6295L58.1208 99.9583L59.5015 100.256L60.8823 100.523L62.2616 100.76L63.6392 100.965L65.0134 101.139L66.3837 101.281L67.7492 101.393L69.1086 101.473L70.4612 101.522L71.8063 101.539L73.1426 101.525L74.4695 101.48L75.786 101.405L77.0913 101.298L78.3842 101.161L79.6645 100.993L80.9308 100.794L82.1827 100.566L83.4188 100.308L84.6392 100.02L85.8423 99.7027L87.0281 99.3564L88.1953 98.9818L89.3434 98.5785L90.4716 98.1472L91.5791 97.6882L92.6658 97.2021L93.7307 96.6891L94.773 96.1499L95.7925 95.5848L96.7882 94.994L97.7599 94.3783L98.7071 93.738L99.6288 93.0738L100.525 92.3861L101.395 91.6751L102.238 90.9421L103.055 90.187L103.844 89.4108L104.605 88.6135L105.338 87.7962L106.042 86.9592L106.718 86.103L107.364 85.2287L107.981 84.3367L108.568 83.4273L109.126 82.5013L109.653 81.5597L110.15 80.6025L110.616 79.6307L111.051 78.6447L111.456 77.6456L111.83 76.6336M1.19409 53.4143L1.13683 54.2143L1.06599 55.3394L1.02765 56.4727L1.00582 57.2569L1 58.3903L1.01285 59.1635L1.0393 60.2952L1.09851 61.4329L1.14484 62.1841L1.23557 63.318L1.43744 65.182L1.59125 66.3139L1.70238 67.022L1.88653 68.1459L2.10198 69.2722L2.24269 69.9488L2.48726 71.0647L2.76263 72.1813L2.93076 72.8235L3.2338 73.9278L3.5674 75.0311M1.19409 53.4143L1.12282 54.5462L1.08425 55.6868L1.07866 56.835L1.10584 57.9902L1.16649 59.1519L1.26015 60.3192L1.38728 61.4911L1.54766 62.6673L1.74126 63.8467L1.96836 65.0288L2.22844 66.2126L2.52153 67.3973L2.84786 68.5823L3.20717 69.7665L3.59926 70.9496L4.02408 72.1304L4.48142 73.3081L4.97079 74.4822L5.49193 75.6517L6.04511 76.8158L6.62935 77.9737L7.24487 79.1245L7.89096 80.2675L8.56763 81.4021L9.27439 82.527L10.0105 83.6417L10.7755 84.7457L11.5693 85.8376L12.3911 86.9172L13.2405 87.9835L14.1171 89.0354L15.0201 90.0728L15.9491 91.0944L16.9033 92.0999L17.8821 93.0881L18.8848 94.0588L19.9111 95.0109L20.9597 95.9439L22.0306 96.8572L23.1224 97.7499L24.2348 98.6216L25.3669 99.4714L26.5179 100.299L27.6869 101.104L28.873 101.885L30.0757 102.643L31.2941 103.375L32.5271 104.082L33.7742 104.764L35.0341 105.42L36.3062 106.05L37.5894 106.652L38.8831 107.227L40.1859 107.775L41.4975 108.294L42.8164 108.785L44.1421 109.246L45.4736 109.679L46.8095 110.083L48.1495 110.457L49.4924 110.801L50.837 111.116L52.1828 111.4L53.5286 111.653L54.8734 111.877L56.2166 112.069L57.5571 112.231L58.8939 112.363L60.2261 112.464L61.553 112.534L62.8736 112.573L64.1867 112.581L65.4917 112.559L66.788 112.506L68.0742 112.423L69.3499 112.31L70.6139 112.167L71.8656 111.993L73.1039 111.79L74.3287 111.558L75.5384 111.296L76.7328 111.005L77.9107 110.685L79.0719 110.337L80.2154 109.961L81.3404 109.557L82.4463 109.126L83.5325 108.667L84.5983 108.182L85.643 107.671L86.6662 107.133L87.6672 106.571L88.6455 105.983L89.6006 105.371M3.5674 75.0311L3.76102 75.6355L4.12058 76.7242L4.51022 77.8106L4.72616 78.3745L5.14007 79.4441L5.58285 80.5101L6.0545 81.5717L6.28403 82.078L6.77727 83.12L7.29842 84.1562L8.08476 85.631L8.65248 86.6385L9.2469 87.6381L9.86752 88.6295L10.1072 89.0107L10.7436 89.9776L11.405 90.9348L12.0909 91.8813L12.3267 92.1963L13.0255 93.1167L13.7475 94.0254L14.4924 94.922L15.2598 95.8055L16.0488 96.6757L16.2482 96.8926L17.045 97.7342L17.8621 98.561L18.6991 99.3731L19.5556 100.169L20.431 100.949L21.3246 101.713L22.2358 102.459L22.3525 102.552L23.2641 103.267L24.1916 103.964L25.1347 104.643L26.0925 105.303L27.0647 105.944L28.0502 106.564L29.0486 107.165L30.0591 107.744L31.081 108.303L32.1139 108.84L33.1567 109.355L34.2089 109.849L35.2697 110.32L36.3381 110.768L36.4774 110.825L37.5728 111.258L38.6746 111.667L39.7824 112.052L40.895 112.412L42.0118 112.748L43.1322 113.06L44.2553 113.346L44.5431 113.415L45.6875 113.681L46.8332 113.922L47.9791 114.136L49.1247 114.324L50.2692 114.487L50.6603 114.54L51.8212 114.679L52.9797 114.791L54.1343 114.877L54.5854 114.901L55.7534 114.961L56.9162 114.994L58.0733 115L58.5792 114.992L59.7459 114.97L60.9052 114.921L62.0559 114.846L62.6113 114.801L63.7686 114.697L64.9154 114.565L66.0516 114.407L66.6509 114.322L67.79 114.134L68.9165 113.919L69.54 113.794M3.5674 75.0311L3.93158 76.1329L4.32584 77.2326L4.75019 78.3291L5.20414 79.422L5.68768 80.5103L6.20058 81.5933L6.7426 82.6704L7.31324 83.7408L7.91227 84.8036L8.53968 85.8585L9.19451 86.9041L9.87676 87.9401L10.5859 88.9658L11.3213 89.9805L12.0829 90.9832L12.87 91.9734L13.682 92.9502L14.5188 93.9132L15.3794 94.8617L16.2633 95.7946L17.1702 96.7118L18.0989 97.6125L19.0495 98.4958L20.021 99.3612L21.0128 100.208L22.0243 101.036L23.0547 101.844L24.1033 102.632L25.1694 103.399L26.2522 104.145L27.351 104.869L28.4654 105.571L29.594 106.25L30.7363 106.905L31.8919 107.537L33.0591 108.144L34.238 108.727L35.4271 109.285L36.6259 109.817L37.8337 110.324L39.0494 110.804L40.272 111.258L41.5011 111.685L42.7356 112.086L43.9746 112.459L45.2173 112.805L46.463 113.123L47.7103 113.413L48.959 113.675L50.2078 113.909L51.4561 114.115L52.7029 114.292L53.9476 114.441L55.1888 114.561L56.4262 114.653L57.6587 114.717L58.8856 114.752L60.106 114.758L61.3188 114.736L62.5239 114.685L63.7201 114.607L64.9065 114.5L66.0825 114.365L67.2473 114.202L68.4 114.012L69.54 113.794M69.54 113.794L70.6668 113.549L71.7792 113.278L72.4236 113.113L73.5336 112.811L74.628 112.482L75.2892 112.277L76.3783 111.918L77.4502 111.533L78.1244 111.287L79.1886 110.871L79.8628 110.588L80.9175 110.142L81.9525 109.671L82.6333 109.347L83.6564 108.846L84.6587 108.32L85.3421 107.956L86.3303 107.4L87.0065 107.001L87.9787 106.418L88.9278 105.809L89.6006 105.371M89.6006 105.371L90.5315 104.735L91.1927 104.264L92.1042 103.6L92.991 102.914L93.6429 102.406L94.5081 101.694L95.1443 101.154L95.9869 100.417L96.6058 99.8461L97.4246 99.084L98.2163 98.3008L98.8185 97.6986L99.5847 96.8924L100.166 96.2623L100.906 95.4341L101.464 94.7771L102.177 93.9277L102.86 93.0592L103.395 92.3761L104.05 91.4882L104.56 90.7814L105.185 89.8756L105.669 89.1466L106.264 88.2236L106.719 87.4741L107.284 86.5351L107.818 85.5803L108.244 84.8131L108.746 83.844L109.142 83.0601L109.613 82.0784L109.978 81.2793L110.416 80.2862L110.749 79.4734L111.155 78.4702L111.531 77.4544L111.83 76.6336M111.83 76.6336L112.172 75.6095L112.438 74.7796L112.748 73.7487L112.98 72.9107L113.258 71.8746L113.504 70.8284L113.701 69.9905L113.915 68.9407L114.076 68.0996L114.259 67.0476L114.386 66.2048L114.536 65.1524L114.656 64.0925L114.747 63.2579L114.836 62.1994L114.892 61.3672L114.95 60.3114L114.979 59.25L115 58.4319L114.998 57.3752L114.984 56.5641L114.953 55.5131L114.894 54.4583L114.846 53.6668L114.758 52.62L114.677 51.8397L114.561 50.8018L114.418 49.762L114.305 49.0069L114.136 47.9777L113.939 46.9481L113.796 46.2211L113.575 45.2038L113.327 44.1868L113.155 43.4908L112.884 42.4881L112.587 41.4865L112.389 40.8242L112.071 39.8387L111.727 38.8556L111.505 38.2299M29.973 8.42517L29.0656 8.96071L28.1776 9.51951L27.3092 10.1013L26.4613 10.7057L25.6342 11.3326L24.8287 11.982L24.0455 12.653L23.2846 13.3459L22.5468 14.06L21.8328 14.795L21.1428 15.5505L20.4773 16.3265L19.837 17.122L19.2224 17.937L18.6338 18.7711L18.0719 19.6236L17.5367 20.4945L17.0292 21.3829L16.5493 22.2884L16.0975 23.2107L15.6744 24.1493L15.2801 25.1036L14.9154 26.0729L14.5804 27.0567L14.2752 28.0549L14.0003 29.0663L13.756 30.0906L13.5422 31.1273L13.3598 32.1756L13.2084 33.2351L13.0888 34.3049L13.0009 35.3845L12.9449 36.4733L12.9206 37.5705L12.9286 38.6756L12.9689 39.7876L13.0414 40.9059L13.1465 42.0301L13.2838 43.1593L13.4539 44.2924L13.6562 45.4294L13.8909 46.5689L14.158 47.7105L14.4571 48.8535L14.7885 49.9968L15.152 51.1399L15.5475 52.282L15.9747 53.4223L16.4333 54.5601L16.9234 55.6946L17.4443 56.8249L17.996 57.9505L18.578 59.0703L19.1902 60.1835L19.8324 61.2897L20.504 62.3877L21.2046 63.4772L21.9337 64.557L22.691 65.6267L23.4758 66.6854L24.2879 67.7322L25.1269 68.7665L25.9918 69.7877L26.8825 70.7945L27.7981 71.7869L28.738 72.7637L29.7017 73.7245L30.6887 74.6686L31.698 75.5953L32.7291 76.5035L33.7814 77.3931L34.854 78.2633L35.9463 79.1134L37.0575 79.9428L38.1866 80.751L39.3333 81.5376L40.4964 82.3017L41.6753 83.0427L42.869 83.7602L44.077 84.454L45.2981 85.1231L46.5313 85.7674L47.7764 86.3866L49.032 86.98L50.2973 87.5471L51.5713 88.0877L52.8535 88.6014L54.1426 89.0878L55.4379 89.5465L56.7386 89.9776L58.0434 90.3806L59.3519 90.7552L60.6625 91.101L61.9751 91.4182L63.2881 91.7064L64.601 91.9654L65.9128 92.1951L67.2225 92.3953L68.5292 92.5664L69.8321 92.7079L71.1304 92.8196L72.423 92.902L73.7092 92.9546L74.9878 92.9776L76.2584 92.9711L77.52 92.9352L78.7717 92.87L80.0127 92.7757L81.2423 92.6524L82.4595 92.5L83.6636 92.319L84.8539 92.1091L86.0297 91.8711L87.1899 91.6051L88.3341 91.3111L89.4618 90.9898L90.5718 90.6413L91.6636 90.2657L92.7364 89.8635L93.7901 89.435L94.8235 88.9807L95.8364 88.5009L96.8277 87.9958L97.7975 87.4664L98.7449 86.9127L99.6691 86.3349L100.57 85.734L101.447 85.11L102.3 84.4635L103.127 83.7951L103.93 83.1052L104.706 82.3947L105.457 81.6636L106.181 80.9126L106.879 80.1425L107.549 79.3533L108.192 78.5461L108.807 77.7212L109.394 76.8791L109.952 76.0206L110.483 75.1462L110.984 74.2564L111.457 73.352L111.9 72.4334L112.314 71.5011L112.699 70.5561L113.054 69.5986L113.38 68.6298L113.676 67.6496L113.943 66.659L114.179 65.6587L114.386 64.6489L114.562 63.6306L114.709 62.6044L114.827 61.5706L114.914 60.5303L114.972 59.4839L115 58.432M5.87277 35.0474L5.44431 36.0678L5.04689 37.104L4.68053 38.156L4.34597 39.2227L4.04318 40.304L3.77265 41.3985L3.53439 42.5065L3.32914 43.6265L3.15688 44.7584L3.0181 45.9012L2.9128 47.0547L2.84123 48.2176L2.80338 49.3893L2.79975 50.5694L2.83008 51.7568L2.89461 52.951L2.99359 54.1512L3.12705 55.3566L3.29493 56.5665L3.49729 57.7798L3.73407 58.9961L4.00508 60.2145L4.31029 61.4339L4.64973 62.6538L5.02336 63.8734L5.43073 65.0918L5.87204 66.308L6.3471 67.5214L6.85514 68.7311L7.39618 69.9362L7.97023 71.1359L8.57654 72.3296L9.21511 73.5161L9.88547 74.6947L10.5874 75.8647L11.3201 77.0252L12.0836 78.1753L12.8767 79.3142L13.6997 80.441L14.5518 81.5552L15.4323 82.6559L16.3409 83.742L17.2769 84.8131L18.2396 85.8682L19.2283 86.9066L20.2427 87.9277L21.2818 88.9305L22.345 89.9146L23.4315 90.8788L24.5407 91.8229L25.6718 92.7459L26.824 93.6471L27.9966 94.5263L29.1883 95.3824L30.399 96.2151L31.6274 97.0235L32.8725 97.8074L34.1339 98.5656L35.4106 99.2982L36.7013 100.005L38.0057 100.684L39.3221 101.336L40.6502 101.961L41.9888 102.557L43.337 103.125L44.694 103.664L46.0585 104.173L47.43 104.653L48.8069 105.103L50.1888 105.522L51.5745 105.912L52.963 106.27L54.3532 106.598L55.7444 106.894L57.1356 107.159L58.5255 107.393L59.9138 107.595L61.2987 107.766L62.6799 107.905L64.0561 108.012L65.4266 108.088L66.7904 108.132L68.1462 108.144L69.4937 108.125L70.8317 108.074L72.1593 107.992L73.4756 107.879L74.7799 107.735L76.0711 107.56L77.3485 107.354L78.6113 107.118L79.8587 106.851L81.09 106.555L82.3043 106.229L83.5006 105.873L84.6788 105.489L85.8376 105.076L86.9764 104.635L88.0946 104.166L89.1918 103.669L90.2671 103.146L91.3198 102.596L92.3492 102.019L93.3554 101.417L94.337 100.79L95.2939 100.138L96.2254 99.4615L97.131 98.7617L98.0105 98.0386L98.8634 97.2929L99.6887 96.5252L100.487 95.736L101.257 94.9259L101.998 94.0954L102.711 93.2453L103.395 92.3761M88.8911 16.5099L88.4711 16.1529L88.0439 15.8032L87.6093 15.4606L87.168 15.1257L86.7199 14.7981L86.2655 14.4784L85.8047 14.1668L85.3384 13.8632L84.8663 13.5678L84.3885 13.2811L83.906 13.0031L83.4186 12.7337L82.9265 12.4734L82.4304 12.2221L81.9301 11.9803L81.4262 11.7476L80.9188 11.5245L80.4083 11.3112L79.8947 11.1074L79.3789 10.9138L78.8607 10.7301L78.3405 10.5564L77.8184 10.3928L77.2951 10.2397L76.7708 10.0969L76.2455 9.96485L75.7197 9.8432L75.1937 9.73222L74.668 9.6319L74.1424 9.54247L73.6177 9.46372L73.0938 9.39587L72.5712 9.33892L72.0501 9.29312L71.5311 9.25822L71.0141 9.23448L70.4997 9.22187L69.9881 9.22018L69.4793 9.22963L68.9741 9.25023L68.4724 9.28198L67.9748 9.32462L67.4813 9.37866L66.9924 9.44361L66.5084 9.5197L66.0292 9.60669L65.5556 9.70459L65.0876 9.8134L64.6254 9.93335L64.1698 10.064L63.7204 10.2055L63.2777 10.3577L62.8422 10.5205L62.4139 10.6938L61.993 10.8775L61.58 11.0716L61.1751 11.2761L60.7787 11.4905L60.3905 11.7154L60.0113 11.95L59.641 12.1943L59.2802 12.4485L58.9287 12.7121L58.5868 12.9852L58.2549 13.2675L57.9332 13.559L57.6219 13.8593L57.3211 14.1685L57.0311 14.4864L56.7521 14.8126L56.484 15.147L56.2274 15.4897L55.9821 15.8401L55.7484 16.1982L55.5267 16.5639L55.317 16.9368L55.1193 17.3168L54.9337 17.7036L54.7607 18.0971L54.6001 18.4967L54.4521 18.9026L54.3167 19.3145L54.1942 19.7321L54.0848 20.1552L53.9882 20.5831L53.905 21.0164L53.8346 21.454L53.7776 21.8961L53.7337 22.3424L53.7034 22.7927L53.6864 23.2463L53.6828 23.7033L53.6925 24.1635L53.7157 24.6264L53.7524 25.0916L53.8024 25.5593L53.8659 26.0287L53.9428 26.4998L54.0331 26.9721L54.1369 27.4456L54.2539 27.9196L54.3839 28.394L54.5273 28.8688L54.6836 29.3435L54.8529 29.8175L55.0354 30.2907L55.2307 30.763L55.4383 31.2339L55.6589 31.7033L55.8918 32.1705L56.1371 32.6355L56.3945 33.0981L56.6641 33.5576L56.9455 34.0141L57.2386 34.4672L57.5433 34.9165L57.8592 35.3617L58.1865 35.8027L58.5245 36.2391L58.8734 36.6707L59.2329 37.097L59.6024 37.5179L59.9824 37.9332L60.372 38.3425L60.7714 38.7455L61.18 39.142L61.5975 39.5319L62.024 39.9145L62.4593 40.2901L62.9026 40.658L63.3541 41.0183L63.8131 41.3706L64.2797 41.7145L64.7533 42.0501L65.2337 42.3773L65.7206 42.6955L66.2139 43.0044L66.7129 43.3044L67.2176 43.5947L67.7273 43.8753L68.2422 44.1463L68.7616 44.4072L69.2852 44.6581L69.8126 44.8984L70.3435 45.1284L70.878 45.3477L71.4149 45.5564L71.9547 45.7541L72.4965 45.9407L73.0402 46.1164L73.5854 46.2807L74.1318 46.4338L74.6789 46.5756L75.2265 46.7055L75.7741 46.824L76.3214 46.9308L76.8681 47.0261L77.4139 47.1094L77.9584 47.1812L78.5011 47.241L79.0419 47.2888L79.5805 47.3249L80.1162 47.3489L80.649 47.3612L81.1784 47.3615L81.7042 47.3498L82.2258 47.3263L82.7431 47.2912L83.2558 47.2442L83.7636 47.1853L84.2658 47.1145L84.7624 47.0324L85.2535 46.9386L85.738 46.8332L86.2162 46.7164L86.6874 46.5884L87.1518 46.4491L87.6086 46.2986L88.0577 46.137L88.499 45.9644L88.9321 45.7812L89.3567 45.5871L89.7725 45.3829L90.1797 45.1679L90.5776 44.9428L90.966 44.7077L91.3447 44.4625L91.7137 44.2076L92.0726 43.943L92.4212 43.6691L92.7592 43.3861L93.0867 43.0938L93.4034 42.7929L93.7091 42.4832L94.0034 42.165L94.2865 41.8388L94.5582 41.5044L94.8181 41.162L95.0663 40.8123L95.3026 40.4551L95.5268 40.0909L95.7388 39.7197L95.9385 39.3416L96.1258 38.9573L96.3007 38.5669L96.4633 38.1705L96.613 37.7682L96.7503 37.3606L96.8745 36.9477L96.9861 36.5299L97.0846 36.1076L97.1705 35.6806L97.2433 35.2495L97.3035 34.8145L97.3505 34.3756L97.3845 33.9336L97.4056 33.4885L97.4136 33.0404L97.4088 32.5899L97.3911 32.137L97.3605 31.6819L97.3168 31.2252L97.2608 30.7669L97.1916 30.3075L97.1099 29.8468L97.0155 29.3857L96.9085 28.924L96.7889 28.4621L96.6571 28.0005L96.513 27.5391L96.3565 27.0782L96.1882 26.6185L96.0076 26.1598L95.8152 25.7025L95.6112 25.247L95.3955 24.7933L95.1682 24.3419L94.9297 23.8931L94.68 23.4467L94.4192 23.0035L94.1475 22.5632L93.8651 22.1267L93.5722 21.6937L93.2689 21.2648L92.9552 20.84L92.6318 20.4196L92.2985 20.004L91.9556 19.593L91.6034 19.1873L91.2416 18.787L90.8711 18.3923L90.4917 18.0033L90.1037 17.6204L89.7075 17.2436L89.3033 16.8733L88.8911 16.5099ZM83.716 19.6868L83.9535 19.8739L84.1971 20.0547L84.4349 20.2376L84.6552 20.4313L84.8507 20.6418L85.03 20.8645L85.2059 21.0916L85.3913 21.3158L85.5939 21.5314L85.8042 21.7427L86.0083 21.955L86.1914 22.1741L86.3448 22.4043L86.4782 22.6425L86.607 22.8846L86.7465 23.1255L86.9064 23.3624L87.0758 23.5963L87.2381 23.8301L87.3774 24.0666L87.4824 24.3078L87.5649 24.553L87.6421 24.8007L87.7304 25.0495L87.8415 25.2986L87.963 25.5468L88.0776 25.7937L88.1671 26.0387L88.22 26.2818L88.2484 26.5246L88.2702 26.7686L88.3039 27.0163L88.3617 27.268L88.4308 27.5213L88.4927 27.7721L88.5291 28.0166L88.5274 28.2524L88.5002 28.4833L88.466 28.7147L88.4437 28.9512L88.4454 29.1965L88.459 29.4453L88.4658 29.6906L88.4473 29.9254L88.3908 30.1449L88.3088 30.3553L88.2195 30.5646L88.1414 30.7813L88.0868 31.0105L88.0438 31.2456L87.9948 31.476L87.9218 31.692L87.8124 31.8868L87.6782 32.0683L87.537 32.2474L87.4058 32.4357L87.2966 32.6402L87.1986 32.8522L87.095 33.0592L86.9698 33.2479L86.8113 33.4103L86.6301 33.5554L86.4418 33.6972L86.2623 33.8496L86.1021 34.0214L85.9522 34.2022L85.7979 34.3774L85.6249 34.5315L85.4231 34.6549L85.2016 34.7579L84.9735 34.8565L84.7524 34.9665L84.5474 35.0988L84.3509 35.2415L84.1515 35.378L83.937 35.4911L83.6995 35.5704L83.4462 35.6269L83.1868 35.678L82.9326 35.7415L82.6902 35.8285L82.4546 35.9271L82.2173 36.0194L81.9696 36.0873L81.7059 36.1188L81.4302 36.126L81.1498 36.1275L80.872 36.1413L80.6017 36.1798L80.336 36.2305L80.0701 36.2748L79.7989 36.2945L79.5187 36.2768L79.2316 36.2344L78.9415 36.1854L78.651 36.1491L78.3633 36.137L78.078 36.1374L77.7934 36.1321L77.509 36.1023L77.2237 36.0361L76.9369 35.9453L76.648 35.8479L76.3566 35.7621L76.0628 35.7L75.7687 35.6504L75.4771 35.5954L75.191 35.5173L74.9118 35.4049L74.6364 35.2689L74.3606 35.1264L74.0796 34.9949L73.7913 34.8853L73.5002 34.7872L73.2129 34.6847L72.9364 34.5616L72.6743 34.4072L72.4215 34.2313L72.1697 34.0496L71.9108 33.877L71.6393 33.7241L71.3627 33.5819L71.0912 33.436L70.835 33.2726L70.6009 33.0824L70.3808 32.8738L70.163 32.6596L69.9361 32.4531L69.6923 32.2631L69.4412 32.0821L69.1961 31.8987L68.9707 31.7016L68.7737 31.4833L68.5949 31.2499L68.42 31.012L68.2341 30.7796L68.0277 30.56L67.812 30.348L67.6028 30.1348L67.417 29.9118L67.2646 29.6739L67.1346 29.425L67.0094 29.1727L66.8718 28.9239L66.7107 28.6835L66.5387 28.4486L66.3737 28.2141L66.2347 27.9744L66.133 27.7263L66.0564 27.4718L65.9855 27.215L65.9018 26.9593L65.7922 26.708L65.6704 26.4599L65.5561 26.2134L65.4687 25.9667L65.4217 25.7181L65.4013 25.468L65.3877 25.2165L65.3605 24.9642L65.3067 24.7117L65.2395 24.4604L65.1795 24.2118L65.1475 23.9675L65.1565 23.7284L65.1931 23.4921L65.2368 23.2558L65.2669 23.0166L65.2703 22.7729L65.2601 22.5284L65.2567 22.2875L65.2805 22.0551L65.345 21.8346L65.4367 21.6211L65.5357 21.409L65.6221 21.1922L65.682 20.9668L65.7288 20.7383L65.7817 20.5144L65.8601 20.3033L65.977 20.1095L66.1202 19.927L66.2704 19.7469L66.4089 19.5606L66.5229 19.3619L66.6243 19.1583L66.7311 18.9603L66.8607 18.7781L67.0254 18.6184L67.2142 18.4735L67.4095 18.3322L67.5946 18.183L67.7579 18.0187L67.9098 17.8478L68.0657 17.6828L68.2412 17.5364L68.4471 17.4167L68.6738 17.3147L68.9067 17.217L69.1311 17.1107L69.3373 16.9866L69.5331 16.8548L69.7321 16.729L69.9465 16.6238L70.1855 16.5482L70.4415 16.4925L70.7028 16.4418L70.958 16.3817L71.1987 16.3027L71.4311 16.2145L71.6653 16.1329L71.9103 16.0725L72.1733 16.0437L72.4489 16.0359L72.7287 16.034L73.0045 16.0221L73.2707 15.9906L73.5308 15.9497L73.7909 15.9145L74.0573 15.9012L74.3343 15.9199L74.6189 15.9601L74.9069 16.0064L75.1932 16.0432L75.4746 16.0602L75.7524 16.0677L76.0288 16.0805L76.3063 16.1147L76.5868 16.1799L76.8702 16.2661L77.1555 16.3587L77.4416 16.4426L77.7279 16.5075L78.0127 16.5628L78.2949 16.6233L78.5731 16.7033L78.8471 16.8124L79.1186 16.9415L79.3905 17.0767L79.6659 17.2042L79.9462 17.3145L80.2276 17.4158L80.5049 17.5214L80.7737 17.6443L81.0307 17.7933L81.2803 17.9603L81.529 18.133L81.7835 18.2993L82.0473 18.4507L82.3148 18.5944L82.5774 18.7413L82.8265 18.9027L83.057 19.0859L83.2756 19.2843L83.492 19.4879L83.716 19.6868ZM92.6966 14.7005L92.0961 14.1911L91.4852 13.6916L90.8641 13.2029L90.233 12.7245L89.593 12.2568L88.9435 11.8005L88.2855 11.3554L87.6193 10.9221L86.9448 10.5004L86.2628 10.0909L85.5735 9.69373L84.8774 9.30892L84.1748 8.93695L83.4661 8.57782L82.7516 8.23202L82.032 7.8993L81.3073 7.58016L80.5779 7.27483L79.8445 6.98307L79.1074 6.7056L78.367 6.44219L77.6236 6.19333L76.8775 5.95875L76.1295 5.73872L75.3798 5.53347L74.6287 5.34325L73.8768 5.16804L73.1242 5.00787L72.3716 4.86271L71.6194 4.73307L70.8681 4.61868L70.1179 4.51982L69.3692 4.4367L68.6226 4.36909L67.8785 4.31699L67.137 4.28089L66.399 4.26028L65.6646 4.25544L64.9343 4.26658L64.2086 4.29349L63.4878 4.33637L62.7723 4.39502L62.0626 4.46941L61.359 4.5598L60.6622 4.66594L59.9722 4.78758L59.2895 4.92523L58.6147 5.07838L57.948 5.24728L57.29 5.43169L56.641 5.63161L56.0012 5.84704L55.3712 6.0775L54.7515 6.32321L54.142 6.5842L53.5435 6.85996L52.9564 7.15051L52.3806 7.45585L51.817 7.77596L51.2658 8.11013L50.7271 8.45884L50.2014 8.82136L49.689 9.19794L49.1904 9.58809L48.7059 9.9918L48.2354 10.4086L47.78 10.8387L47.3392 11.2817L46.9139 11.737L46.5039 12.205L46.1096 12.685L45.7316 13.1767L45.3698 13.6803L45.0248 14.195L44.6966 14.7208L44.3853 15.2573L44.0915 15.8042L43.8151 16.3614L43.5565 16.9282L43.3158 17.5047L43.0933 18.0901L42.8891 18.6846L42.7035 19.2875L42.5363 19.8986L42.388 20.5173L42.2585 21.1434L42.1481 21.7769L42.0569 22.4166L41.9848 23.0629L41.9322 23.715L41.8989 24.3724L41.8853 25.0352L41.8909 25.7026L41.9164 26.3743L41.9613 27.0497L42.0256 27.7287L42.1098 28.4106L42.2136 29.0952L42.3369 29.7819L42.4795 30.4704L42.6418 31.1603L42.8235 31.8509L43.0244 32.542L43.2445 33.2329L43.484 33.9235L43.7421 34.6132L44.0194 35.3014L44.3154 35.9879L44.6299 36.6722L44.9627 37.3539L45.3136 38.0322L45.6826 38.7071L46.0696 39.378L46.4738 40.0442L46.8955 40.7058L47.3344 41.3617L47.79 42.0119L48.2619 42.656L48.7503 43.2936L49.2545 43.9239L49.7741 44.5466L50.3094 45.1617L50.8594 45.7682L51.424 46.366L52.0031 46.9549L52.5958 47.534L53.2019 48.1035L53.8213 48.6626L54.4533 49.2109L55.0977 49.7482L55.754 50.274L56.4215 50.7883L57.1003 51.2904L57.7894 51.7799L58.4888 52.2568L59.1978 52.7208L59.9157 53.1711L60.6426 53.6077L61.3777 54.0306L62.1204 54.4392L62.8703 54.8329L63.627 55.2122L64.3901 55.5764L65.1587 55.9253L65.9327 56.2588L66.7115 56.5765L67.4942 56.8782L68.2807 57.1639L69.0705 57.4333L69.8626 57.6863L70.6572 57.9228L71.453 58.1424L72.25 58.3452L73.0478 58.5308L73.8452 58.6995L74.6423 58.851L75.4383 58.9852L76.2326 59.102L77.025 59.2016L77.815 59.2835L78.6016 59.3482L79.3845 59.395L80.1636 59.4245L80.9378 59.4367L81.7069 59.4311L82.4706 59.4081L83.2281 59.3678L83.979 59.3102L84.7229 59.2353L85.4592 59.143L86.1874 59.0337L86.9074 58.9072L87.6183 58.764L88.3202 58.6038L89.0122 58.4271L89.6939 58.2337L90.365 58.0241L91.0252 57.7983L91.674 57.5564L92.3111 57.2986L92.9358 57.0253L93.5482 56.7364L94.1477 56.4325L94.7339 56.1136L95.3065 55.7797L95.8652 55.4315L96.4097 55.0687L96.9395 54.6921L97.4546 54.3017L97.9547 53.898L98.4394 53.481L98.9084 53.0509L99.3614 52.6084L99.7984 52.1535L100.219 51.6866L100.623 51.208L101.01 50.7177L101.38 50.2168L101.733 49.7051L102.068 49.1828L102.386 48.6507L102.687 48.1088L102.969 47.5576L103.234 46.9971L103.48 46.4283L103.709 45.8511L103.919 45.2659L104.111 44.6734L104.284 44.0734L104.439 43.4668L104.575 42.8535L104.693 42.2344L104.792 41.6094L104.873 40.9793L104.935 40.3442L104.978 39.7047L105.003 39.0608L105.009 38.4133L104.997 37.7622L104.966 37.1082L104.917 36.4517L104.849 35.7928L104.763 35.1322L104.659 34.47L104.537 33.8067L104.397 33.1427L104.239 32.4785L104.063 31.8141L103.87 31.1503L103.659 30.4873L103.431 29.8255L103.185 29.1652L102.923 28.5068L102.644 27.8506L102.348 27.1972L102.035 26.5468L101.707 25.8996L101.362 25.2565L101.002 24.6172L100.626 23.9823L100.234 23.3522L99.8277 22.7273L99.4063 22.1079L98.9703 21.4943L98.5197 20.8868L98.0551 20.2858L97.5769 19.6914L97.0849 19.1043L96.5798 18.5246L96.0615 17.9527L95.5304 17.3888L94.9872 16.8332L94.4318 16.2865L93.8646 15.7485L93.2862 15.2198L92.6966 14.7005ZM95.0283 14.6362L94.2764 13.9987L93.5114 13.374L92.7341 12.7623L91.9443 12.1638L91.1432 11.579L90.3307 11.0079L89.5072 10.4512L88.6736 9.90892L87.8297 9.38162L86.9765 8.8691L86.1142 8.37233L85.2434 7.89083L84.3644 7.42531L83.4776 6.97604L82.5838 6.543L81.6832 6.12644L80.7763 5.72684L79.8638 5.34445L78.946 4.97927L78.0233 4.63153L77.0962 4.30124L76.1655 3.98912L75.2314 3.69469L74.2947 3.41868L73.3555 3.16109L72.4144 2.92215L71.472 2.70164L70.529 2.50026L69.5857 2.31755L68.6424 2.15398L67.7 2.00955L66.7587 1.88451L65.8192 1.77886L64.882 1.69283L63.9477 1.62619L63.0165 1.57918L62.0892 1.55204L61.1662 1.54452L60.2479 1.55664L59.3352 1.58863L58.428 1.64048L57.5274 1.71222L56.6339 1.80382L55.7476 1.91505L54.869 2.04639L53.999 2.19735L53.1377 2.36795L52.2861 2.55818L51.4442 2.76828L50.6127 2.99776L49.7922 3.24688L48.9833 3.51537L48.1858 3.80301L47.4009 4.1098L46.6289 4.43573L45.87 4.78056L45.1252 5.14405L44.3944 5.5262L43.6784 5.92677L42.9775 6.34551L42.2923 6.78242L41.6229 7.23702L40.97 7.70932L40.3341 8.19906L39.7157 8.70601L39.1147 9.22968L38.5322 9.77031L37.9681 10.3272L37.4229 10.9003L36.8969 11.4889L36.3906 12.0933L35.9044 12.7126L35.4385 13.3471L34.9936 13.996L34.5695 14.659L34.167 15.3361L33.786 16.0265L33.427 16.7297L33.0902 17.446L32.7758 18.1742L32.4844 18.9145L32.216 19.6662L31.971 20.4291L31.7495 21.2026L31.5515 21.986L31.3775 22.7791L31.2276 23.5815L31.1017 24.3926L31.0005 25.2119L30.9236 26.0389L30.8714 26.8733L30.844 27.7144L30.8414 28.5618L30.8637 29.4148L30.9108 30.2731L30.9828 31.1358L31.0799 32.0028L31.2019 32.8735L31.3492 33.7469L31.5212 34.6229L31.7182 35.5008L31.9399 36.38L32.1865 37.2601L32.4575 38.1402L32.753 39.0199L33.073 39.8988L33.4173 40.776L33.7856 41.6511L34.1779 42.5235L34.5935 43.3927L35.0326 44.258L35.4951 45.1188L35.9803 45.9747L36.4881 46.8248L37.0185 47.6688L37.5707 48.5063L38.1445 49.3362L38.7396 50.1582L39.3559 50.9719L39.9925 51.7765L40.6493 52.5715L41.326 53.3567L42.022 54.1309L42.737 54.894L43.4702 55.6454L44.2214 56.3848L44.99 57.1113L45.7756 57.8247L46.5777 58.5241L47.3956 59.2096L48.229 59.8801L49.077 60.5356L49.9392 61.1756L50.8153 61.7996L51.7043 62.4071L52.6059 62.9976L53.5191 63.571L54.4437 64.1266L55.3788 64.6641L56.324 65.1834L57.2785 65.6838L58.2417 66.1651L59.2129 66.6272L60.1914 67.0695L61.1767 67.4916L62.168 67.8936L63.1647 68.2748L64.166 68.6354L65.1714 68.9749L66.18 69.2933L67.1912 69.5902L68.2044 69.8654L69.2191 70.1191L70.2339 70.3506L71.2491 70.5602L72.2632 70.7475L73.2759 70.9125L74.2864 71.0555L75.2943 71.1759L76.2987 71.2738L77.2988 71.3494L78.294 71.4023L79.2839 71.4328L80.2678 71.4408L81.2448 71.4263L82.2146 71.3894L83.1763 71.3305L84.1293 71.2491L85.0731 71.1456L86.0072 71.0201L86.9306 70.8725L87.8433 70.7034L88.7442 70.5127L89.6331 70.3007L90.5095 70.0673L91.3725 69.8128L92.2217 69.5376L93.0565 69.2419L93.8768 68.9257L94.6819 68.5893L95.4711 68.2334L96.2441 67.8578L97.0006 67.463L97.7401 67.0494L98.4619 66.6168L99.1657 66.1661L99.8514 65.6974L100.518 65.2111L101.166 64.7075L101.795 64.187L102.404 63.65L102.993 63.097L103.561 62.528L104.109 61.9435L104.636 61.3442L105.141 60.7304L105.625 60.1026L106.088 59.4609L106.529 58.8059L106.948 58.138L107.344 57.4581L107.718 56.766L108.069 56.0622L108.397 55.3474L108.703 54.6223L108.986 53.8869L109.245 53.142L109.482 52.3876L109.695 51.6248L109.885 50.8537L110.051 50.0748L110.194 49.2885L110.314 48.4956L110.41 47.6964L110.483 46.8911L110.532 46.0808L110.558 45.2654L110.561 44.4458L110.541 43.6222L110.497 42.7951L110.43 41.9651L110.341 41.1327L110.228 40.2984L110.093 39.4624L109.935 38.6256L109.755 37.7881L109.552 36.9507L109.328 36.1134L109.081 35.2771L108.812 34.4421L108.522 33.609L108.211 32.778L107.878 31.9498L107.525 31.1249L107.151 30.3034L106.756 29.486L106.341 28.673L105.906 27.8651L105.452 27.0625L104.978 26.2655L104.486 25.475L103.974 24.6911L103.444 23.9142L102.896 23.1448L102.33 22.3832L101.746 21.6298L101.146 20.8851L100.528 20.1497L99.8945 19.4234L99.2445 18.7071L98.5788 18.0012L97.898 17.3055L97.2019 16.6209L96.4913 15.9477L95.7666 15.2859L95.0283 14.6362Z" stroke="url(#paint0_angular_301_457)" stroke-width="1.875" stroke-linecap="round" stroke-linejoin="round"/>
</g>
<defs>
<radialGradient id="paint0_angular_301_457" cx="0" cy="0" r="1" gradientUnits="userSpaceOnUse" gradientTransform="translate(58 58) rotate(90) scale(57)">
<stop offset="0.0993526" stop-color="#FFC876"/>
<stop offset="0.427081" stop-color="#79FFF7"/>
<stop offset="0.718753" stop-color="#9F53FF"/>
<stop offset="1" stop-color="#FF98E2"/>
</radialGradient>
</defs>
</svg>
