<svg width="59" height="59" viewBox="0 0 59 59" fill="none" xmlns="http://www.w3.org/2000/svg">
<circle cx="29.5" cy="29.5" r="29.5" fill="url(#paint0_linear_555_55)"/>
<path d="M19.9127 34.8465L18.7204 36.3285L22.7179 40.3261L24.2014 39.113C24.9294 39.516 25.7012 39.8342 26.5017 40.0616L26.7061 42H30.2324V39.0215H33.3458C33.6493 39.8722 34.4545 40.4863 35.4082 40.4863C36.6198 40.4863 37.6055 39.5006 37.6055 38.2891C37.6055 37.0775 36.6197 36.0918 35.4082 36.0918C34.4545 36.0918 33.6493 36.706 33.3458 37.5566H30.2324V36.0918H29.5C25.8652 36.0918 22.9082 33.1348 22.9082 29.5C22.9082 25.8652 25.8652 22.9082 29.5 22.9082H30.2324V21.4434H33.3458C33.6493 22.294 34.4545 22.9082 35.4082 22.9082C36.6198 22.9082 37.6055 21.9225 37.6055 20.7109C37.6055 19.4994 36.6197 18.5137 35.4082 18.5137C34.4545 18.5137 33.6493 19.1278 33.3458 19.9785H30.2324V17H26.6397L26.4494 18.9542C25.6499 19.1848 24.8796 19.5064 24.1535 19.9127L22.6715 18.7204L18.6725 22.7179L19.887 24.2014C19.4842 24.9295 19.166 25.7012 18.9386 26.5017L17 26.7061V32.3602L18.9542 32.5506C19.1848 33.3501 19.5064 34.1204 19.9127 34.8465Z" fill="url(#paint1_linear_555_55)"/>
<path d="M39.7988 27.3047C38.8452 27.3047 38.0399 27.9188 37.7364 28.7695H28.0312V30.2344H37.7364C38.0399 31.0851 38.8452 31.6992 39.7988 31.6992C41.0104 31.6992 41.9961 30.7135 41.9961 29.502C41.9961 28.2904 41.0104 27.3047 39.7988 27.3047Z" fill="url(#paint2_linear_555_55)"/>
<path d="M39.9733 21.4516C38.6858 21.3551 37.6074 22.3752 37.6074 23.6426C37.6074 23.7338 37.6234 23.8206 37.6343 23.9089L35.237 25.1075H28.8958C26.3991 25.1075 24.375 27.1315 24.375 29.6283C24.375 31.9855 26.286 33.8965 28.6433 33.8965H35.237L37.6343 35.0951C37.6234 35.1834 37.6074 35.2702 37.6074 35.3614C37.6074 36.6288 38.6858 37.6489 39.9733 37.5523C41.0477 37.4717 41.915 36.6044 41.9957 35.53C42.0922 34.2425 41.0721 33.1641 39.8047 33.1641C39.2138 33.1641 38.679 33.4012 38.2838 33.7819L35.5833 32.4317H28.7695C27.1515 32.4317 25.8398 31.12 25.8398 29.502C25.8398 27.884 27.1515 26.5723 28.7695 26.5723H35.5833L38.2838 25.2221C38.679 25.6028 39.2138 25.8399 39.8047 25.8399C41.0721 25.8399 42.0922 24.7615 41.9957 23.474C41.915 22.3996 41.0477 21.5323 39.9733 21.4516Z" fill="url(#paint3_linear_555_55)"/>
<defs>
<linearGradient id="paint0_linear_555_55" x1="29.5" y1="0" x2="29.5" y2="59" gradientUnits="userSpaceOnUse">
<stop stop-color="#383844"/>
<stop offset="1" stop-color="#353542"/>
</linearGradient>
<linearGradient id="paint1_linear_555_55" x1="27.3027" y1="17" x2="27.3027" y2="42" gradientUnits="userSpaceOnUse">
<stop stop-color="#C7D2F6"/>
<stop offset="1" stop-color="#727FA6"/>
</linearGradient>
<linearGradient id="paint2_linear_555_55" x1="35.0137" y1="27.3047" x2="35.0137" y2="31.6992" gradientUnits="userSpaceOnUse">
<stop stop-color="#C7D2F6"/>
<stop offset="1" stop-color="#727FA6"/>
</linearGradient>
<linearGradient id="paint3_linear_555_55" x1="33.1885" y1="21.4453" x2="33.1885" y2="37.5587" gradientUnits="userSpaceOnUse">
<stop stop-color="#C7D2F6"/>
<stop offset="1" stop-color="#727FA6"/>
</linearGradient>
</defs>
</svg>
