<svg width="59" height="59" viewBox="0 0 59 59" fill="none" xmlns="http://www.w3.org/2000/svg">
<circle cx="29.5" cy="29.5" r="29.5" fill="url(#paint0_linear_555_50)"/>
<path d="M39.4219 33.5534C38.244 33.5534 37.2489 34.3484 36.942 35.4304H34.4531V32.6827H36.9944C39.7545 32.6827 42 30.4347 42 27.6716C42 25.4562 40.5322 23.51 38.4486 22.8761C37.8187 20.3513 35.5421 18.5405 32.9054 18.5405C31.8833 18.5405 30.9042 18.8044 30.0401 19.3085C29.1249 18.4707 27.925 18 26.6642 18C23.9598 18 21.7495 20.1582 21.6613 22.8443C19.5209 23.4432 18 25.405 18 27.6716C18 30.4347 20.2455 32.6827 23.0056 32.6827H25.5469V35.4304H23.058C22.7511 34.3484 21.756 33.5534 20.5781 33.5534C19.1565 33.5534 18 34.7112 18 36.1343C18 37.5574 19.1565 38.7152 20.5781 38.7152C21.756 38.7152 22.7511 37.9201 23.058 36.8382H26.25C26.6383 36.8382 26.9531 36.523 26.9531 36.1343V32.6827H29.2969V36.9365C28.2161 37.2437 27.4219 38.24 27.4219 39.4191C27.4219 40.8422 28.5784 42 30 42C31.4216 42 32.5781 40.8422 32.5781 39.4191C32.5781 38.24 31.7839 37.2438 30.7031 36.9365V32.6827H33.0469V36.1343C33.0469 36.523 33.3617 36.8382 33.75 36.8382H36.942C37.2489 37.9201 38.244 38.7152 39.4219 38.7152C40.8435 38.7152 42 37.5574 42 36.1343C42 34.7112 40.8435 33.5534 39.4219 33.5534ZM20.5781 37.3074C19.932 37.3074 19.4062 36.7811 19.4062 36.1343C19.4062 35.4874 19.932 34.9611 20.5781 34.9611C21.2243 34.9611 21.75 35.4874 21.75 36.1343C21.75 36.7811 21.2243 37.3074 20.5781 37.3074ZM31.1719 39.4191C31.1719 40.066 30.6462 40.5922 30 40.5922C29.3538 40.5922 28.8281 40.066 28.8281 39.4191C28.8281 38.7722 29.3538 38.2459 30 38.2459C30.6462 38.2459 31.1719 38.7722 31.1719 39.4191ZM23.0056 31.2749C21.021 31.2749 19.4062 29.6585 19.4062 27.6716C19.4062 25.8958 20.7285 24.363 22.4817 24.1064C22.8517 24.0522 23.1146 23.7176 23.0801 23.3449C23.0699 23.2339 23.0647 23.1225 23.0647 23.011C23.0647 21.0242 24.6795 19.4078 26.6641 19.4078C27.723 19.4078 28.7216 19.8686 29.4037 20.6721C29.6432 20.9542 30.06 21.0023 30.3574 20.7823C31.0949 20.2367 31.9759 19.9483 32.9054 19.9483C35.0442 19.9483 36.8228 21.5193 37.1553 23.563C37.1783 23.7041 37.2437 23.8349 37.3427 23.9379C37.4418 24.0409 37.5698 24.1113 37.7098 24.1397C39.3809 24.4783 40.5937 25.9637 40.5937 27.6716C40.5937 29.6585 38.979 31.2749 36.9943 31.2749H23.0056ZM39.4219 37.3074C38.7757 37.3074 38.25 36.7811 38.25 36.1343C38.25 35.4874 38.7757 34.9611 39.4219 34.9611C40.068 34.9611 40.5938 35.4874 40.5938 36.1343C40.5938 36.7811 40.068 37.3074 39.4219 37.3074Z" fill="url(#paint1_linear_555_50)"/>
<defs>
<linearGradient id="paint0_linear_555_50" x1="29.5" y1="0" x2="29.5" y2="59" gradientUnits="userSpaceOnUse">
<stop stop-color="#383844"/>
<stop offset="1" stop-color="#353542"/>
</linearGradient>
<linearGradient id="paint1_linear_555_50" x1="30" y1="18" x2="30" y2="42" gradientUnits="userSpaceOnUse">
<stop stop-color="#C1AFF7"/>
<stop offset="1" stop-color="#44BFB5"/>
</linearGradient>
</defs>
</svg>
