<svg width="59" height="59" viewBox="0 0 59 59" fill="none" xmlns="http://www.w3.org/2000/svg">
<circle cx="29.5" cy="29.5" r="29.5" fill="url(#paint0_linear_555_52)"/>
<path d="M40.6545 18H19.2727C17.468 18 16 19.468 16 21.2727V34.3636C16 36.1683 17.468 37.6364 19.2727 37.6364H28.8727V39.8182H23.2V42H36.7273V39.8182H31.0545V37.6364H40.6545C42.4592 37.6364 43.9273 36.1683 43.9273 34.3636V21.2727C43.9273 19.468 42.4592 18 40.6545 18ZM41.7455 34.3636C41.7455 34.9651 41.256 35.4545 40.6545 35.4545H19.2727C18.6713 35.4545 18.1818 34.9651 18.1818 34.3636V21.2727C18.1818 20.6713 18.6713 20.1818 19.2727 20.1818H40.6545C41.256 20.1818 41.7455 20.6713 41.7455 21.2727V34.3636ZM28.2182 21.8248V24.0066C27.6167 24.0066 27.1273 24.496 27.1273 25.0975V25.643C27.1273 26.4806 26.8106 27.2452 26.2912 27.8248C26.8106 28.4043 27.1273 29.1691 27.1273 30.0066V30.5521C27.1273 31.1535 27.6167 31.643 28.2182 31.643V33.8248C26.4135 33.8248 24.9455 32.3567 24.9455 30.5521V30.0066C24.9455 29.4051 24.456 28.9157 23.8545 28.9157V26.7339C24.456 26.7339 24.9455 26.2444 24.9455 25.643V25.0975C24.9455 23.293 26.4135 21.8248 28.2182 21.8248ZM36.4 26.7339V28.9157C35.7985 28.9157 35.3091 29.4051 35.3091 30.0066V30.5521C35.3091 32.3567 33.8411 33.8248 32.0364 33.8248V31.643C32.6378 31.643 33.1273 31.1535 33.1273 30.5521V30.0066C33.1273 29.1691 33.4439 28.4043 33.9633 27.8248C33.4439 27.2452 33.1273 26.4806 33.1273 25.643V25.0975C33.1273 24.496 32.6378 24.0066 32.0364 24.0066V21.8248C33.8411 21.8248 35.3091 23.293 35.3091 25.0975V25.643C35.3091 26.2444 35.7985 26.7339 36.4 26.7339Z" fill="url(#paint1_linear_555_52)"/>
<defs>
<linearGradient id="paint0_linear_555_52" x1="29.5" y1="0" x2="29.5" y2="59" gradientUnits="userSpaceOnUse">
<stop stop-color="#383844"/>
<stop offset="1" stop-color="#353542"/>
</linearGradient>
<linearGradient id="paint1_linear_555_52" x1="29.9636" y1="18" x2="29.9636" y2="42" gradientUnits="userSpaceOnUse">
<stop stop-color="#FFB359"/>
<stop offset="1" stop-color="#E48C4F"/>
</linearGradient>
</defs>
</svg>
