<svg width="59" height="59" viewBox="0 0 59 59" fill="none" xmlns="http://www.w3.org/2000/svg">
<circle cx="29.5" cy="29.5" r="29.5" fill="url(#paint0_linear_555_53)"/>
<path d="M25.125 28.253C25.2907 28.2532 25.4497 28.1873 25.5669 28.0702C25.684 27.953 25.7499 27.794 25.7497 27.6283C25.7497 27.2833 26.0296 27.0034 26.3746 27.0034C26.7196 27.0034 26.9995 27.2833 26.9995 27.6283C26.9995 27.9734 27.2791 28.253 27.6241 28.253C27.9694 28.253 28.249 27.9733 28.249 27.6283C28.249 26.5929 27.4097 25.7539 26.3746 25.7539C25.3395 25.7539 24.5001 26.5929 24.5001 27.6283C24.5001 27.7104 24.5163 27.7917 24.5477 27.8675C24.5791 27.9433 24.6251 28.0122 24.6831 28.0702C24.7412 28.1282 24.8101 28.1742 24.8859 28.2056C24.9617 28.2369 25.043 28.253 25.125 28.253ZM33.5929 32.3803C31.2595 33.5468 27.7383 33.5468 25.4044 32.3803C25.0957 32.2258 24.7205 32.351 24.566 32.6597C24.4119 32.9683 24.5368 33.3438 24.8455 33.498C26.2996 34.184 27.8909 34.5295 29.4985 34.5085C31.1062 34.5294 32.6975 34.1839 34.1517 33.498C34.4604 33.3438 34.5855 32.9683 34.4313 32.6596C34.2769 32.351 33.9016 32.2258 33.5929 32.3802V32.3803Z" fill="url(#paint1_linear_555_53)"/>
<path d="M40.118 27.0048H39.4931V25.1303C39.4915 23.4059 38.0937 22.008 36.3691 22.0064H34.4947V20.6415C35.3553 20.3375 35.8717 19.4572 35.7173 18.5575C35.5628 17.6576 34.7827 17 33.8698 17C32.9568 17 32.1768 17.6576 32.0224 18.5575C31.8679 19.4573 32.3844 20.3375 33.2449 20.6415V22.0064H25.7472V20.6415C26.608 20.3375 27.1242 19.4572 26.97 18.5575C26.8157 17.6576 26.0356 17 25.1226 17C24.2096 17 23.4294 17.6576 23.2752 18.5575C23.1208 19.4573 23.6369 20.3375 24.4977 20.6415V22.0064H22.6233C20.8987 22.0082 19.5012 23.4058 19.4993 25.1304V27.0048H18.8744C17.8397 27.006 17.0012 27.8446 17 28.8792V31.3785C17.0012 32.4132 17.8397 33.2518 18.8744 33.253H19.4993V35.7521C19.5012 37.4768 20.8987 38.8744 22.6233 38.8763H25.7472V41.3753C25.7473 41.4869 25.7773 41.5963 25.8339 41.6924C25.8906 41.7885 25.9719 41.8677 26.0694 41.9217C26.1669 41.9758 26.2771 42.0027 26.3886 41.9998C26.5 41.9968 26.6087 41.9641 26.7032 41.905L31.5499 38.8763H36.3691C38.0937 38.8746 39.4915 37.4769 39.4931 35.7521V33.253H40.118C41.1527 33.2518 41.9913 32.4132 41.9924 31.3785V28.8792C41.9913 27.8445 41.1527 27.0059 40.118 27.0048ZM33.8698 18.2576C34.2149 18.2576 34.4947 18.5372 34.4947 18.8823C34.4947 19.2275 34.2149 19.5072 33.8698 19.5072C33.5248 19.5072 33.2449 19.2275 33.2449 18.8823C33.2457 18.5377 33.5251 18.2583 33.8698 18.2576ZM25.1226 18.2576C25.4677 18.2576 25.7472 18.5372 25.7472 18.8823C25.7472 19.2275 25.4677 19.5072 25.1226 19.5072C24.7775 19.5072 24.4977 19.2275 24.4977 18.8823C24.4982 18.5374 24.7776 18.2581 25.1226 18.2576ZM18.8744 32.0032C18.5296 32.003 18.25 31.7233 18.2495 31.3785V28.8792C18.25 28.5343 18.5296 28.2548 18.8744 28.2543H19.4993V32.0031L18.8744 32.0032ZM38.2436 35.7521C38.2424 36.787 37.4038 37.6255 36.3691 37.6265H31.3705C31.2536 37.6265 31.139 37.6594 31.0399 37.7217L26.997 40.2477V38.2513C26.997 38.0856 26.9311 37.9267 26.8139 37.8095C26.6968 37.6923 26.5378 37.6265 26.3721 37.6264H22.6233C21.5886 37.6255 20.75 36.7869 20.7489 35.752V25.1303C20.75 24.0956 21.5886 23.2571 22.6233 23.2559H36.3691C37.4038 23.2571 38.2424 24.0956 38.2436 25.1303V35.7521ZM40.7427 31.3785C40.7422 31.7233 40.4628 32.0027 40.118 32.0032H39.4931V28.2543H40.118C40.4628 28.2551 40.7422 28.5344 40.7427 28.8792V31.3785Z" fill="url(#paint2_linear_555_53)"/>
<path d="M32.6166 25.7539C31.5819 25.7551 30.7434 26.5936 30.7422 27.6283C30.7422 27.9733 31.0218 28.253 31.3668 28.253C31.7121 28.253 31.9917 27.9733 31.9917 27.6283C31.9917 27.2833 32.2716 27.0034 32.6166 27.0034C32.9616 27.0034 33.2413 27.2833 33.2413 27.6283C33.2413 27.9734 33.5211 28.253 33.8662 28.253C34.2112 28.253 34.491 27.9733 34.491 27.6283C34.4899 26.5936 33.6513 25.7551 32.6166 25.7539Z" fill="url(#paint3_linear_555_53)"/>
<defs>
<linearGradient id="paint0_linear_555_53" x1="29.5" y1="0" x2="29.5" y2="59" gradientUnits="userSpaceOnUse">
<stop stop-color="#383844"/>
<stop offset="1" stop-color="#353542"/>
</linearGradient>
<linearGradient id="paint1_linear_555_53" x1="29.4987" y1="25.7539" x2="29.4987" y2="34.5094" gradientUnits="userSpaceOnUse">
<stop stop-color="#99E6DF"/>
<stop offset="1" stop-color="#45BFB5"/>
</linearGradient>
<linearGradient id="paint2_linear_555_53" x1="29.4962" y1="17" x2="29.4962" y2="42" gradientUnits="userSpaceOnUse">
<stop stop-color="#99E6DF"/>
<stop offset="1" stop-color="#45BFB5"/>
</linearGradient>
<linearGradient id="paint3_linear_555_53" x1="32.6166" y1="25.7539" x2="32.6166" y2="28.253" gradientUnits="userSpaceOnUse">
<stop stop-color="#99E6DF"/>
<stop offset="1" stop-color="#45BFB5"/>
</linearGradient>
</defs>
</svg>
